<svg version="1.1" id="Layer_1" xmlns="http://www.w3.org/2000/svg" xmlns:xlink="http://www.w3.org/1999/xlink" x="0px" y="0px"
	 width="100%" viewBox="0 0 1170 670" enable-background="new 0 0 1170 670" xml:space="preserve">
<path fill="#FEFEFE" opacity="1.000000" stroke="none" 
	d="
M760.000000,671.000000 
	C506.666687,671.000000 253.833359,671.000000 1.000034,671.000000 
	C1.000023,447.666687 1.000023,224.333389 1.000011,1.000064 
	C390.999969,1.000043 780.999939,1.000043 1171.000000,1.000021 
	C1171.000000,224.333267 1171.000000,447.666534 1171.000000,670.999878 
	C1034.166626,671.000000 897.333313,671.000000 760.000000,671.000000 
M421.000000,39.000000 
	C421.000000,39.000000 420.997559,39.002407 420.912750,38.255325 
	C418.877411,33.604275 415.125641,34.891773 411.550964,35.542423 
	C408.868347,36.030712 405.493439,37.749809 403.634949,36.726566 
	C399.209351,34.289917 395.507965,36.162243 391.543365,37.057941 
	C390.702240,37.247963 389.976807,37.949940 389.198059,38.416031 
	C389.744202,39.267323 390.338074,40.092152 390.827423,40.974926 
	C392.216248,43.480412 393.562378,46.009556 395.190918,49.020397 
	C393.655975,50.044247 392.425842,50.864799 391.195679,51.685356 
	C391.796722,51.802319 392.397736,51.919285 392.998779,52.036247 
	C392.998779,105.690628 392.998779,159.345016 392.153656,213.004715 
	C391.165649,213.420837 389.328827,213.813904 389.316803,214.256500 
	C389.133850,220.994827 389.189606,227.739624 389.189606,233.443924 
	C391.956360,231.550858 394.740906,229.645615 397.525452,227.740356 
	C397.270111,227.371017 397.014771,227.001694 396.759430,226.632370 
	C395.595917,226.533936 394.432373,226.435501 393.629364,226.367554 
	C393.409241,221.682983 393.205231,217.341797 393.730133,212.998611 
	C396.082184,212.999893 398.434204,213.001190 401.007874,213.585052 
	C401.048187,213.998550 401.088501,214.412048 401.045166,215.546356 
	C401.028900,216.030289 401.012634,216.514236 400.184448,216.998932 
	C398.626038,217.084900 397.067627,217.170853 395.509247,217.256805 
	C395.362762,217.672012 395.216309,218.087204 395.069855,218.502411 
	C396.785004,219.658905 398.500153,220.815399 400.081238,221.881485 
	C400.381622,224.858200 400.691437,227.928192 401.000000,231.000000 
	C401.000000,231.000000 400.997559,231.001022 400.401825,231.076355 
	C400.078979,231.479523 399.756134,231.882675 399.433319,232.285843 
	C399.944824,232.524750 400.456329,232.763657 400.968170,233.647842 
	C400.922058,234.074615 400.875946,234.501389 400.152100,235.130371 
	C398.997528,236.481873 397.842926,237.833359 396.688354,239.184845 
	C396.354187,238.883942 396.020050,238.583038 395.685883,238.282135 
	C395.890747,237.310852 396.095612,236.339554 396.342743,235.167847 
	C388.221832,237.017075 387.905182,237.747543 391.138611,243.954102 
	C392.144867,245.885590 392.902069,248.203781 392.920410,250.352234 
	C393.064026,267.167664 393.000000,283.984894 393.000000,300.801575 
	C393.000000,333.768921 393.017151,366.736298 392.949890,399.703522 
	C392.946472,401.379242 392.773956,403.659515 391.727142,404.623505 
	C387.170837,408.819550 387.874084,413.760284 393.858368,415.992371 
	C393.771179,417.487579 393.680542,419.041504 393.538696,421.474213 
	C399.046875,420.883698 404.104675,420.339844 409.162872,419.799530 
	C419.583496,418.686371 429.593872,415.555389 440.373322,415.779907 
	C470.663513,416.410797 500.976471,415.863068 531.277832,416.108704 
	C537.805542,416.161621 544.320435,417.608612 550.846008,418.372803 
	C551.609741,418.462280 552.436462,418.416626 553.178772,418.222504 
	C559.365540,416.604523 565.555969,414.290680 570.996521,420.198181 
	C571.704651,420.967163 573.470703,420.793823 574.756958,420.990021 
	C576.258484,421.218994 577.771240,421.374481 579.279114,421.561829 
	C579.243774,421.803925 579.208374,422.045990 579.172974,422.288055 
	C576.140686,423.327576 573.108459,424.367065 569.420532,425.631317 
	C576.264038,431.159821 579.395691,430.043793 582.004822,421.879578 
	C586.771790,421.420135 591.735474,420.941742 596.699158,420.463348 
	C596.827087,419.901642 596.954956,419.339935 597.082886,418.778229 
	C594.048340,417.510101 590.991211,416.292297 587.992432,414.944458 
	C587.041687,414.517090 586.246704,413.743073 585.380432,413.127686 
	C586.330200,412.424774 587.194946,411.364471 588.252136,411.112854 
	C589.468750,410.823303 591.499146,410.735657 592.065552,411.445923 
	C596.197266,416.627197 601.224243,411.523590 605.644409,412.785095 
	C605.911194,412.861176 606.549561,411.635223 607.948975,411.005798 
	C654.294312,411.008942 700.639587,411.012054 747.169617,411.788391 
	C750.882446,412.598755 754.595276,413.409119 757.621887,414.069733 
	C760.229553,412.919769 762.332092,411.589661 764.605652,411.155731 
	C765.785095,410.930664 767.267212,412.291077 768.612549,412.935211 
	C767.479431,413.627930 766.394714,414.421692 765.203552,414.993408 
	C762.342712,416.366394 758.637634,416.575867 757.174072,420.634064 
	C762.690796,420.634064 767.598633,420.634064 772.978760,420.634064 
	C772.978760,415.875732 773.042053,411.463135 772.926453,407.055206 
	C772.902771,406.152130 772.150085,405.286804 771.835266,404.369171 
	C770.863770,401.537994 769.130676,398.692810 769.120728,395.848083 
	C768.952087,347.707458 768.960144,299.565948 769.101501,251.425156 
	C769.109802,248.613556 770.584106,245.806274 771.376160,242.996979 
	C771.692810,243.098816 772.009460,243.200668 772.326111,243.302505 
	C772.196472,241.387344 772.066895,239.472198 771.923706,237.357193 
	C771.346375,237.081360 770.417419,236.637558 770.555542,236.703552 
	C771.632141,234.155914 772.520264,232.054321 773.408386,229.952728 
	C772.788940,230.118423 772.169434,230.284103 771.549988,230.449783 
	C768.595398,228.299225 765.693542,226.069168 762.650391,224.052292 
	C761.857971,223.527100 760.587769,223.410263 759.601379,223.552444 
	C757.232056,223.894012 754.901672,224.932434 752.554260,224.936386 
	C702.747437,225.020370 652.940369,225.028534 603.133545,224.929306 
	C600.134766,224.923340 597.153687,223.743881 594.131165,223.437302 
	C593.158936,223.338699 591.753662,224.023560 591.107544,224.810547 
	C588.584106,227.884247 585.534241,229.115417 580.206543,228.671051 
	C582.457520,227.266586 583.486450,226.624603 585.410156,225.424347 
	C581.943298,225.066696 579.594788,224.824417 576.303345,224.484863 
	C577.727173,222.203918 578.638794,220.743530 579.072937,220.048080 
	C584.854004,220.388885 589.937317,220.688553 595.671875,220.988159 
	C596.106201,220.987427 596.540588,220.986694 597.800537,220.995987 
	C599.533386,220.329834 601.266174,219.663681 603.828247,218.990112 
	C605.210205,218.988602 606.592224,218.987076 608.815979,218.996689 
	C610.218323,218.993561 611.620728,218.990433 613.957520,218.983841 
	C656.629517,218.984360 699.301514,218.984879 742.783997,218.996658 
	C743.864563,218.993118 744.945068,218.989578 746.854614,218.982162 
	C748.236389,218.987289 749.618225,218.992416 751.153992,219.750137 
	C753.111023,220.162048 755.067993,220.573959 757.676453,220.985901 
	C758.110718,220.986679 758.545044,220.987457 759.915405,220.997284 
	C764.142090,220.997284 768.368774,220.997284 772.315735,220.997284 
	C774.237488,214.960464 772.020325,212.124847 766.989319,210.063400 
	C766.988831,159.101013 766.946655,108.138504 767.105164,57.176605 
	C767.113464,54.501614 768.873779,51.847088 769.721558,49.152554 
	C770.075256,48.028305 770.480957,45.840195 770.346558,45.798443 
	C765.176270,44.192394 762.737976,38.628292 755.779907,38.702713 
	C702.991577,39.267300 650.194458,38.980625 597.400330,39.096828 
	C594.601440,39.102985 591.805359,40.352119 589.002136,40.278183 
	C588.840698,39.370743 588.679260,38.463303 588.641113,38.248871 
	C586.532043,39.195171 584.534119,40.824692 582.743103,40.622398 
	C581.654907,40.499496 580.886353,37.547222 579.940369,35.803593 
	C585.612061,33.560917 592.200073,37.651695 596.593750,30.353470 
	C590.870178,29.192942 585.740845,28.151077 580.609009,27.121576 
	C580.461670,27.092026 580.262756,27.154570 580.130249,27.239923 
	C575.806580,30.025703 572.746399,30.508806 572.781860,23.739592 
	C572.786499,22.842983 570.705383,21.579266 569.388245,21.214203 
	C568.889282,21.075926 567.143188,23.006674 567.156433,23.978077 
	C567.181030,25.778461 568.038757,27.581179 568.626770,29.357355 
	C569.881226,33.146362 572.067505,35.928413 576.826965,36.260101 
	C574.234924,37.123577 572.006592,36.932552 569.837585,37.208405 
	C568.832092,37.336277 567.942261,38.373112 566.337769,39.005436 
	C565.896240,39.006390 565.454773,39.007347 564.073242,39.001984 
	C516.381348,39.002041 468.689453,39.002094 421.000000,39.000000 
M123.957031,636.999634 
	C125.622795,637.005127 127.290337,636.963867 128.953888,637.027222 
	C131.419647,637.121155 132.491623,636.200562 132.487289,633.525085 
	C132.441071,605.046082 132.561142,576.566345 132.350754,548.088989 
	C132.339417,546.552795 129.986221,543.979065 128.393387,543.687073 
	C120.319519,542.206909 118.240479,543.747009 115.060432,551.216675 
	C109.984482,563.139648 104.741516,574.992493 99.465309,586.828735 
	C96.060539,594.466736 92.480278,602.026733 88.957916,609.612061 
	C87.675247,612.374207 86.332405,615.108398 84.561317,618.807007 
	C77.689560,603.141235 71.568237,589.120667 65.390137,575.125122 
	C61.337360,565.944153 57.352760,556.726562 52.977547,547.699951 
	C52.102066,545.893738 49.772099,544.459229 47.788113,543.630371 
	C46.234985,542.981567 44.143951,543.774292 42.354717,543.506714 
	C37.739635,542.816345 36.889687,544.914673 36.915627,549.137756 
	C37.086494,576.953369 36.989048,604.770569 36.997768,632.587280 
	C36.998215,634.015320 37.170246,635.443420 37.250576,636.688416 
	C41.007690,636.688416 44.276386,636.688416 47.820694,636.688416 
	C47.820694,611.510803 47.820694,586.690796 47.820694,561.870728 
	C48.055195,561.877014 48.289696,561.883301 48.524197,561.889587 
	C59.591988,586.802734 70.659782,611.715820 81.723297,636.620422 
	C85.835922,637.885681 88.293938,636.798645 89.886902,632.392273 
	C92.563904,624.987305 95.873619,617.805115 99.057602,610.591187 
	C102.038803,603.836670 105.295830,597.203552 108.261810,590.442627 
	C111.954277,582.025635 115.472763,573.532227 119.887070,565.110474 
	C120.225243,566.785706 120.851479,568.459778 120.857811,570.136292 
	C120.936325,590.901611 120.880791,611.667603 121.027603,632.432190 
	C121.038170,633.927917 122.355171,635.414368 123.957031,636.999634 
M628.976929,582.500000 
	C628.976929,600.591492 628.976929,618.682983 628.976929,637.035400 
	C631.495483,637.035400 633.332092,636.867004 635.126770,637.069824 
	C639.102539,637.519409 640.857544,636.288696 640.566406,631.895569 
	C640.181580,626.087891 640.467163,620.235718 640.466064,614.402710 
	C640.464966,608.798767 640.465881,603.194824 640.465881,597.752075 
	C650.425903,596.004456 658.646851,597.282104 664.563599,606.803711 
	C670.190491,615.858704 675.531738,625.091125 681.134277,634.161682 
	C681.881226,635.370972 683.350647,636.759277 684.616455,636.901855 
	C688.001343,637.283081 691.457520,637.031799 696.598694,637.031799 
	C686.405579,621.576904 677.001953,607.319031 667.798401,593.364624 
	C669.574402,592.251038 671.967224,590.617249 674.481445,589.198364 
	C683.395264,584.167542 688.060486,569.105164 684.188782,559.674988 
	C679.302002,547.772644 669.295715,544.529358 658.065979,543.662659 
	C650.113770,543.048950 642.068298,543.750732 634.079590,543.455933 
	C630.118347,543.309753 628.834045,544.520142 628.914734,548.504517 
	C629.137390,559.498962 628.983276,570.500977 628.976929,582.500000 
M1091.901855,582.283630 
	C1100.289307,575.346313 1112.058960,577.290955 1116.193359,586.780090 
	C1117.914673,590.730774 1118.612671,595.373535 1118.729980,599.729858 
	C1119.059326,611.965271 1118.844971,624.215454 1118.844971,636.661743 
	C1122.074463,636.661743 1125.435425,636.661743 1128.868286,636.661743 
	C1128.868286,620.637756 1129.427124,604.968506 1128.557739,589.378906 
	C1128.263428,584.101196 1125.648804,577.598816 1121.837891,574.149292 
	C1113.547241,566.644775 1100.086060,566.978455 1091.789062,573.357300 
	C1089.568970,575.064148 1087.681641,577.203918 1084.843628,579.904175 
	C1084.843628,577.124878 1084.845947,575.500854 1084.843384,573.876770 
	C1084.826660,563.552551 1084.853760,553.227844 1084.734009,542.904846 
	C1084.719116,541.620911 1084.098145,539.351318 1083.459961,539.239502 
	C1080.734253,538.761841 1077.783936,538.460693 1075.160767,539.100769 
	C1074.241089,539.325073 1073.562378,542.433716 1073.557129,544.227539 
	C1073.471436,573.535522 1073.508545,602.843811 1073.532715,632.152039 
	C1073.533936,633.586914 1073.670410,635.021667 1073.745239,636.483398 
	C1077.638306,636.483398 1081.144287,636.483398 1084.812988,636.483398 
	C1084.812988,623.787720 1084.998657,611.630432 1084.738892,599.482666 
	C1084.597046,592.844971 1086.610229,587.349121 1091.901855,582.283630 
M734.500000,606.832581 
	C741.783142,606.832581 749.066284,606.832581 756.987000,606.832581 
	C756.987000,602.396667 757.282227,598.422546 756.928467,594.507019 
	C756.062988,584.927429 752.263550,576.003235 743.711914,571.809570 
	C728.293762,564.248718 709.286926,569.984070 702.115845,587.739075 
	C698.250610,597.309326 697.826721,607.168213 700.893860,617.197205 
	C705.286255,631.559692 713.044006,637.319336 727.015015,638.791992 
	C733.645630,639.490967 739.973877,637.936157 746.317871,635.601257 
	C753.283569,633.037537 753.727234,632.044800 751.873413,622.833496 
	C743.690613,628.576904 734.502991,631.244263 725.179260,628.497864 
	C715.670166,625.696838 709.241211,618.091614 711.303162,606.832520 
	C718.617798,606.832520 726.058899,606.832520 734.500000,606.832581 
M839.102539,634.416687 
	C849.374573,640.893555 860.328125,639.508362 871.051636,636.451538 
	C878.904602,634.212952 880.253784,630.746338 877.714600,622.875000 
	C869.596680,628.463684 860.556030,631.099487 851.122864,628.546631 
	C841.239624,625.871948 835.715271,616.389893 837.560852,606.686401 
	C852.493286,606.686401 867.543823,606.686401 883.057434,606.686401 
	C883.057434,602.808105 883.277649,599.479858 883.018066,596.189453 
	C882.069336,584.164124 877.840454,574.644165 865.110107,570.430298 
	C850.164185,565.482849 835.610352,572.675537 829.071655,585.627991 
	C823.590515,596.485474 823.807373,607.973267 827.320618,619.281982 
	C829.203308,625.341919 832.182251,631.130554 839.102539,634.416687 
M437.474030,634.013733 
	C440.659149,635.169922 443.845856,636.321777 447.029114,637.483093 
	C457.972290,641.475342 473.460999,636.933167 480.945892,627.862793 
	C487.898560,619.437256 489.527496,609.597107 488.707581,599.256226 
	C487.757050,587.267151 483.377869,577.163635 471.617889,571.615540 
	C459.661865,565.975037 437.135193,568.483459 428.909332,582.459778 
	C421.781525,594.570496 421.121033,607.149414 425.806976,619.817017 
	C427.800262,625.205383 430.823029,630.922607 437.474030,634.013733 
M918.732178,578.632874 
	C930.298950,578.098389 931.780823,578.938293 935.855713,588.338989 
	C937.845398,592.928955 936.794800,594.355835 931.978027,595.268555 
	C923.028809,596.964417 913.869629,598.243469 905.324280,601.211609 
	C893.686279,605.253906 892.472656,623.378662 897.955750,630.689758 
	C905.632629,640.925903 923.450562,641.171326 931.591125,632.839661 
	C932.969055,631.429321 934.549622,630.217102 936.617310,628.404114 
	C936.796143,631.846741 936.921509,634.259583 937.045471,636.646362 
	C940.764893,636.646362 944.136780,636.646362 947.523438,636.646362 
	C947.435791,635.134277 947.323853,634.028625 947.314819,632.922241 
	C947.189880,617.628235 947.295471,602.328308 946.886353,587.042114 
	C946.627502,577.368347 938.301025,569.164734 928.602966,569.170410 
	C922.102600,569.174194 915.481995,569.909790 909.134033,571.310120 
	C901.447754,573.005615 899.943909,576.444946 901.858643,584.409058 
	C907.165588,582.501465 912.487610,580.588501 918.732178,578.632874 
M345.007416,627.488403 
	C347.556976,621.837158 351.339508,616.409729 352.414398,610.490723 
	C355.141785,595.471558 349.147095,573.767395 331.263916,570.349976 
	C320.272247,568.249390 310.469299,568.519226 300.892700,574.625671 
	C288.356079,582.619446 283.979004,602.213257 289.224365,617.829773 
	C293.945801,631.886597 304.903229,637.981262 318.427124,638.780579 
	C328.786407,639.392883 337.659180,635.862915 345.007416,627.488403 
M505.504639,618.499084 
	C505.508972,623.496033 505.358032,628.501526 505.629639,633.483887 
	C505.695435,634.690735 507.018921,636.668518 508.000244,636.826782 
	C510.823120,637.281738 513.766785,636.987244 516.812439,636.987244 
	C516.812439,634.165466 516.812500,632.336731 516.812439,630.508057 
	C516.811707,615.183655 516.788208,599.859253 516.823792,584.534973 
	C516.834961,579.745483 518.285583,578.633179 522.864807,579.248901 
	C524.723755,579.498779 526.698364,578.968262 528.535278,579.285583 
	C533.441895,580.133179 532.353882,576.743713 532.436768,574.103760 
	C532.542603,570.735779 530.720825,569.924744 527.707397,570.262817 
	C524.316956,570.643127 520.898315,570.771973 516.973450,571.046448 
	C516.973450,565.236084 516.674988,560.097168 517.056763,555.009338 
	C517.443909,549.850220 520.847168,547.000366 526.175049,546.720154 
	C528.924316,546.575562 531.687561,546.694702 534.795837,546.694702 
	C534.795837,544.253845 535.095886,542.217590 534.684814,540.336731 
	C534.432861,539.183960 533.208984,537.524353 532.219360,537.367371 
	C525.143311,536.244995 518.567078,537.119263 512.919067,542.294006 
	C506.376526,548.288330 505.198853,555.860962 505.431305,564.106628 
	C505.605560,570.287720 504.695312,571.237366 498.587402,570.758240 
	C495.506317,570.516602 494.697205,570.665771 494.555908,574.368835 
	C494.375275,579.102844 495.870789,579.900085 499.869293,579.214111 
	C501.438629,578.944885 503.092804,579.170044 505.505371,579.170044 
	C505.505371,592.289856 505.505371,604.894653 505.504639,618.499084 
M391.384369,610.955322 
	C393.902313,613.709534 397.626923,616.080139 398.653351,619.308533 
	C400.165192,624.063904 395.236389,628.601440 389.619019,629.117371 
	C381.268890,629.884216 373.328796,628.666809 365.523254,623.432068 
	C365.523254,626.710693 365.040527,628.993286 365.654846,630.927429 
	C366.309448,632.988464 367.629578,635.866028 369.301392,636.408813 
	C379.963104,639.869873 390.674133,640.113281 400.917603,634.715637 
	C406.808685,631.611450 410.065094,626.015686 410.167877,619.924072 
	C410.264526,614.197083 408.574829,608.007629 402.309937,605.043640 
	C396.464020,602.277771 390.599731,599.533508 384.631775,597.048157 
	C380.115875,595.167480 376.688019,590.840149 377.064575,586.774780 
	C377.482574,582.261169 381.037567,578.706909 386.582916,578.785400 
	C393.258911,578.879883 399.920593,579.984985 407.054565,580.699280 
	C407.054565,579.713440 406.975647,577.740234 407.073425,575.775757 
	C407.212646,572.979187 406.479553,571.636414 403.303040,570.624390 
	C394.700073,567.883423 386.263031,568.003784 378.167480,571.397217 
	C371.129089,574.347656 365.860535,579.536194 365.528351,587.846497 
	C365.211182,595.780640 369.357788,601.169128 376.317780,604.477539 
	C381.030426,606.717773 385.854767,608.722961 391.384369,610.955322 
M798.490417,627.305603 
	C792.726807,631.063599 779.075195,629.559326 771.935303,624.326599 
	C767.561829,626.204651 769.643127,630.100586 769.819153,632.948364 
	C769.904602,634.330750 772.502686,636.232117 774.285889,636.720215 
	C782.642944,639.007690 790.990051,639.705566 799.592407,637.018066 
	C808.302002,634.297058 812.775024,628.618347 814.236633,619.942139 
	C814.995300,615.438538 811.115967,607.924561 805.442078,604.847900 
	C799.966858,601.878906 794.113098,599.610046 788.436951,597.008850 
	C782.989929,594.512573 780.301758,590.143494 781.095276,585.149841 
	C781.654785,581.629395 786.150085,578.503662 791.930359,578.716003 
	C798.146118,578.944336 804.329041,580.066895 810.743774,580.824951 
	C810.743774,578.166443 810.743774,574.918884 810.743774,571.583679 
	C799.893799,568.071472 789.545227,567.241455 779.251465,572.918701 
	C773.052490,576.337585 770.034668,581.751526 769.701233,588.206848 
	C769.424866,593.558472 771.252197,598.832764 776.777832,601.587952 
	C783.142334,604.761475 789.628174,607.704468 795.892944,611.061646 
	C802.088440,614.381653 806.912598,620.343689 798.490417,627.305603 
M1007.038757,605.448486 
	C1007.073303,616.138000 1010.431152,625.750183 1018.916809,632.282166 
	C1026.365356,638.015808 1035.459351,639.853394 1045.012085,638.626099 
	C1055.749878,637.246521 1058.959351,633.262695 1056.135620,624.449707 
	C1043.912720,632.925720 1028.678833,630.005981 1022.226440,619.728577 
	C1018.030090,613.044556 1017.938538,605.938171 1018.962769,598.797913 
	C1021.465027,581.354187 1034.910889,575.331238 1050.933228,579.655945 
	C1052.875244,580.180054 1054.506836,581.853455 1056.197266,582.939514 
	C1058.316895,575.541687 1056.863159,570.909729 1050.704712,569.639404 
	C1042.169800,567.878723 1033.363770,568.155457 1025.498169,572.243103 
	C1012.631470,578.929810 1007.056030,590.223877 1007.038757,605.448486 
M548.968628,559.657043 
	C548.968628,563.266357 548.968628,566.875671 548.968628,570.594727 
	C544.781616,570.825378 541.232971,571.020874 537.990479,571.199463 
	C535.094788,583.243896 544.799011,577.451172 548.987610,579.850952 
	C548.987610,581.800659 548.980713,583.776245 548.988708,585.751831 
	C549.037903,597.904419 548.772095,610.070190 549.275574,622.203979 
	C549.529846,628.332214 551.506348,634.231018 558.085388,636.914368 
	C564.320984,639.457703 570.488098,639.605957 576.455811,636.095642 
	C576.455811,633.850891 576.455811,631.610962 576.455811,629.234741 
	C575.160583,629.135376 574.150208,628.857666 573.213989,629.016724 
	C562.841309,630.779236 560.177185,625.537781 560.368164,616.638428 
	C560.593140,606.153870 560.431091,595.661377 560.493774,585.172607 
	C560.505188,583.260559 560.789185,581.350098 561.000305,578.798767 
	C566.525940,578.798767 571.578003,578.798767 576.438660,578.798767 
	C576.438660,575.852783 576.438660,573.604797 576.438660,570.868408 
	C571.183716,570.868408 566.247498,570.868408 560.706177,570.868408 
	C560.706177,564.171021 560.706177,557.949402 560.706177,551.821716 
	C553.772766,550.895386 549.189331,553.782104 548.968628,559.657043 
M202.149124,582.466492 
	C211.460999,575.836426 220.914307,578.018982 230.719070,582.125488 
	C230.828796,580.582153 230.816071,579.107178 231.057617,577.675049 
	C231.776505,573.412720 230.483887,570.482605 225.833725,570.109741 
	C220.238297,569.661133 214.507599,568.628601 209.039780,569.365356 
	C199.660843,570.629150 192.029999,575.342407 186.861710,583.717651 
	C179.998169,594.839966 178.968994,606.749695 183.472488,618.555176 
	C185.549637,624.000244 189.862198,629.313904 194.536621,632.888428 
	C202.835419,639.234436 212.527390,640.273010 222.914612,637.281372 
	C230.878220,634.987732 233.089478,631.908752 229.868057,624.301270 
	C219.902679,633.024048 199.838730,630.809509 194.655960,616.453857 
	C191.145996,606.731628 190.563736,591.203491 202.149124,582.466492 
M1002.858765,577.211670 
	C1002.778076,568.908081 1002.007629,568.055969 994.073547,569.356750 
	C987.363708,570.456909 982.845642,574.726318 979.567688,580.802551 
	C979.040283,578.623230 978.846008,576.564941 978.874573,574.509644 
	C978.965820,567.956543 973.983643,571.370422 971.283752,570.952698 
	C970.206726,570.786133 967.633057,573.108398 967.620728,574.316833 
	C967.418945,594.135315 967.473694,613.957336 967.668884,633.776611 
	C967.679626,634.869507 969.290344,636.694458 970.378540,636.880676 
	C973.036926,637.335815 975.825684,637.029175 978.814819,637.029175 
	C978.814819,625.376465 978.522400,614.714233 978.941467,604.080139 
	C979.143188,598.960449 980.237488,593.757874 981.726562,588.834473 
	C984.012207,581.277405 991.303589,577.891418 998.832520,580.210388 
	C1000.805908,580.818237 1002.941956,581.490723 1002.858765,577.211670 
M271.582886,569.776917 
	C267.403900,573.092285 263.224945,576.407654 259.076904,579.698486 
	C259.033112,578.762817 258.766388,576.848877 258.886871,574.959717 
	C259.325317,568.082764 254.112366,571.447937 251.251938,570.768311 
	C247.890411,569.969543 247.453568,572.329773 247.457214,574.873169 
	C247.485123,594.368408 247.473434,613.863953 247.648758,633.357910 
	C247.659775,634.584290 248.989548,636.684448 249.963882,636.848938 
	C252.778259,637.323914 255.724609,637.016846 258.430237,637.016846 
	C258.654938,635.631653 258.754150,635.302979 258.754944,634.974060 
	C258.782410,623.475220 258.469696,611.961731 258.975067,600.484314 
	C259.192047,595.556274 260.582367,590.498413 262.391876,585.871948 
	C264.288635,581.022522 273.204193,578.263855 278.485992,580.034912 
	C279.678772,580.434875 280.983215,580.501892 282.232300,580.721558 
	C284.228424,569.563843 283.339508,568.535828 272.818207,569.387878 
	C272.652161,569.401306 272.486908,569.424255 271.582886,569.776917 
M164.818375,589.500671 
	C164.818375,583.518433 164.818375,577.536194 164.818375,571.573181 
	C162.843872,570.974487 161.160019,570.260132 159.406418,569.975342 
	C155.923920,569.409912 153.472992,570.486023 153.473557,574.546204 
	C153.476288,594.208435 153.448593,613.870972 153.607742,633.531982 
	C153.617142,634.692505 155.029877,636.676514 156.020950,636.835571 
	C158.841095,637.288208 161.781067,636.994385 164.818253,636.994385 
	C164.818253,620.821838 164.818253,605.661194 164.818375,589.500671 
M507.500000,35.000000 
	C519.982422,34.999916 532.464783,35.011486 544.947205,34.991264 
	C547.934082,34.986427 550.926880,34.886150 552.165894,30.333555 
	C549.356934,29.855150 546.847656,29.060259 544.336731,29.055157 
	C505.558258,28.976345 466.779510,28.999283 428.000854,29.004148 
	C426.837433,29.004295 425.509491,28.725674 424.555573,29.189020 
	C423.546143,29.679333 422.147400,31.010672 422.259277,31.779617 
	C422.424591,32.916065 423.582001,34.271011 424.673523,34.807426 
	C425.755768,35.339298 427.279633,34.996254 428.609802,34.996494 
	C454.573212,35.001205 480.536591,34.999996 507.500000,35.000000 
M660.500000,417.000000 
	C684.829163,417.000000 709.158325,417.000031 733.487488,416.999878 
	C734.653992,416.999878 735.887695,417.238037 736.969482,416.934845 
	C738.243042,416.577850 739.384949,415.750916 740.583923,415.127716 
	C739.303528,414.419159 738.035095,413.687195 736.732727,413.021515 
	C736.468262,412.886353 736.076111,413.000183 735.742859,413.000183 
	C696.582886,413.000092 657.422852,412.974823 618.263184,413.089874 
	C616.645569,413.094635 615.031677,414.414642 613.416077,415.121918 
	C615.113037,415.747925 616.804382,416.898468 618.507935,416.916962 
	C632.170593,417.065369 645.835693,416.999969 660.500000,417.000000 
M722.497681,425.999969 
	C687.225647,426.035278 651.953552,426.068115 616.681580,426.136017 
	C616.272095,426.136810 615.849609,426.571320 615.463318,426.845795 
	C615.355713,426.922272 615.334473,427.148529 615.314087,427.311127 
	C615.294556,427.466492 615.327759,427.628418 615.337769,427.787476 
	C619.649414,429.803680 735.810242,429.487000 738.837219,426.000000 
	C733.723389,426.000000 728.609619,426.000000 722.497681,425.999969 
M159.552475,539.588318 
	C153.309982,541.562988 150.136795,547.339844 153.843964,550.668762 
	C155.768768,552.397156 159.531708,553.216187 162.104568,552.689453 
	C163.848175,552.332336 166.236542,548.811096 166.073944,546.897278 
	C165.812241,543.816956 164.715973,540.035461 159.552475,539.588318 
M588.215271,433.151093 
	C593.073364,439.324310 600.543274,438.214386 604.876648,430.035309 
	C598.759888,428.310455 593.367737,429.409180 588.215271,433.151093 
M757.784607,429.794373 
	C754.967712,429.794373 752.150818,429.794373 748.226807,429.794373 
	C752.201965,435.520111 756.141296,438.002655 761.329468,436.781097 
	C763.238953,436.331482 764.729309,434.101990 767.501892,431.764587 
	C763.347656,430.913361 760.980896,430.428375 757.784607,429.794373 
M554.302917,437.377441 
	C557.652771,436.143616 562.368958,438.619965 565.026611,433.000092 
	C560.964478,433.000092 557.525146,432.807648 554.123352,433.081360 
	C552.423950,433.218109 550.793152,434.206482 549.131287,434.809692 
	C550.601562,435.756897 552.071838,436.704132 554.302917,437.377441 
M556.468567,21.378973 
	C556.360291,22.448383 555.814636,24.183304 556.229919,24.456318 
	C557.271545,25.141037 558.952393,25.706617 559.997620,25.313017 
	C561.256165,24.839098 562.122925,23.324497 563.159241,22.260416 
	C562.916077,21.876564 562.672852,21.492714 562.429688,21.108862 
	C560.684326,21.108862 558.939026,21.108862 556.468567,21.378973 
M608.242493,418.828156 
	C607.627197,419.157715 607.011902,419.487274 606.396606,419.816833 
	C606.487366,420.173767 606.578186,420.530701 606.668945,420.887634 
	C608.329285,420.785156 609.989563,420.682648 611.649841,420.580139 
	C611.673584,420.094604 611.697327,419.609070 611.721069,419.123535 
	C610.781860,418.934204 609.842590,418.744873 608.242493,418.828156 
M743.913879,420.972168 
	C745.105835,420.824860 746.297729,420.677521 747.489685,420.530212 
	C747.506897,420.107056 747.524109,419.683899 747.541321,419.260773 
	C745.978882,419.136230 744.416504,419.011688 742.854065,418.887146 
	C742.968323,419.545349 743.082642,420.203583 743.913879,420.972168 
M772.022217,225.244644 
	C771.178406,225.398300 770.334595,225.551956 769.490784,225.705612 
	C769.665710,226.168610 769.840698,226.631607 770.015625,227.094604 
	C770.841125,226.625183 771.666687,226.155746 772.022217,225.244644 
M390.609192,417.797516 
	C390.214478,417.793335 389.819763,417.789124 389.425049,417.784912 
	C389.423553,417.948700 389.411041,418.254852 389.422089,418.255707 
	C389.814880,418.286011 390.209839,418.287750 390.609192,417.797516 
z"/>
<path fill="#DF5B33" opacity="1.000000" stroke="none" 
	d="
M401.128845,214.825546 
	C401.088501,214.412048 401.048187,213.998550 400.987549,212.832581 
	C401.005707,155.755219 401.044159,99.430344 401.544739,43.102924 
	C458.981964,43.092991 515.957092,43.085598 572.964661,43.038521 
	C572.997070,42.998837 572.923157,43.070568 572.930176,43.533691 
	C572.937134,100.901291 572.937134,157.805771 572.937134,214.970367 
	C570.593750,214.970367 569.104492,214.970169 567.615234,214.970367 
	C538.282471,214.974411 508.949615,215.000229 479.616852,214.976105 
	C453.454132,214.954590 427.291504,214.877884 401.128845,214.825546 
z"/>
<path fill="#FCFEFA" opacity="1.000000" stroke="none" 
	d="
M595.020630,220.988220 
	C589.937317,220.688553 584.854004,220.388885 579.072937,220.048080 
	C578.638794,220.743530 577.727173,222.203918 576.303345,224.484863 
	C579.594788,224.824417 581.943298,225.066696 585.410156,225.424347 
	C583.486450,226.624603 582.457520,227.266586 580.206543,228.671051 
	C585.534241,229.115417 588.584106,227.884247 591.107544,224.810547 
	C591.753662,224.023560 593.158936,223.338699 594.131165,223.437302 
	C597.153687,223.743881 600.134766,224.923340 603.133545,224.929306 
	C652.940369,225.028534 702.747437,225.020370 752.554260,224.936386 
	C754.901672,224.932434 757.232056,223.894012 759.601379,223.552444 
	C760.587769,223.410263 761.857971,223.527100 762.650391,224.052292 
	C765.693542,226.069168 768.595398,228.299225 771.549988,230.449783 
	C772.169434,230.284103 772.788940,230.118423 773.408386,229.952728 
	C772.520264,232.054321 771.632141,234.155914 770.555542,236.703552 
	C770.417419,236.637558 771.346375,237.081360 771.923706,237.357193 
	C772.066895,239.472198 772.196472,241.387344 772.326111,243.302505 
	C772.009460,243.200668 771.692810,243.098816 771.376160,242.996979 
	C770.584106,245.806274 769.109802,248.613556 769.101501,251.425156 
	C768.960144,299.565948 768.952087,347.707458 769.120728,395.848083 
	C769.130676,398.692810 770.863770,401.537994 771.835266,404.369171 
	C772.150085,405.286804 772.902771,406.152130 772.926453,407.055206 
	C773.042053,411.463135 772.978760,415.875732 772.978760,420.634064 
	C767.598633,420.634064 762.690796,420.634064 757.174072,420.634064 
	C758.637634,416.575867 762.342712,416.366394 765.203552,414.993408 
	C766.394714,414.421692 767.479431,413.627930 768.612549,412.935211 
	C767.267212,412.291077 765.785095,410.930664 764.605652,411.155731 
	C762.332092,411.589661 760.229553,412.919769 757.621887,414.069733 
	C754.595276,413.409119 750.882446,412.598755 747.086182,411.392700 
	C747.002747,410.997009 747.018738,410.979584 747.470154,410.974091 
	C753.161743,410.263184 758.409424,409.604767 763.630798,408.780548 
	C764.159973,408.696991 764.531433,407.614197 765.000366,406.527435 
	C765.026978,354.454437 765.022400,302.849121 765.058167,251.243835 
	C765.059509,249.288986 764.862305,246.986298 765.772400,245.444946 
	C768.505859,240.815674 765.799927,237.922668 762.982422,234.481262 
	C761.662109,233.723633 760.474182,233.016724 759.285645,233.015549 
	C704.491943,232.960999 649.698181,232.954575 594.904541,233.047195 
	C593.562073,233.049469 592.221619,234.231003 590.528320,234.966370 
	C589.215637,238.045135 587.695557,240.976379 587.458435,244.007950 
	C587.241455,246.782532 588.891846,249.664505 588.898193,252.500961 
	C589.013062,303.999420 589.003601,355.498169 589.101562,407.379517 
	C595.115540,408.834656 601.048462,409.907135 606.989380,410.988342 
	C606.997314,410.997009 607.015076,411.015167 607.015076,411.015167 
	C606.549561,411.635223 605.911194,412.861176 605.644409,412.785095 
	C601.224243,411.523590 596.197266,416.627197 592.065552,411.445923 
	C591.499146,410.735657 589.468750,410.823303 588.252136,411.112854 
	C587.194946,411.364471 586.330200,412.424774 585.380432,413.127686 
	C586.246704,413.743073 587.041687,414.517090 587.992432,414.944458 
	C590.991211,416.292297 594.048340,417.510101 597.082886,418.778229 
	C596.954956,419.339935 596.827087,419.901642 596.699158,420.463348 
	C591.735474,420.941742 586.771790,421.420135 582.004822,421.879578 
	C579.395691,430.043793 576.264038,431.159821 569.420532,425.631317 
	C573.108459,424.367065 576.140686,423.327576 579.172974,422.288055 
	C579.208374,422.045990 579.243774,421.803925 579.279114,421.561829 
	C577.771240,421.374481 576.258484,421.218994 574.756958,420.990021 
	C573.470703,420.793823 571.704651,420.967163 570.996521,420.198181 
	C565.555969,414.290680 559.365540,416.604523 553.178772,418.222504 
	C552.436462,418.416626 551.609741,418.462280 550.846008,418.372803 
	C544.320435,417.608612 537.805542,416.161621 531.277832,416.108704 
	C500.976471,415.863068 470.663513,416.410797 440.373322,415.779907 
	C429.593872,415.555389 419.583496,418.686371 409.162872,419.799530 
	C404.104675,420.339844 399.046875,420.883698 393.538696,421.474213 
	C393.680542,419.041504 393.771179,417.487579 393.858368,415.992371 
	C387.874084,413.760284 387.170837,408.819550 391.727142,404.623505 
	C392.773956,403.659515 392.946472,401.379242 392.949890,399.703522 
	C393.017151,366.736298 393.000000,333.768921 393.000000,300.801575 
	C393.000000,283.984894 393.064026,267.167664 392.920410,250.352234 
	C392.902069,248.203781 392.144867,245.885590 391.138611,243.954102 
	C387.905182,237.747543 388.221832,237.017075 396.342743,235.167847 
	C396.095612,236.339554 395.890747,237.310852 395.685883,238.282135 
	C396.020050,238.583038 396.354187,238.883942 396.688354,239.184845 
	C397.842926,237.833359 398.997528,236.481873 400.543945,235.060257 
	C400.935791,234.990143 401.051270,235.023865 401.007660,235.474487 
	C401.020874,238.944611 401.077728,241.964127 401.064209,245.449677 
	C400.980988,279.830933 400.946777,313.746124 400.963898,347.661316 
	C400.973236,366.111877 401.069763,384.562347 401.059448,403.437805 
	C401.864777,404.929657 402.565369,406.626862 403.649017,406.923218 
	C405.506622,407.431213 407.603760,407.063599 409.600311,407.063538 
	C462.521820,407.061859 515.443359,407.050537 568.364868,407.084747 
	C571.263733,407.086609 573.951904,407.234039 572.932983,402.543884 
	C573.012451,364.671753 573.043030,327.265076 573.027588,289.858398 
	C573.021118,274.233887 572.916748,258.609406 572.933350,242.550812 
	C572.992981,239.772751 572.976135,237.428802 572.971313,234.712662 
	C572.190002,232.645172 571.396667,230.949890 570.894531,229.876770 
	C568.017639,230.343475 565.984131,230.959412 563.949951,230.961487 
	C512.906250,231.013428 461.862457,231.001633 410.818665,230.993820 
	C409.657104,230.993637 407.955078,231.384125 407.426880,230.782730 
	C405.041138,228.066635 403.093170,230.056107 401.001221,230.998169 
	C400.691437,227.928192 400.381622,224.858200 400.081238,221.881485 
	C398.500153,220.815399 396.785004,219.658905 395.069855,218.502411 
	C395.216309,218.087204 395.362762,217.672012 395.509247,217.256805 
	C397.067627,217.170853 398.626038,217.084900 400.933594,217.061188 
	C402.461700,218.234940 403.240692,219.346436 403.639801,219.915909 
	C408.217773,218.894135 412.439636,217.151917 416.669861,217.131470 
	C458.798584,216.927826 500.928680,216.999084 543.058411,217.018265 
	C549.523010,217.021194 555.972961,221.559830 562.476929,217.074661 
	C562.778687,216.866577 563.460571,217.103073 563.925720,217.254532 
	C573.255432,220.292618 574.990234,219.049652 574.990356,209.294846 
	C574.990723,158.339523 575.003418,107.384209 574.967651,56.428913 
	C574.964478,51.949883 576.143555,48.235641 581.402100,45.612694 
	C578.009033,44.595402 575.466064,43.832989 572.923157,43.070572 
	C572.923157,43.070568 572.997070,42.998837 572.937988,42.681709 
	C570.919250,41.242336 568.959656,40.120090 567.000000,38.997856 
	C567.942261,38.373112 568.832092,37.336277 569.837585,37.208405 
	C572.006592,36.932552 574.234924,37.123577 576.826965,36.260101 
	C572.067505,35.928413 569.881226,33.146362 568.626770,29.357355 
	C568.038757,27.581179 567.181030,25.778461 567.156433,23.978077 
	C567.143188,23.006674 568.889282,21.075926 569.388245,21.214203 
	C570.705383,21.579266 572.786499,22.842983 572.781860,23.739592 
	C572.746399,30.508806 575.806580,30.025703 580.130249,27.239923 
	C580.262756,27.154570 580.461670,27.092026 580.609009,27.121576 
	C585.740845,28.151077 590.870178,29.192942 596.593750,30.353470 
	C592.200073,37.651695 585.612061,33.560917 579.940369,35.803593 
	C580.886353,37.547222 581.654907,40.499496 582.743103,40.622398 
	C584.534119,40.824692 586.532043,39.195171 588.641113,38.248871 
	C588.679260,38.463303 588.840698,39.370743 588.945923,40.998119 
	C587.533325,42.831425 585.942078,43.765144 584.904175,45.122074 
	C584.225586,46.009235 584.349060,47.509861 584.113281,48.735703 
	C588.295837,49.325260 586.966187,52.612827 586.968750,54.982780 
	C587.026123,107.553413 587.012146,160.124130 587.011658,212.694824 
	C587.011597,214.626221 587.011658,216.557617 587.011658,217.612518 
	C590.308289,219.001999 592.664429,219.995102 595.020630,220.988220 
M578.165955,216.556229 
	C579.275574,215.996094 580.385132,215.435944 581.494751,214.875809 
	C577.511597,213.466690 577.511597,213.466690 578.165955,216.556229 
z"/>
<path fill="#6B6B6B" opacity="1.000000" stroke="none" 
	d="
M119.066368,565.071838 
	C115.472763,573.532227 111.954277,582.025635 108.261810,590.442627 
	C105.295830,597.203552 102.038803,603.836670 99.057602,610.591187 
	C95.873619,617.805115 92.563904,624.987305 89.886902,632.392273 
	C88.293938,636.798645 85.835922,637.885681 81.725433,636.624634 
	C70.659782,611.715820 59.591988,586.802734 48.524197,561.889587 
	C48.289696,561.883301 48.055195,561.877014 47.820694,561.870728 
	C47.820694,586.690796 47.820694,611.510803 47.820694,636.688416 
	C44.276386,636.688416 41.007690,636.688416 37.250576,636.688416 
	C37.170246,635.443420 36.998215,634.015320 36.997768,632.587280 
	C36.989048,604.770569 37.086494,576.953369 36.915627,549.137756 
	C36.889687,544.914673 37.739635,542.816345 42.354717,543.506714 
	C44.143951,543.774292 46.234985,542.981567 47.788113,543.630371 
	C49.772099,544.459229 52.102066,545.893738 52.977547,547.699951 
	C57.352760,556.726562 61.337360,565.944153 65.390137,575.125122 
	C71.568237,589.120667 77.689560,603.141235 84.561317,618.807007 
	C86.332405,615.108398 87.675247,612.374207 88.957916,609.612061 
	C92.480278,602.026733 96.060539,594.466736 99.465309,586.828735 
	C104.741516,574.992493 109.984482,563.139648 115.060432,551.216675 
	C118.240479,543.747009 120.319519,542.206909 128.393387,543.687073 
	C129.986221,543.979065 132.339417,546.552795 132.350754,548.088989 
	C132.561142,576.566345 132.441071,605.046082 132.487289,633.525085 
	C132.491623,636.200562 131.419647,637.121155 128.953888,637.027222 
	C127.290337,636.963867 125.622795,637.005127 123.461113,636.492432 
	C122.965195,609.860779 122.965195,583.736328 122.965195,557.611816 
	C122.478653,557.560486 121.992104,557.509094 121.505562,557.457764 
	C120.692497,559.995789 119.879440,562.533813 119.066368,565.071838 
z"/>
<path fill="#F9FFDB" opacity="1.000000" stroke="none" 
	d="
M595.346252,220.988190 
	C592.664429,219.995102 590.308289,219.001999 587.011658,217.612518 
	C587.011658,216.557617 587.011597,214.626221 587.011658,212.694824 
	C587.012146,160.124130 587.026123,107.553413 586.968750,54.982780 
	C586.966187,52.612827 588.295837,49.325260 584.113281,48.735703 
	C584.349060,47.509861 584.225586,46.009235 584.904175,45.122074 
	C585.942078,43.765144 587.533325,42.831425 588.948853,41.370331 
	C591.805359,40.352119 594.601440,39.102985 597.400330,39.096828 
	C650.194458,38.980625 702.991577,39.267300 755.779907,38.702713 
	C762.737976,38.628292 765.176270,44.192394 770.346558,45.798443 
	C770.480957,45.840195 770.075256,48.028305 769.721558,49.152554 
	C768.873779,51.847088 767.113464,54.501614 767.105164,57.176605 
	C766.946655,108.138504 766.988831,159.101013 766.989441,210.979767 
	C767.647705,216.620438 766.889343,220.065765 760.807922,219.150620 
	C760.302002,219.074478 759.593628,220.343948 758.979309,220.988251 
	C758.545044,220.987457 758.110718,220.986679 757.267334,220.611298 
	C754.905518,219.823639 752.952759,219.410599 751.000000,218.997559 
	C749.618225,218.992416 748.236389,218.987289 746.371704,218.640167 
	C744.204224,216.365372 742.840210,216.258713 741.973511,218.985397 
	C699.301514,218.984879 656.629517,218.984360 613.415771,218.627960 
	C610.956055,216.554535 609.200745,215.954361 607.974182,218.985565 
	C606.592224,218.987076 605.210205,218.988602 603.003296,218.991028 
	C600.443848,219.656631 598.709351,220.321304 596.974915,220.985962 
	C596.540588,220.986694 596.106201,220.987427 595.346252,220.988190 
M763.030884,164.500000 
	C763.030884,124.096382 763.030884,83.692772 763.030884,43.358025 
	C705.217346,43.358025 648.306213,43.358025 591.325439,43.358025 
	C591.325439,100.649734 591.325439,157.547043 591.325439,214.683685 
	C648.606506,214.683685 705.502686,214.683685 763.030884,214.683685 
	C763.030884,198.062653 763.030884,181.781326 763.030884,164.500000 
z"/>
<path fill="#6A6A6A" opacity="1.000000" stroke="none" 
	d="
M628.977539,582.000000 
	C628.983276,570.500977 629.137390,559.498962 628.914734,548.504517 
	C628.834045,544.520142 630.118347,543.309753 634.079590,543.455933 
	C642.068298,543.750732 650.113770,543.048950 658.065979,543.662659 
	C669.295715,544.529358 679.302002,547.772644 684.188782,559.674988 
	C688.060486,569.105164 683.395264,584.167542 674.481445,589.198364 
	C671.967224,590.617249 669.574402,592.251038 667.798401,593.364624 
	C677.001953,607.319031 686.405579,621.576904 696.598694,637.031799 
	C691.457520,637.031799 688.001343,637.283081 684.616455,636.901855 
	C683.350647,636.759277 681.881226,635.370972 681.134277,634.161682 
	C675.531738,625.091125 670.190491,615.858704 664.563599,606.803711 
	C658.646851,597.282104 650.425903,596.004456 640.465881,597.752075 
	C640.465881,603.194824 640.464966,608.798767 640.466064,614.402710 
	C640.467163,620.235718 640.181580,626.087891 640.566406,631.895569 
	C640.857544,636.288696 639.102539,637.519409 635.126770,637.069824 
	C633.332092,636.867004 631.495483,637.035400 628.976929,637.035400 
	C628.976929,618.682983 628.976929,600.591492 628.977539,582.000000 
M655.375122,587.197754 
	C665.864868,586.888367 669.489197,583.796814 673.421692,573.659180 
	C676.547546,565.601013 669.978821,556.178284 664.906494,555.291992 
	C657.527100,554.002563 649.963074,553.673950 642.459656,553.304138 
	C641.461731,553.254944 639.468994,555.343262 639.441589,556.478027 
	C639.200989,566.422729 639.302368,576.375610 639.302368,587.199158 
	C644.575806,587.199158 649.495667,587.199158 655.375122,587.197754 
z"/>
<path fill="#6D6D6D" opacity="1.000000" stroke="none" 
	d="
M1091.595581,582.514893 
	C1086.610229,587.349121 1084.597046,592.844971 1084.738892,599.482666 
	C1084.998657,611.630432 1084.812988,623.787720 1084.812988,636.483398 
	C1081.144287,636.483398 1077.638306,636.483398 1073.745239,636.483398 
	C1073.670410,635.021667 1073.533936,633.586914 1073.532715,632.152039 
	C1073.508545,602.843811 1073.471436,573.535522 1073.557129,544.227539 
	C1073.562378,542.433716 1074.241089,539.325073 1075.160767,539.100769 
	C1077.783936,538.460693 1080.734253,538.761841 1083.459961,539.239502 
	C1084.098145,539.351318 1084.719116,541.620911 1084.734009,542.904846 
	C1084.853760,553.227844 1084.826660,563.552551 1084.843384,573.876770 
	C1084.845947,575.500854 1084.843628,577.124878 1084.843628,579.904175 
	C1087.681641,577.203918 1089.568970,575.064148 1091.789062,573.357300 
	C1100.086060,566.978455 1113.547241,566.644775 1121.837891,574.149292 
	C1125.648804,577.598816 1128.263428,584.101196 1128.557739,589.378906 
	C1129.427124,604.968506 1128.868286,620.637756 1128.868286,636.661743 
	C1125.435425,636.661743 1122.074463,636.661743 1118.844971,636.661743 
	C1118.844971,624.215454 1119.059326,611.965271 1118.729980,599.729858 
	C1118.612671,595.373535 1117.914673,590.730774 1116.193359,586.780090 
	C1112.058960,577.290955 1100.289307,575.346313 1091.595581,582.514893 
z"/>
<path fill="#717171" opacity="1.000000" stroke="none" 
	d="
M734.000000,606.832520 
	C726.058899,606.832520 718.617798,606.832520 711.303162,606.832520 
	C709.241211,618.091614 715.670166,625.696838 725.179260,628.497864 
	C734.502991,631.244263 743.690613,628.576904 751.873413,622.833496 
	C753.727234,632.044800 753.283569,633.037537 746.317871,635.601257 
	C739.973877,637.936157 733.645630,639.490967 727.015015,638.791992 
	C713.044006,637.319336 705.286255,631.559692 700.893860,617.197205 
	C697.826721,607.168213 698.250610,597.309326 702.115845,587.739075 
	C709.286926,569.984070 728.293762,564.248718 743.711914,571.809570 
	C752.263550,576.003235 756.062988,584.927429 756.928467,594.507019 
	C757.282227,598.422546 756.987000,602.396667 756.987000,606.832581 
	C749.066284,606.832581 741.783142,606.832581 734.000000,606.832520 
M724.508179,597.193909 
	C731.887695,597.193909 739.267151,597.193909 746.738525,597.193909 
	C745.228760,584.997009 737.618530,576.351990 729.564636,577.506165 
	C718.955872,579.026611 711.328857,586.061707 711.183167,597.189697 
	C715.286804,597.189697 719.399170,597.189697 724.508179,597.193909 
z"/>
<path fill="#717171" opacity="1.000000" stroke="none" 
	d="
M838.954651,634.058350 
	C832.182251,631.130554 829.203308,625.341919 827.320618,619.281982 
	C823.807373,607.973267 823.590515,596.485474 829.071655,585.627991 
	C835.610352,572.675537 850.164185,565.482849 865.110107,570.430298 
	C877.840454,574.644165 882.069336,584.164124 883.018066,596.189453 
	C883.277649,599.479858 883.057434,602.808105 883.057434,606.686401 
	C867.543823,606.686401 852.493286,606.686401 837.560852,606.686401 
	C835.715271,616.389893 841.239624,625.871948 851.122864,628.546631 
	C860.556030,631.099487 869.596680,628.463684 877.714600,622.875000 
	C880.253784,630.746338 878.904602,634.212952 871.051636,636.451538 
	C860.328125,639.508362 849.374573,640.893555 838.954651,634.058350 
M842.550598,584.054871 
	C839.052490,587.579956 836.466370,591.469604 837.106079,596.754456 
	C849.158936,596.754456 860.851746,596.754456 873.885620,596.754456 
	C871.538452,591.588074 870.122681,586.906555 867.500366,583.044189 
	C862.844055,576.186218 850.820129,575.178467 842.550598,584.054871 
z"/>
<path fill="#6F6F6F" opacity="1.000000" stroke="none" 
	d="
M437.260162,633.690002 
	C430.823029,630.922607 427.800262,625.205383 425.806976,619.817017 
	C421.121033,607.149414 421.781525,594.570496 428.909332,582.459778 
	C437.135193,568.483459 459.661865,565.975037 471.617889,571.615540 
	C483.377869,577.163635 487.757050,587.267151 488.707581,599.256226 
	C489.527496,609.597107 487.898560,619.437256 480.945892,627.862793 
	C473.460999,636.933167 457.972290,641.475342 447.029114,637.483093 
	C443.845856,636.321777 440.659149,635.169922 437.260162,633.690002 
M436.444611,615.842407 
	C438.782593,619.020325 440.848267,622.451782 443.518463,625.320435 
	C448.249786,630.403381 454.632965,629.305969 460.648163,629.041565 
	C466.230377,628.796082 470.056763,625.822083 473.206085,621.225891 
	C478.426300,613.607544 477.443298,605.210938 477.048920,596.853088 
	C476.671997,588.864014 472.660461,582.354065 465.574890,579.583008 
	C457.957001,576.603882 449.358093,576.653503 442.702972,582.611694 
	C432.617218,591.641357 433.139679,603.328491 436.444611,615.842407 
z"/>
<path fill="#6E6E6E" opacity="1.000000" stroke="none" 
	d="
M918.270874,578.654175 
	C912.487610,580.588501 907.165588,582.501465 901.858643,584.409058 
	C899.943909,576.444946 901.447754,573.005615 909.134033,571.310120 
	C915.481995,569.909790 922.102600,569.174194 928.602966,569.170410 
	C938.301025,569.164734 946.627502,577.368347 946.886353,587.042114 
	C947.295471,602.328308 947.189880,617.628235 947.314819,632.922241 
	C947.323853,634.028625 947.435791,635.134277 947.523438,636.646362 
	C944.136780,636.646362 940.764893,636.646362 937.045471,636.646362 
	C936.921509,634.259583 936.796143,631.846741 936.617310,628.404114 
	C934.549622,630.217102 932.969055,631.429321 931.591125,632.839661 
	C923.450562,641.171326 905.632629,640.925903 897.955750,630.689758 
	C892.472656,623.378662 893.686279,605.253906 905.324280,601.211609 
	C913.869629,598.243469 923.028809,596.964417 931.978027,595.268555 
	C936.794800,594.355835 937.845398,592.928955 935.855713,588.338989 
	C931.780823,578.938293 930.298950,578.098389 918.270874,578.654175 
M918.542603,629.206787 
	C931.993469,628.890869 939.511047,617.978210 936.029968,603.006531 
	C929.118347,604.279968 922.095337,605.334167 915.192810,606.914551 
	C908.565308,608.432129 904.773987,613.277222 905.284973,618.694031 
	C905.882690,625.029724 910.344116,628.834045 918.542603,629.206787 
z"/>
<path fill="#6E6E6E" opacity="1.000000" stroke="none" 
	d="
M344.904724,627.856445 
	C337.659180,635.862915 328.786407,639.392883 318.427124,638.780579 
	C304.903229,637.981262 293.945801,631.886597 289.224365,617.829773 
	C283.979004,602.213257 288.356079,582.619446 300.892700,574.625671 
	C310.469299,568.519226 320.272247,568.249390 331.263916,570.349976 
	C349.147095,573.767395 355.141785,595.471558 352.414398,610.490723 
	C351.339508,616.409729 347.556976,621.837158 344.904724,627.856445 
M298.259399,605.690247 
	C298.412506,606.502747 298.654968,607.309753 298.705475,608.128540 
	C299.706970,624.362305 311.159058,631.670898 326.383331,628.815247 
	C332.446808,627.677917 337.791046,624.155273 339.003021,617.496765 
	C340.220978,610.805481 340.779663,603.946106 341.026154,597.138550 
	C341.321350,588.985596 336.638519,582.713196 329.935730,579.683838 
	C322.265472,576.217163 313.983704,576.962036 306.636810,582.517090 
	C298.947876,588.330688 299.245758,596.994446 298.259399,605.690247 
z"/>
<path fill="#6E6E6E" opacity="1.000000" stroke="none" 
	d="
M505.505005,617.999268 
	C505.505371,604.894653 505.505371,592.289856 505.505371,579.170044 
	C503.092804,579.170044 501.438629,578.944885 499.869293,579.214111 
	C495.870789,579.900085 494.375275,579.102844 494.555908,574.368835 
	C494.697205,570.665771 495.506317,570.516602 498.587402,570.758240 
	C504.695312,571.237366 505.605560,570.287720 505.431305,564.106628 
	C505.198853,555.860962 506.376526,548.288330 512.919067,542.294006 
	C518.567078,537.119263 525.143311,536.244995 532.219360,537.367371 
	C533.208984,537.524353 534.432861,539.183960 534.684814,540.336731 
	C535.095886,542.217590 534.795837,544.253845 534.795837,546.694702 
	C531.687561,546.694702 528.924316,546.575562 526.175049,546.720154 
	C520.847168,547.000366 517.443909,549.850220 517.056763,555.009338 
	C516.674988,560.097168 516.973450,565.236084 516.973450,571.046448 
	C520.898315,570.771973 524.316956,570.643127 527.707397,570.262817 
	C530.720825,569.924744 532.542603,570.735779 532.436768,574.103760 
	C532.353882,576.743713 533.441895,580.133179 528.535278,579.285583 
	C526.698364,578.968262 524.723755,579.498779 522.864807,579.248901 
	C518.285583,578.633179 516.834961,579.745483 516.823792,584.534973 
	C516.788208,599.859253 516.811707,615.183655 516.812439,630.508057 
	C516.812500,632.336731 516.812439,634.165466 516.812439,636.987244 
	C513.766785,636.987244 510.823120,637.281738 508.000244,636.826782 
	C507.018921,636.668518 505.695435,634.690735 505.629639,633.483887 
	C505.358032,628.501526 505.508972,623.496033 505.505005,617.999268 
z"/>
<path fill="#6D6D6D" opacity="1.000000" stroke="none" 
	d="
M391.006775,610.894287 
	C385.854767,608.722961 381.030426,606.717773 376.317780,604.477539 
	C369.357788,601.169128 365.211182,595.780640 365.528351,587.846497 
	C365.860535,579.536194 371.129089,574.347656 378.167480,571.397217 
	C386.263031,568.003784 394.700073,567.883423 403.303040,570.624390 
	C406.479553,571.636414 407.212646,572.979187 407.073425,575.775757 
	C406.975647,577.740234 407.054565,579.713440 407.054565,580.699280 
	C399.920593,579.984985 393.258911,578.879883 386.582916,578.785400 
	C381.037567,578.706909 377.482574,582.261169 377.064575,586.774780 
	C376.688019,590.840149 380.115875,595.167480 384.631775,597.048157 
	C390.599731,599.533508 396.464020,602.277771 402.309937,605.043640 
	C408.574829,608.007629 410.264526,614.197083 410.167877,619.924072 
	C410.065094,626.015686 406.808685,631.611450 400.917603,634.715637 
	C390.674133,640.113281 379.963104,639.869873 369.301392,636.408813 
	C367.629578,635.866028 366.309448,632.988464 365.654846,630.927429 
	C365.040527,628.993286 365.523254,626.710693 365.523254,623.432068 
	C373.328796,628.666809 381.268890,629.884216 389.619019,629.117371 
	C395.236389,628.601440 400.165192,624.063904 398.653351,619.308533 
	C397.626923,616.080139 393.902313,613.709534 391.006775,610.894287 
z"/>
<path fill="#6D6D6D" opacity="1.000000" stroke="none" 
	d="
M798.812988,627.088623 
	C806.912598,620.343689 802.088440,614.381653 795.892944,611.061646 
	C789.628174,607.704468 783.142334,604.761475 776.777832,601.587952 
	C771.252197,598.832764 769.424866,593.558472 769.701233,588.206848 
	C770.034668,581.751526 773.052490,576.337585 779.251465,572.918701 
	C789.545227,567.241455 799.893799,568.071472 810.743774,571.583679 
	C810.743774,574.918884 810.743774,578.166443 810.743774,580.824951 
	C804.329041,580.066895 798.146118,578.944336 791.930359,578.716003 
	C786.150085,578.503662 781.654785,581.629395 781.095276,585.149841 
	C780.301758,590.143494 782.989929,594.512573 788.436951,597.008850 
	C794.113098,599.610046 799.966858,601.878906 805.442078,604.847900 
	C811.115967,607.924561 814.995300,615.438538 814.236633,619.942139 
	C812.775024,628.618347 808.302002,634.297058 799.592407,637.018066 
	C790.990051,639.705566 782.642944,639.007690 774.285889,636.720215 
	C772.502686,636.232117 769.904602,634.330750 769.819153,632.948364 
	C769.643127,630.100586 767.561829,626.204651 771.935303,624.326599 
	C779.075195,629.559326 792.726807,631.063599 798.812988,627.088623 
z"/>
<path fill="#FCFEFA" opacity="1.000000" stroke="none" 
	d="
M401.082611,43.105465 
	C401.044159,99.430344 401.005707,155.755219 400.876740,212.541290 
	C398.434204,213.001190 396.082184,212.999893 393.365051,212.999298 
	C393.000000,213.000000 392.998779,212.999390 392.998779,212.999390 
	C392.998779,159.345016 392.998779,105.690628 392.998779,52.036247 
	C392.397736,51.919285 391.796722,51.802319 391.195679,51.685356 
	C392.425842,50.864799 393.655975,50.044247 395.190918,49.020397 
	C393.562378,46.009556 392.216248,43.480412 390.827423,40.974926 
	C390.338074,40.092152 389.744202,39.267323 389.198059,38.416035 
	C389.976807,37.949940 390.702240,37.247963 391.543365,37.057941 
	C395.507965,36.162243 399.209351,34.289917 403.634949,36.726566 
	C405.493439,37.749809 408.868347,36.030712 411.550964,35.542423 
	C415.125641,34.891773 418.877411,33.604275 420.490601,38.628757 
	C413.877045,39.320152 407.685608,39.638119 401.082611,39.977215 
	C401.082611,40.889027 401.082611,41.997246 401.082611,43.105465 
z"/>
<path fill="#6E6E6E" opacity="1.000000" stroke="none" 
	d="
M1007.038940,604.968018 
	C1007.056030,590.223877 1012.631470,578.929810 1025.498169,572.243103 
	C1033.363770,568.155457 1042.169800,567.878723 1050.704712,569.639404 
	C1056.863159,570.909729 1058.316895,575.541687 1056.197266,582.939514 
	C1054.506836,581.853455 1052.875244,580.180054 1050.933228,579.655945 
	C1034.910889,575.331238 1021.465027,581.354187 1018.962769,598.797913 
	C1017.938538,605.938171 1018.030090,613.044556 1022.226440,619.728577 
	C1028.678833,630.005981 1043.912720,632.925720 1056.135620,624.449707 
	C1058.959351,633.262695 1055.749878,637.246521 1045.012085,638.626099 
	C1035.459351,639.853394 1026.365356,638.015808 1018.916809,632.282166 
	C1010.431152,625.750183 1007.073303,616.138000 1007.038940,604.968018 
z"/>
<path fill="#6A6A6A" opacity="1.000000" stroke="none" 
	d="
M548.976929,559.193542 
	C549.189331,553.782104 553.772766,550.895386 560.706177,551.821716 
	C560.706177,557.949402 560.706177,564.171021 560.706177,570.868408 
	C566.247498,570.868408 571.183716,570.868408 576.438660,570.868408 
	C576.438660,573.604797 576.438660,575.852783 576.438660,578.798767 
	C571.578003,578.798767 566.525940,578.798767 561.000305,578.798767 
	C560.789185,581.350098 560.505188,583.260559 560.493774,585.172607 
	C560.431091,595.661377 560.593140,606.153870 560.368164,616.638428 
	C560.177185,625.537781 562.841309,630.779236 573.213989,629.016724 
	C574.150208,628.857666 575.160583,629.135376 576.455811,629.234741 
	C576.455811,631.610962 576.455811,633.850891 576.455811,636.095642 
	C570.488098,639.605957 564.320984,639.457703 558.085388,636.914368 
	C551.506348,634.231018 549.529846,628.332214 549.275574,622.203979 
	C548.772095,610.070190 549.037903,597.904419 548.988708,585.751831 
	C548.980713,583.776245 548.987610,581.800659 548.987610,579.850952 
	C544.799011,577.451172 535.094788,583.243896 537.990479,571.199463 
	C541.232971,571.020874 544.781616,570.825378 548.968628,570.594727 
	C548.968628,566.875671 548.968628,563.266357 548.976929,559.193542 
z"/>
<path fill="#6F6F6F" opacity="1.000000" stroke="none" 
	d="
M201.797684,582.625244 
	C190.563736,591.203491 191.145996,606.731628 194.655960,616.453857 
	C199.838730,630.809509 219.902679,633.024048 229.868057,624.301270 
	C233.089478,631.908752 230.878220,634.987732 222.914612,637.281372 
	C212.527390,640.273010 202.835419,639.234436 194.536621,632.888428 
	C189.862198,629.313904 185.549637,624.000244 183.472488,618.555176 
	C178.968994,606.749695 179.998169,594.839966 186.861710,583.717651 
	C192.029999,575.342407 199.660843,570.629150 209.039780,569.365356 
	C214.507599,568.628601 220.238297,569.661133 225.833725,570.109741 
	C230.483887,570.482605 231.776505,573.412720 231.057617,577.675049 
	C230.816071,579.107178 230.828796,580.582153 230.719070,582.125488 
	C220.914307,578.018982 211.460999,575.836426 201.797684,582.625244 
z"/>
<path fill="#707070" opacity="1.000000" stroke="none" 
	d="
M1002.855591,577.648376 
	C1002.941956,581.490723 1000.805908,580.818237 998.832520,580.210388 
	C991.303589,577.891418 984.012207,581.277405 981.726562,588.834473 
	C980.237488,593.757874 979.143188,598.960449 978.941467,604.080139 
	C978.522400,614.714233 978.814819,625.376465 978.814819,637.029175 
	C975.825684,637.029175 973.036926,637.335815 970.378540,636.880676 
	C969.290344,636.694458 967.679626,634.869507 967.668884,633.776611 
	C967.473694,613.957336 967.418945,594.135315 967.620728,574.316833 
	C967.633057,573.108398 970.206726,570.786133 971.283752,570.952698 
	C973.983643,571.370422 978.965820,567.956543 978.874573,574.509644 
	C978.846008,576.564941 979.040283,578.623230 979.567688,580.802551 
	C982.845642,574.726318 987.363708,570.456909 994.073547,569.356750 
	C1002.007629,568.055969 1002.778076,568.908081 1002.855591,577.648376 
z"/>
<path fill="#707070" opacity="1.000000" stroke="none" 
	d="
M271.952087,569.609863 
	C272.486908,569.424255 272.652161,569.401306 272.818207,569.387878 
	C283.339508,568.535828 284.228424,569.563843 282.232300,580.721558 
	C280.983215,580.501892 279.678772,580.434875 278.485992,580.034912 
	C273.204193,578.263855 264.288635,581.022522 262.391876,585.871948 
	C260.582367,590.498413 259.192047,595.556274 258.975067,600.484314 
	C258.469696,611.961731 258.782410,623.475220 258.754944,634.974060 
	C258.754150,635.302979 258.654938,635.631653 258.430237,637.016846 
	C255.724609,637.016846 252.778259,637.323914 249.963882,636.848938 
	C248.989548,636.684448 247.659775,634.584290 247.648758,633.357910 
	C247.473434,613.863953 247.485123,594.368408 247.457214,574.873169 
	C247.453568,572.329773 247.890411,569.969543 251.251938,570.768311 
	C254.112366,571.447937 259.325317,568.082764 258.886871,574.959717 
	C258.766388,576.848877 259.033112,578.762817 259.076904,579.698486 
	C263.224945,576.407654 267.403900,573.092285 271.952087,569.609863 
z"/>
<path fill="#707070" opacity="1.000000" stroke="none" 
	d="
M164.818314,590.000610 
	C164.818253,605.661194 164.818253,620.821838 164.818253,636.994385 
	C161.781067,636.994385 158.841095,637.288208 156.020950,636.835571 
	C155.029877,636.676514 153.617142,634.692505 153.607742,633.531982 
	C153.448593,613.870972 153.476288,594.208435 153.473557,574.546204 
	C153.472992,570.486023 155.923920,569.409912 159.406418,569.975342 
	C161.160019,570.260132 162.843872,570.974487 164.818375,571.573181 
	C164.818375,577.536194 164.818375,583.518433 164.818314,590.000610 
z"/>
<path fill="#FFF2E2" opacity="1.000000" stroke="none" 
	d="
M572.930176,43.533691 
	C575.466064,43.832989 578.009033,44.595402 581.402100,45.612694 
	C576.143555,48.235641 574.964478,51.949883 574.967651,56.428913 
	C575.003418,107.384209 574.990723,158.339523 574.990356,209.294846 
	C574.990234,219.049652 573.255432,220.292618 563.925720,217.254532 
	C563.460571,217.103073 562.778687,216.866577 562.476929,217.074661 
	C555.972961,221.559830 549.523010,217.021194 543.058411,217.018265 
	C500.928680,216.999084 458.798584,216.927826 416.669861,217.131470 
	C412.439636,217.151917 408.217773,218.894135 403.639801,219.915909 
	C403.240692,219.346436 402.461700,218.234940 401.339539,217.060822 
	C401.012634,216.514236 401.028900,216.030289 401.086975,215.185944 
	C427.291504,214.877884 453.454132,214.954590 479.616852,214.976105 
	C508.949615,215.000229 538.282471,214.974411 567.615234,214.970367 
	C569.104492,214.970169 570.593750,214.970367 572.937134,214.970367 
	C572.937134,157.805771 572.937134,100.901291 572.930176,43.533691 
z"/>
<path fill="#FCFEFA" opacity="1.000000" stroke="none" 
	d="
M507.000000,35.000000 
	C480.536591,34.999996 454.573212,35.001205 428.609802,34.996494 
	C427.279633,34.996254 425.755768,35.339298 424.673523,34.807426 
	C423.582001,34.271011 422.424591,32.916065 422.259277,31.779617 
	C422.147400,31.010672 423.546143,29.679333 424.555573,29.189020 
	C425.509491,28.725674 426.837433,29.004295 428.000854,29.004148 
	C466.779510,28.999283 505.558258,28.976345 544.336731,29.055157 
	C546.847656,29.060259 549.356934,29.855150 552.165894,30.333555 
	C550.926880,34.886150 547.934082,34.986427 544.947205,34.991264 
	C532.464783,35.011486 519.982422,34.999916 507.000000,35.000000 
z"/>
<path fill="#E5FFFF" opacity="1.000000" stroke="none" 
	d="
M401.000610,230.999084 
	C403.093170,230.056107 405.041138,228.066635 407.426880,230.782730 
	C407.955078,231.384125 409.657104,230.993637 410.818665,230.993820 
	C461.862457,231.001633 512.906250,231.013428 563.949951,230.961487 
	C565.984131,230.959412 568.017639,230.343475 570.894531,229.876770 
	C571.396667,230.949890 572.190002,232.645172 572.507019,234.676315 
	C515.037537,235.016083 458.044403,235.019974 401.051270,235.023865 
	C401.051270,235.023865 400.935791,234.990143 400.882812,234.959152 
	C400.875946,234.501389 400.922058,234.074615 400.978821,232.991699 
	C400.992188,231.890717 400.994873,231.445877 400.997559,231.001022 
	C400.997559,231.001022 401.000000,231.000000 401.000610,230.999084 
z"/>
<path fill="#FCFEFA" opacity="1.000000" stroke="none" 
	d="
M660.000000,417.000000 
	C645.835693,416.999969 632.170593,417.065369 618.507935,416.916962 
	C616.804382,416.898468 615.113037,415.747925 613.416077,415.121918 
	C615.031677,414.414642 616.645569,413.094635 618.263184,413.089874 
	C657.422852,412.974823 696.582886,413.000092 735.742859,413.000183 
	C736.076111,413.000183 736.468262,412.886353 736.732727,413.021515 
	C738.035095,413.687195 739.303528,414.419159 740.583923,415.127747 
	C739.384949,415.750916 738.243042,416.577850 736.969482,416.934845 
	C735.887695,417.238037 734.653992,416.999878 733.487488,416.999878 
	C709.158325,417.000031 684.829163,417.000000 660.000000,417.000000 
z"/>
<path fill="#FFF2E2" opacity="1.000000" stroke="none" 
	d="
M401.544739,43.102924 
	C401.082611,41.997246 401.082611,40.889027 401.082611,39.977215 
	C407.685608,39.638119 413.877045,39.320152 420.533020,39.002296 
	C420.997559,39.002407 421.000000,39.000000 421.089417,39.397518 
	C422.348328,40.193935 423.517365,40.940128 424.687408,40.941639 
	C470.166351,41.000412 515.645386,41.007622 561.124146,40.907818 
	C562.421936,40.904972 563.716919,39.669201 565.013245,39.008308 
	C565.454773,39.007347 565.896240,39.006390 566.668884,39.001640 
	C568.959656,40.120090 570.919250,41.242336 572.905579,42.721390 
	C515.957092,43.085598 458.981964,43.092991 401.544739,43.102924 
z"/>
<path fill="#FCFEFA" opacity="1.000000" stroke="none" 
	d="
M722.996765,426.000000 
	C728.609619,426.000000 733.723389,426.000000 738.837219,426.000000 
	C735.810242,429.487000 619.649414,429.803680 615.337769,427.787476 
	C615.327759,427.628418 615.294556,427.466492 615.314087,427.311127 
	C615.334473,427.148529 615.355713,426.922272 615.463318,426.845795 
	C615.849609,426.571320 616.272095,426.136810 616.681580,426.136017 
	C651.953552,426.068115 687.225647,426.035278 722.996765,426.000000 
z"/>
<path fill="#FCFEFA" opacity="1.000000" stroke="none" 
	d="
M564.543213,39.005150 
	C563.716919,39.669201 562.421936,40.904972 561.124146,40.907818 
	C515.645386,41.007622 470.166351,41.000412 424.687408,40.941639 
	C423.517365,40.940128 422.348328,40.193935 421.088196,39.398590 
	C468.689453,39.002094 516.381348,39.002041 564.543213,39.005150 
z"/>
<path fill="#FCFEFA" opacity="1.000000" stroke="none" 
	d="
M746.993835,411.006104 
	C700.639587,411.012054 654.294312,411.008942 607.482056,411.010498 
	C607.015076,411.015167 606.997314,410.997009 607.087769,410.596130 
	C608.354004,409.806641 609.529419,409.079865 610.705750,409.078308 
	C654.838440,409.020264 698.971191,409.012299 743.103699,409.110687 
	C744.410095,409.113617 745.713806,410.329315 747.018738,410.979584 
	C747.018738,410.979584 747.002747,410.997009 746.993835,411.006104 
z"/>
<path fill="#A9A9A9" opacity="1.000000" stroke="none" 
	d="
M119.476723,565.091187 
	C119.879440,562.533813 120.692497,559.995789 121.505562,557.457764 
	C121.992104,557.509094 122.478653,557.560486 122.965195,557.611816 
	C122.965195,583.736328 122.965195,609.860779 123.014969,636.445190 
	C122.355171,635.414368 121.038170,633.927917 121.027603,632.432190 
	C120.880791,611.667603 120.936325,590.901611 120.857811,570.136292 
	C120.851479,568.459778 120.225243,566.785706 119.476723,565.091187 
z"/>
<path fill="#696969" opacity="1.000000" stroke="none" 
	d="
M159.931702,539.591919 
	C164.715973,540.035461 165.812241,543.816956 166.073944,546.897278 
	C166.236542,548.811096 163.848175,552.332336 162.104568,552.689453 
	C159.531708,553.216187 155.768768,552.397156 153.843964,550.668762 
	C150.136795,547.339844 153.309982,541.562988 159.931702,539.591919 
z"/>
<path fill="#FCFEFA" opacity="1.000000" stroke="none" 
	d="
M393.000610,213.000305 
	C393.205231,217.341797 393.409241,221.682983 393.629364,226.367554 
	C394.432373,226.435501 395.595917,226.533936 396.759430,226.632370 
	C397.014771,227.001694 397.270111,227.371017 397.525452,227.740356 
	C394.740906,229.645615 391.956360,231.550858 389.189606,233.443924 
	C389.189606,227.739624 389.133850,220.994827 389.316803,214.256500 
	C389.328827,213.813904 391.165649,213.420837 392.576233,213.002045 
	C392.998779,212.999390 393.000000,213.000000 393.000610,213.000305 
z"/>
<path fill="#FCFEFA" opacity="1.000000" stroke="none" 
	d="
M588.190552,432.768433 
	C593.367737,429.409180 598.759888,428.310455 604.876648,430.035309 
	C600.543274,438.214386 593.073364,439.324310 588.190552,432.768433 
z"/>
<path fill="#FCFEFA" opacity="1.000000" stroke="none" 
	d="
M758.199341,429.868896 
	C760.980896,430.428375 763.347656,430.913361 767.501892,431.764587 
	C764.729309,434.101990 763.238953,436.331482 761.329468,436.781097 
	C756.141296,438.002655 752.201965,435.520111 748.226807,429.794373 
	C752.150818,429.794373 754.967712,429.794373 758.199341,429.868896 
z"/>
<path fill="#FCFEFA" opacity="1.000000" stroke="none" 
	d="
M759.447388,220.992767 
	C759.593628,220.343948 760.302002,219.074478 760.807922,219.150620 
	C766.889343,220.065765 767.647705,216.620438 766.992310,211.448456 
	C772.020325,212.124847 774.237488,214.960464 772.315735,220.997284 
	C768.368774,220.997284 764.142090,220.997284 759.447388,220.992767 
z"/>
<path fill="#FCFEFA" opacity="1.000000" stroke="none" 
	d="
M553.922485,437.514404 
	C552.071838,436.704132 550.601562,435.756897 549.131287,434.809692 
	C550.793152,434.206482 552.423950,433.218109 554.123352,433.081360 
	C557.525146,432.807648 560.964478,433.000092 565.026611,433.000092 
	C562.368958,438.619965 557.652771,436.143616 553.922485,437.514404 
z"/>
<path fill="#FCFEFA" opacity="1.000000" stroke="none" 
	d="
M556.831116,21.243917 
	C558.939026,21.108862 560.684326,21.108862 562.429688,21.108862 
	C562.672852,21.492714 562.916077,21.876564 563.159241,22.260416 
	C562.122925,23.324497 561.256165,24.839098 559.997620,25.313017 
	C558.952393,25.706617 557.271545,25.141037 556.229919,24.456318 
	C555.814636,24.183304 556.360291,22.448383 556.831116,21.243917 
z"/>
<path fill="#FCFEFA" opacity="1.000000" stroke="none" 
	d="
M608.572937,418.691833 
	C609.842590,418.744873 610.781860,418.934204 611.721069,419.123535 
	C611.697327,419.609070 611.673584,420.094604 611.649841,420.580139 
	C609.989563,420.682648 608.329285,420.785156 606.668945,420.887634 
	C606.578186,420.530701 606.487366,420.173767 606.396606,419.816833 
	C607.011902,419.487274 607.627197,419.157715 608.572937,418.691833 
z"/>
<path fill="#FCFEFA" opacity="1.000000" stroke="none" 
	d="
M743.555420,420.916992 
	C743.082642,420.203583 742.968323,419.545349 742.854065,418.887146 
	C744.416504,419.011688 745.978882,419.136230 747.541321,419.260773 
	C747.524109,419.683899 747.506897,420.107056 747.489685,420.530212 
	C746.297729,420.677521 745.105835,420.824860 743.555420,420.916992 
z"/>
<path fill="#FCFEFA" opacity="1.000000" stroke="none" 
	d="
M751.077026,219.373840 
	C752.952759,219.410599 754.905518,219.823639 756.941650,220.611267 
	C755.067993,220.573959 753.111023,220.162048 751.077026,219.373840 
z"/>
<path fill="#FCFEFA" opacity="1.000000" stroke="none" 
	d="
M597.387695,220.990982 
	C598.709351,220.321304 600.443848,219.656631 602.588623,218.994751 
	C601.266174,219.663681 599.533386,220.329834 597.387695,220.990982 
z"/>
<path fill="#FCFEFA" opacity="1.000000" stroke="none" 
	d="
M608.395081,218.991119 
	C609.200745,215.954361 610.956055,216.554535 612.948608,218.629700 
	C611.620728,218.990433 610.218323,218.993561 608.395081,218.991119 
z"/>
<path fill="#FCFEFA" opacity="1.000000" stroke="none" 
	d="
M772.257202,225.465485 
	C771.666687,226.155746 770.841125,226.625183 770.015625,227.094604 
	C769.840698,226.631607 769.665710,226.168610 769.490784,225.705612 
	C770.334595,225.551956 771.178406,225.398300 772.257202,225.465485 
z"/>
<path fill="#FCFEFA" opacity="1.000000" stroke="none" 
	d="
M742.378784,218.991028 
	C742.840210,216.258713 744.204224,216.365372 745.957153,218.642105 
	C744.945068,218.989578 743.864563,218.993118 742.378784,218.991028 
z"/>
<path fill="#FCFEFA" opacity="1.000000" stroke="none" 
	d="
M390.606873,418.045471 
	C390.209839,418.287750 389.814880,418.286011 389.422089,418.255707 
	C389.411041,418.254852 389.423553,417.948700 389.425049,417.784912 
	C389.819763,417.789124 390.214478,417.793335 390.606873,418.045471 
z"/>
<path fill="#FCFEFA" opacity="1.000000" stroke="none" 
	d="
M400.699707,231.038696 
	C400.994873,231.445877 400.992188,231.890717 400.978668,232.669067 
	C400.456329,232.763657 399.944824,232.524750 399.433289,232.285828 
	C399.756134,231.882675 400.078979,231.479523 400.699707,231.038696 
z"/>
<path fill="#FFFEC6" opacity="1.000000" stroke="none" 
	d="
M747.470154,410.974091 
	C745.713806,410.329315 744.410095,409.113617 743.103699,409.110687 
	C698.971191,409.012299 654.838440,409.020264 610.705750,409.078308 
	C609.529419,409.079865 608.354004,409.806641 607.079773,410.587433 
	C601.048462,409.907135 595.115540,408.834656 589.483643,407.365814 
	C590.291565,406.913544 590.798523,406.857605 591.747925,406.810730 
	C599.335510,406.862061 606.480713,406.945404 613.625916,406.940155 
	C663.316406,406.903687 713.006836,406.848877 763.075256,406.853424 
	C763.960815,406.936340 764.468445,406.965729 764.976074,406.995117 
	C764.531433,407.614197 764.159973,408.696991 763.630798,408.780548 
	C758.409424,409.604767 753.161743,410.263184 747.470154,410.974091 
z"/>
<path fill="#5194C2" opacity="1.000000" stroke="none" 
	d="
M401.007660,235.474487 
	C458.044403,235.019974 515.037537,235.016083 572.494995,235.048523 
	C572.976135,237.428802 572.992981,239.772751 572.625977,242.555542 
	C571.832092,242.994781 571.422058,242.995148 570.967529,242.641418 
	C568.864624,238.391541 565.752380,236.936020 561.251587,236.946503 
	C511.182190,237.063080 461.112457,237.013031 411.042786,237.006531 
	C403.792267,237.005585 403.100006,237.686981 402.669830,244.989197 
	C401.953339,244.989197 401.543945,244.986420 401.134583,244.983627 
	C401.077728,241.964127 401.020874,238.944611 401.007660,235.474487 
z"/>
<path fill="#5198C1" opacity="1.000000" stroke="none" 
	d="
M572.865479,403.009338 
	C573.951904,407.234039 571.263733,407.086609 568.364868,407.084747 
	C515.443359,407.050537 462.521820,407.061859 409.600311,407.063538 
	C407.603760,407.063599 405.506622,407.431213 403.649017,406.923218 
	C402.565369,406.626862 401.864777,404.929657 401.366302,403.434601 
	C402.149994,403.011047 402.559235,403.015594 403.257629,403.309265 
	C408.148682,404.062317 412.749786,404.919861 417.352661,404.929413 
	C465.007141,405.028351 512.662048,405.033264 560.316345,404.904358 
	C563.871521,404.894745 567.423401,403.654449 571.291626,402.990448 
	C572.026123,402.999512 572.445801,403.004425 572.865479,403.009338 
z"/>
<path fill="#FFFEC0" opacity="1.000000" stroke="none" 
	d="
M765.000366,406.527466 
	C764.468445,406.965729 763.960815,406.936340 763.133667,406.406494 
	C762.810486,349.013702 762.806885,292.121307 762.880798,235.136703 
	C762.958252,235.044464 763.114624,234.861176 763.114624,234.861176 
	C765.799927,237.922668 768.505859,240.815674 765.772400,245.444946 
	C764.862305,246.986298 765.059509,249.288986 765.058167,251.243835 
	C765.022400,302.849121 765.026978,354.454437 765.000366,406.527466 
z"/>
<path fill="#FFFEC1" opacity="1.000000" stroke="none" 
	d="
M591.305420,406.801697 
	C590.798523,406.857605 590.291565,406.913544 589.402588,406.983154 
	C589.003601,355.498169 589.013062,303.999420 588.898193,252.500961 
	C588.891846,249.664505 587.241455,246.782532 587.458435,244.007950 
	C587.695557,240.976379 589.215637,238.045135 590.607727,235.055618 
	C591.038940,235.041061 591.196533,235.220657 591.172791,235.670502 
	C591.123474,292.019684 591.096558,347.919006 591.081909,403.818359 
	C591.081665,404.812775 591.227722,405.807251 591.305420,406.801697 
z"/>
<path fill="#FFFEC7" opacity="1.000000" stroke="none" 
	d="
M590.959595,234.951813 
	C592.221619,234.231003 593.562073,233.049469 594.904541,233.047195 
	C649.698181,232.954575 704.491943,232.960999 759.285645,233.015549 
	C760.474182,233.016724 761.662109,233.723633 762.982422,234.481262 
	C763.114624,234.861176 762.958252,235.044464 762.430176,235.100006 
	C722.469238,235.120621 683.036255,235.064209 643.603333,235.060562 
	C626.134399,235.058945 608.665466,235.164017 591.196533,235.220657 
	C591.196533,235.220657 591.038940,235.041061 590.959595,234.951813 
z"/>
<path fill="#4B9BCC" opacity="1.000000" stroke="none" 
	d="
M572.932983,402.543884 
	C572.445801,403.004425 572.026123,402.999512 571.300049,402.523376 
	C570.999756,349.033264 571.005920,296.014404 571.012024,242.995529 
	C571.422058,242.995148 571.832092,242.994781 572.549500,242.989655 
	C572.916748,258.609406 573.021118,274.233887 573.027588,289.858398 
	C573.043030,327.265076 573.012451,364.671753 572.932983,402.543884 
z"/>
<path fill="#4A98D1" opacity="1.000000" stroke="none" 
	d="
M402.968506,403.020142 
	C402.559235,403.015594 402.149994,403.011047 401.433838,403.009705 
	C401.069763,384.562347 400.973236,366.111877 400.963898,347.661316 
	C400.946777,313.746124 400.980988,279.830933 401.064209,245.449677 
	C401.543945,244.986420 401.953339,244.989197 402.678345,245.459305 
	C402.985443,298.291138 402.976990,350.655640 402.968506,403.020142 
z"/>
<path fill="#FFF2E2" opacity="1.000000" stroke="none" 
	d="
M577.836426,216.476837 
	C577.511597,213.466690 577.511597,213.466690 581.494751,214.875809 
	C580.385132,215.435944 579.275574,215.996094 577.836426,216.476837 
z"/>
<path fill="#8FAB4B" opacity="1.000000" stroke="none" 
	d="
M763.030884,165.000000 
	C763.030884,181.781326 763.030884,198.062653 763.030884,214.683685 
	C705.502686,214.683685 648.606506,214.683685 591.325439,214.683685 
	C591.325439,157.547043 591.325439,100.649734 591.325439,43.358025 
	C648.306213,43.358025 705.217346,43.358025 763.030884,43.358025 
	C763.030884,83.692772 763.030884,124.096382 763.030884,165.000000 
M759.013000,49.284592 
	C759.672852,44.974392 756.974670,44.962383 753.836792,44.965477 
	C702.531555,45.016045 651.226318,45.001137 599.921021,45.004013 
	C598.922363,45.004070 597.807129,44.768497 596.956055,45.132782 
	C596.006287,45.539310 594.732117,46.403381 594.578430,47.246780 
	C593.867249,51.148685 593.075500,55.111767 593.067566,59.054470 
	C592.969421,107.694336 593.001953,156.334473 593.005066,204.974533 
	C593.005554,212.236618 593.761414,212.994766 601.020020,212.995316 
	C651.658997,212.999100 702.297974,212.999191 752.936951,212.995743 
	C760.232544,212.995255 760.995300,212.239136 760.995789,205.018311 
	C760.999084,156.045090 761.027710,107.071800 760.914917,58.098846 
	C760.908813,55.449028 759.705872,52.801968 759.013000,49.284592 
z"/>
<path fill="#F7F7F7" opacity="1.000000" stroke="none" 
	d="
M654.895264,587.198486 
	C649.495667,587.199158 644.575806,587.199158 639.302368,587.199158 
	C639.302368,576.375610 639.200989,566.422729 639.441589,556.478027 
	C639.468994,555.343262 641.461731,553.254944 642.459656,553.304138 
	C649.963074,553.673950 657.527100,554.002563 664.906494,555.291992 
	C669.978821,556.178284 676.547546,565.601013 673.421692,573.659180 
	C669.489197,583.796814 665.864868,586.888367 654.895264,587.198486 
z"/>
<path fill="#F9F9F9" opacity="1.000000" stroke="none" 
	d="
M724.009888,597.191772 
	C719.399170,597.189697 715.286804,597.189697 711.183167,597.189697 
	C711.328857,586.061707 718.955872,579.026611 729.564636,577.506165 
	C737.618530,576.351990 745.228760,584.997009 746.738525,597.193909 
	C739.267151,597.193909 731.887695,597.193909 724.009888,597.191772 
z"/>
<path fill="#F7F7F7" opacity="1.000000" stroke="none" 
	d="
M842.729553,583.718750 
	C850.820129,575.178467 862.844055,576.186218 867.500366,583.044189 
	C870.122681,586.906555 871.538452,591.588074 873.885620,596.754456 
	C860.851746,596.754456 849.158936,596.754456 837.106079,596.754456 
	C836.466370,591.469604 839.052490,587.579956 842.729553,583.718750 
z"/>
<path fill="#FAFAFA" opacity="1.000000" stroke="none" 
	d="
M436.165405,615.557007 
	C433.139679,603.328491 432.617218,591.641357 442.702972,582.611694 
	C449.358093,576.653503 457.957001,576.603882 465.574890,579.583008 
	C472.660461,582.354065 476.671997,588.864014 477.048920,596.853088 
	C477.443298,605.210938 478.426300,613.607544 473.206085,621.225891 
	C470.056763,625.822083 466.230377,628.796082 460.648163,629.041565 
	C454.632965,629.305969 448.249786,630.403381 443.518463,625.320435 
	C440.848267,622.451782 438.782593,619.020325 436.165405,615.557007 
z"/>
<path fill="#F6F6F6" opacity="1.000000" stroke="none" 
	d="
M918.075562,629.204590 
	C910.344116,628.834045 905.882690,625.029724 905.284973,618.694031 
	C904.773987,613.277222 908.565308,608.432129 915.192810,606.914551 
	C922.095337,605.334167 929.118347,604.279968 936.029968,603.006531 
	C939.511047,617.978210 931.993469,628.890869 918.075562,629.204590 
z"/>
<path fill="#FAFAFA" opacity="1.000000" stroke="none" 
	d="
M298.009094,605.389343 
	C299.245758,596.994446 298.947876,588.330688 306.636810,582.517090 
	C313.983704,576.962036 322.265472,576.217163 329.935730,579.683838 
	C336.638519,582.713196 341.321350,588.985596 341.026154,597.138550 
	C340.779663,603.946106 340.220978,610.805481 339.003021,617.496765 
	C337.791046,624.155273 332.446808,627.677917 326.383331,628.815247 
	C311.159058,631.670898 299.706970,624.362305 298.705475,608.128540 
	C298.654968,607.309753 298.412506,606.502747 298.009094,605.389343 
z"/>
<path fill="#F3BC42" opacity="1.000000" stroke="none" 
	d="
M591.172791,235.670502 
	C608.665466,235.164017 626.134399,235.058945 643.603333,235.060562 
	C683.036255,235.064209 722.469238,235.120621 762.352783,235.192261 
	C762.806885,292.121307 762.810486,349.013702 762.755737,406.352966 
	C713.006836,406.848877 663.316406,406.903687 613.625916,406.940155 
	C606.480713,406.945404 599.335510,406.862061 591.747864,406.810730 
	C591.227722,405.807251 591.081665,404.812775 591.081909,403.818359 
	C591.096558,347.919006 591.123474,292.019684 591.172791,235.670502 
z"/>
<path fill="#4AA4EA" opacity="1.000000" stroke="none" 
	d="
M403.257629,403.309265 
	C402.976990,350.655640 402.985443,298.291138 402.985413,245.456512 
	C403.100006,237.686981 403.792267,237.005585 411.042786,237.006531 
	C461.112457,237.013031 511.182190,237.063080 561.251587,236.946503 
	C565.752380,236.936020 568.864624,238.391541 570.967529,242.641418 
	C571.005920,296.014404 570.999756,349.033264 570.985229,402.519226 
	C567.423401,403.654449 563.871521,404.894745 560.316345,404.904358 
	C512.662048,405.033264 465.007141,405.028351 417.352661,404.929413 
	C412.749786,404.919861 408.148682,404.062317 403.257629,403.309265 
z"/>
<path fill="#8CBA38" opacity="1.000000" stroke="none" 
	d="
M759.036499,49.719109 
	C759.705872,52.801968 760.908813,55.449028 760.914917,58.098846 
	C761.027710,107.071800 760.999084,156.045090 760.995789,205.018311 
	C760.995300,212.239136 760.232544,212.995255 752.936951,212.995743 
	C702.297974,212.999191 651.658997,212.999100 601.020020,212.995316 
	C593.761414,212.994766 593.005554,212.236618 593.005066,204.974533 
	C593.001953,156.334473 592.969421,107.694336 593.067566,59.054470 
	C593.075500,55.111767 593.867249,51.148685 594.578430,47.246780 
	C594.732117,46.403381 596.006287,45.539310 596.956055,45.132782 
	C597.807129,44.768497 598.922363,45.004070 599.921021,45.004013 
	C651.226318,45.001137 702.531555,45.016045 753.836792,44.965477 
	C756.974670,44.962383 759.672852,44.974392 759.036499,49.719109 
z"/>
</svg>