<?xml version="1.0" encoding="UTF-8"?>
<!DOCTYPE svg PUBLIC "-//W3C//DTD SVG 1.1//EN" "http://www.w3.org/Graphics/SVG/1.1/DTD/svg11.dtd">
<svg xmlns="http://www.w3.org/2000/svg" version="1.1" width="225px" height="225px" style="shape-rendering:geometricPrecision; text-rendering:geometricPrecision; image-rendering:optimizeQuality; fill-rule:evenodd; clip-rule:evenodd" xmlns:xlink="http://www.w3.org/1999/xlink">
<g><path style="opacity:1" fill="#fcfdfe" d="M -0.5,-0.5 C 74.5,-0.5 149.5,-0.5 224.5,-0.5C 224.5,33.1667 224.5,66.8333 224.5,100.5C 223.522,100.189 222.855,99.5223 222.5,98.5C 223.815,96.8014 223.815,95.1347 222.5,93.5C 222.5,92.8333 222.5,92.1667 222.5,91.5C 222.863,89.0885 221.863,87.5885 219.5,87C 221.548,85.7741 221.881,84.2741 220.5,82.5C 220.158,81.6618 219.492,81.3284 218.5,81.5C 220.023,79.4143 219.69,77.7476 217.5,76.5C 217.5,75.8333 217.5,75.1667 217.5,74.5C 217.863,72.0885 216.863,70.5885 214.5,70C 216.161,66.8501 215.161,65.3501 211.5,65.5C 212.301,63.9582 212.634,62.2915 212.5,60.5C 209.724,60.9111 209.057,60.0777 210.5,58C 210.361,56.699 209.695,55.8656 208.5,55.5C 208.011,54.0048 207.345,52.6715 206.5,51.5C 205.791,50.596 204.791,50.2627 203.5,50.5C 203.657,49.1266 203.49,47.7932 203,46.5C 201.261,44.9571 199.761,43.2904 198.5,41.5C 198.158,40.6618 197.492,40.3284 196.5,40.5C 196.833,37.5 195.5,36.1667 192.5,36.5C 192.833,33.5 191.5,32.1667 188.5,32.5C 188.67,31.1779 188.337,30.0113 187.5,29C 185.709,28.5848 184.376,27.5848 183.5,26C 182.207,25.51 180.873,25.3433 179.5,25.5C 179.475,21.7162 177.808,20.7162 174.5,22.5C 174.5,21.1667 174.5,19.8333 174.5,18.5C 171.644,17.1721 168.644,16.1721 165.5,15.5C 165.672,14.5084 165.338,13.8417 164.5,13.5C 161.736,12.8314 159.236,11.4981 157,9.5C 156.228,9.6448 155.561,9.97814 155,10.5C 153.954,7.54091 152.121,6.87424 149.5,8.5C 149.5,7.83333 149.167,7.5 148.5,7.5C 147.021,4.95444 145.521,4.95444 144,7.5C 143.626,6.58377 143.126,5.75044 142.5,5C 139.748,4.78817 137.248,3.95484 135,2.5C 133.221,3.47913 131.555,3.14579 130,1.5C 127.003,1.57669 124.003,1.91002 121,2.5C 120.261,1.42575 119.261,0.759083 118,0.5C 114.178,0.577679 110.345,0.577679 106.5,0.5C 105.328,0.918625 104.328,1.58529 103.5,2.5C 101.712,-0.108682 100.045,-0.108682 98.5,2.5C 98.1667,2.5 97.8333,2.5 97.5,2.5C 94.8791,0.874243 93.0457,1.54091 92,4.5C 91.6121,3.57203 90.9454,2.90536 90,2.5C 85.4292,4.42112 80.9292,5.75446 76.5,6.5C 75.8333,6.83333 75.1667,7.16667 74.5,7.5C 72.6203,7.22911 71.287,7.89578 70.5,9.5C 68.5853,9.21552 66.9187,9.54885 65.5,10.5C 64.0867,11.9348 62.42,12.9348 60.5,13.5C 59.6618,13.8417 59.3284,14.5084 59.5,15.5C 58.1667,14.1667 56.8333,14.1667 55.5,15.5C 54.2597,16.6588 52.9264,17.6588 51.5,18.5C 50.5655,19.5676 50.2322,20.901 50.5,22.5C 48.9582,21.6993 47.2915,21.366 45.5,21.5C 45.5,22.8333 45.5,24.1667 45.5,25.5C 42.1919,23.7162 40.5253,24.7162 40.5,28.5C 37.5,28.1667 36.1667,29.5 36.5,32.5C 35.1266,32.3433 33.7932,32.51 32.5,33C 31.8448,35.159 30.5115,36.659 28.5,37.5C 27.6588,38.9264 26.6588,40.2597 25.5,41.5C 24.596,42.209 24.2627,43.209 24.5,44.5C 24.5,44.8333 24.5,45.1667 24.5,45.5C 23.209,45.2627 22.209,45.596 21.5,46.5C 20.6554,47.6715 19.9887,49.0048 19.5,50.5C 16.781,53.4029 14.6143,56.7363 13,60.5C 12.3603,62.265 12.5269,63.9317 13.5,65.5C 9.83876,65.3501 8.83876,66.8501 10.5,70C 8.13673,70.5885 7.13673,72.0885 7.5,74.5C 7.16667,75.1667 6.83333,75.8333 6.5,76.5C 5.19914,77.8845 5.19914,79.3845 6.5,81C 4.13673,81.5885 3.13673,83.0885 3.5,85.5C 3.5,86.1667 3.5,86.8333 3.5,87.5C 2.19914,88.8845 2.19914,90.3845 3.5,92C 1.44677,93.6779 1.11343,95.5112 2.5,97.5C 2.5,97.8333 2.5,98.1667 2.5,98.5C 1.83333,98.8333 1.16667,99.1667 0.5,99.5C 0.166667,99.5 -0.166667,99.5 -0.5,99.5C -0.5,66.1667 -0.5,32.8333 -0.5,-0.5 Z"/></g>
<g><path style="opacity:1" fill="#275ba0" d="M 148.5,7.5 C 147.391,11.0289 145.558,11.3622 143,8.5C 140.546,10.013 138.879,9.34634 138,6.5C 135.733,7.93484 133.733,7.6015 132,5.5C 125.253,4.91784 118.587,4.91784 112,5.5C 111.055,5.09464 110.388,4.42797 110,3.5C 107.916,6.03301 105.916,6.03301 104,3.5C 102.599,5.19216 100.766,5.85882 98.5,5.5C 98.5,4.5 98.5,3.5 98.5,2.5C 100.045,-0.108682 101.712,-0.108682 103.5,2.5C 104.328,1.58529 105.328,0.918625 106.5,0.5C 110.345,0.577679 114.178,0.577679 118,0.5C 119.261,0.759083 120.261,1.42575 121,2.5C 124.003,1.91002 127.003,1.57669 130,1.5C 131.555,3.14579 133.221,3.47913 135,2.5C 137.248,3.95484 139.748,4.78817 142.5,5C 143.126,5.75044 143.626,6.58377 144,7.5C 145.521,4.95444 147.021,4.95444 148.5,7.5 Z"/></g>
<g><path style="opacity:1" fill="#23589f" d="M 97.5,2.5 C 97.6499,6.16124 96.1499,7.16124 93,5.5C 91.2672,7.6015 89.2672,7.93484 87,6.5C 86.1207,9.34634 84.4541,10.013 82,8.5C 78.7925,11.4868 76.9592,10.8202 76.5,6.5C 80.9292,5.75446 85.4292,4.42112 90,2.5C 90.9454,2.90536 91.6121,3.57203 92,4.5C 93.0457,1.54091 94.8791,0.874243 97.5,2.5 Z"/></g>
<g><path style="opacity:1" fill="#e0e8f1" d="M 97.5,2.5 C 97.8333,2.5 98.1667,2.5 98.5,2.5C 98.5,3.5 98.5,4.5 98.5,5.5C 100.766,5.85882 102.599,5.19216 104,3.5C 105.916,6.03301 107.916,6.03301 110,3.5C 110.388,4.42797 111.055,5.09464 112,5.5C 118.587,4.91784 125.253,4.91784 132,5.5C 133.733,7.6015 135.733,7.93484 138,6.5C 138.879,9.34634 140.546,10.013 143,8.5C 145.558,11.3622 147.391,11.0289 148.5,7.5C 149.167,7.5 149.5,7.83333 149.5,8.5C 149.5,9.83333 149.5,11.1667 149.5,12.5C 151.144,12.7135 152.644,12.3802 154,11.5C 154.483,12.448 154.649,13.448 154.5,14.5C 157.513,14.3717 160.013,15.3717 162,17.5C 164.02,16.9681 164.853,15.6348 164.5,13.5C 165.338,13.8417 165.672,14.5084 165.5,15.5C 165.586,16.4959 165.252,17.3292 164.5,18C 165.629,20.1678 167.129,20.6678 169,19.5C 169.778,22.8035 171.612,23.8035 174.5,22.5C 174.525,26.2838 176.192,27.2838 179.5,25.5C 179.5,26.8333 179.5,28.1667 179.5,29.5C 180.833,29.5 182.167,29.5 183.5,29.5C 183.167,32.5 184.5,33.8333 187.5,33.5C 187.167,36.5 188.5,37.8333 191.5,37.5C 191.525,41.2838 193.192,42.2838 196.5,40.5C 197.492,40.3284 198.158,40.6618 198.5,41.5C 195.924,41.7218 195.09,43.0551 196,45.5C 197.675,46.5955 198.842,48.0955 199.5,50C 200.448,50.4828 201.448,50.6495 202.5,50.5C 202.116,52.6648 202.783,54.3315 204.5,55.5C 206.111,54.6798 206.778,53.3464 206.5,51.5C 207.345,52.6715 208.011,54.0048 208.5,55.5C 205.916,56.0483 204.916,57.715 205.5,60.5C 206.552,60.3505 207.552,60.5172 208.5,61C 206.839,64.1499 207.839,65.6499 211.5,65.5C 209.874,68.1209 210.541,69.9543 213.5,71C 212.62,72.3561 212.286,73.8561 212.5,75.5C 214.292,75.634 215.958,75.3007 217.5,74.5C 217.5,75.1667 217.5,75.8333 217.5,76.5C 214.611,76.999 213.944,78.499 215.5,81C 216.448,81.4828 217.448,81.6495 218.5,81.5C 219.492,81.3284 220.158,81.6618 220.5,82.5C 219.167,82.5 217.833,82.5 216.5,82.5C 216.328,84.4918 216.995,86.1585 218.5,87.5C 216.866,91.8661 218.199,93.1994 222.5,91.5C 222.5,92.1667 222.5,92.8333 222.5,93.5C 221.167,93.5 219.833,93.5 218.5,93.5C 218.178,95.7224 218.845,97.5557 220.5,99C 219.62,100.356 219.286,101.856 219.5,103.5C 221.292,103.634 222.958,103.301 224.5,102.5C 224.5,103.5 224.5,104.5 224.5,105.5C 222.167,103.889 220.5,104.389 219.5,107C 220.5,109.611 222.167,110.111 224.5,108.5C 224.5,109.5 224.5,110.5 224.5,111.5C 222.167,109.889 220.5,110.389 219.5,113C 220.743,115.303 222.409,115.803 224.5,114.5C 224.5,115.167 224.5,115.833 224.5,116.5C 222.833,116.5 221.167,116.5 219.5,116.5C 220.263,120.043 220.596,123.543 220.5,127C 218.398,128.733 218.065,130.733 219.5,133C 217.86,135.604 216.527,138.437 215.5,141.5C 215.977,142.478 216.643,143.311 217.5,144C 216.584,144.374 215.75,144.874 215,145.5C 214.694,147.906 213.861,150.073 212.5,152C 212.748,153.749 213.748,154.582 215.5,154.5C 215.5,155.167 215.167,155.5 214.5,155.5C 213.167,155.5 211.833,155.5 210.5,155.5C 210.657,156.873 210.49,158.207 210,159.5C 207.631,160.927 207.131,162.761 208.5,165C 207.552,165.483 206.552,165.649 205.5,165.5C 205.5,167.167 205.5,168.833 205.5,170.5C 204.448,170.351 203.448,170.517 202.5,171C 201.327,173.26 199.994,175.426 198.5,177.5C 199.32,179.111 200.654,179.778 202.5,179.5C 201.833,180.167 201.167,180.833 200.5,181.5C 197.278,178.529 195.778,179.195 196,183.5C 196.671,184.252 197.504,184.586 198.5,184.5C 198.068,185.71 197.401,186.71 196.5,187.5C 195.952,184.916 194.285,183.916 191.5,184.5C 191.5,185.833 191.5,187.167 191.5,188.5C 188.191,188.308 185.691,189.641 184,192.5C 183.667,193.833 183.333,195.167 183,196.5C 179.85,194.839 178.35,195.839 178.5,199.5C 177.167,199.5 175.833,199.5 174.5,199.5C 174.5,200.833 174.5,202.167 174.5,203.5C 171.192,201.716 169.525,202.716 169.5,206.5C 166.192,204.716 164.525,205.716 164.5,209.5C 161.837,207.943 159.837,208.61 158.5,211.5C 155.07,210.258 153.737,211.591 154.5,215.5C 154.5,216.167 154.167,216.5 153.5,216.5C 152.759,211.564 150.926,211.23 148,215.5C 145.546,213.987 143.879,214.654 143,217.5C 141.644,216.62 140.144,216.286 138.5,216.5C 138.5,217.833 138.5,219.167 138.5,220.5C 138.167,220.5 137.833,220.5 137.5,220.5C 137.278,217.924 135.945,217.09 133.5,218C 132.272,219.49 132.272,220.99 133.5,222.5C 132.833,222.5 132.167,222.5 131.5,222.5C 131.141,218.074 129.307,217.407 126,220.5C 122.331,218.991 120.831,220.324 121.5,224.5C 120.833,224.5 120.167,224.5 119.5,224.5C 119.5,223.167 119.5,221.833 119.5,220.5C 116.454,221.394 113.454,221.561 110.5,221C 109.663,222.011 109.33,223.178 109.5,224.5C 109.167,224.5 108.833,224.5 108.5,224.5C 108.5,223.167 108.5,221.833 108.5,220.5C 107.167,220.5 105.833,220.5 104.5,220.5C 104.5,221.833 104.5,223.167 104.5,224.5C 103.833,224.5 103.167,224.5 102.5,224.5C 102.5,222.833 102.5,221.167 102.5,219.5C 101.5,219.5 100.5,219.5 99.5,219.5C 98.8333,218.833 98.1667,218.167 97.5,217.5C 124.707,220.539 149.707,214.539 172.5,199.5C 180.044,191.489 187.878,183.823 196,176.5C 200.766,165.865 206.099,155.532 212,145.5C 217.651,124.286 217.984,102.952 213,81.5C 211.438,79.0427 210.438,76.376 210,73.5C 204.599,63.7013 198.932,54.0346 193,44.5C 160.713,11.6972 122.213,1.5305 77.5,14C 27.9398,35.5808 4.77316,73.4141 8,127.5C 16.8978,172.33 43.0644,201.663 86.5,215.5C 85.5084,215.328 84.8417,215.662 84.5,216.5C 82.5,216.5 81.5,217.5 81.5,219.5C 80.8333,219.5 80.1667,219.5 79.5,219.5C 81.2605,215.43 80.0938,214.097 76,215.5C 73.9673,211.524 72.134,211.524 70.5,215.5C 69.8333,215.5 69.1667,215.5 68.5,215.5C 69.7279,213.99 69.7279,212.49 68.5,211C 66.3822,210.365 64.3822,209.531 62.5,208.5C 61.4163,208.685 60.4163,209.018 59.5,209.5C 59.67,208.178 59.3366,207.011 58.5,206C 55.2464,204.419 52.2464,202.419 49.5,200C 48.2068,199.51 46.8734,199.343 45.5,199.5C 45.4747,195.716 43.8081,194.716 40.5,196.5C 41.9323,194.201 41.2656,192.535 38.5,191.5C 36.8888,192.32 36.2222,193.654 36.5,195.5C 35.2597,194.341 33.9264,193.341 32.5,192.5C 35.5,192.833 36.8333,191.5 36.5,188.5C 35.1667,188.5 33.8333,188.5 32.5,188.5C 32.5,187.167 32.5,185.833 32.5,184.5C 31.1667,184.5 29.8333,184.5 28.5,184.5C 28.5,185.5 28.5,186.5 28.5,187.5C 27.6588,186.074 26.6588,184.74 25.5,183.5C 28.1662,183.934 29.3329,182.934 29,180.5C 26.499,178.944 24.999,179.611 24.5,182.5C 23.5987,181.71 22.9321,180.71 22.5,179.5C 24.2517,179.582 25.2517,178.749 25.5,177C 23.4065,172.419 20.7398,168.252 17.5,164.5C 16.5713,163.311 16.238,161.978 16.5,160.5C 14.7085,160.366 13.0418,160.699 11.5,161.5C 11.1667,160.833 10.8333,160.167 10.5,159.5C 12.6348,159.853 13.9681,159.02 14.5,157C 14.1802,155.347 13.1802,154.347 11.5,154C 12.9033,149.906 11.57,148.74 7.5,150.5C 7.16667,149.833 6.83333,149.167 6.5,148.5C 8.34642,148.778 9.67975,148.111 10.5,146.5C 8.98482,144.453 8.15149,142.119 8,139.5C 7.24956,138.874 6.41623,138.374 5.5,138C 7.83069,136.2 7.83069,134.2 5.5,132C 7.01301,129.546 6.34634,127.879 3.5,127C 6.16667,125 6.16667,123 3.5,121C 6.06434,119.149 6.06434,117.316 3.5,115.5C 4.76698,113.629 4.76698,111.796 3.5,110C 6.58674,106.118 5.58674,104.284 0.5,104.5C 0.357295,106.262 0.690628,107.929 1.5,109.5C 1.14451,110.522 0.477842,111.189 -0.5,111.5C -0.5,107.5 -0.5,103.5 -0.5,99.5C -0.166667,99.5 0.166667,99.5 0.5,99.5C 0.176237,102.68 1.50957,103.847 4.5,103C 6.05582,100.499 5.38915,98.999 2.5,98.5C 2.5,98.1667 2.5,97.8333 2.5,97.5C 3.83333,97.5 5.16667,97.5 6.5,97.5C 6.71351,95.8561 6.38017,94.3561 5.5,93C 8.48685,89.7925 7.82018,87.9592 3.5,87.5C 3.5,86.8333 3.5,86.1667 3.5,85.5C 5.04181,86.3007 6.70848,86.634 8.5,86.5C 8.71351,84.8561 8.38017,83.3561 7.5,82C 9.19216,80.5993 9.85882,78.7659 9.5,76.5C 8.5,76.5 7.5,76.5 6.5,76.5C 6.83333,75.8333 7.16667,75.1667 7.5,74.5C 11.57,76.2605 12.9033,75.0938 11.5,71C 14.4591,69.9543 15.1258,68.1209 13.5,65.5C 14.4959,65.5858 15.3292,65.2524 16,64.5C 18,61.1667 20,57.8333 22,54.5C 22.9098,52.0551 22.0764,50.7218 19.5,50.5C 19.9887,49.0048 20.6554,47.6715 21.5,46.5C 21.1667,49.5 22.5,50.8333 25.5,50.5C 25.634,48.7085 25.3007,47.0418 24.5,45.5C 24.5,45.1667 24.5,44.8333 24.5,44.5C 26.0418,45.3007 27.7085,45.634 29.5,45.5C 29.8333,42.5 28.5,41.1667 25.5,41.5C 26.6588,40.2597 27.6588,38.9264 28.5,37.5C 28.3501,41.1612 29.8501,42.1612 33,40.5C 33.4828,39.552 33.6495,38.552 33.5,37.5C 36.5,37.8333 37.8333,36.5 37.5,33.5C 40.5,33.8333 41.8333,32.5 41.5,29.5C 42.8333,29.5 44.1667,29.5 45.5,29.5C 45.5,28.1667 45.5,26.8333 45.5,25.5C 48.8081,27.2838 50.4747,26.2838 50.5,22.5C 53.9007,23.7734 55.234,22.44 54.5,18.5C 53.5,18.5 52.5,18.5 51.5,18.5C 52.9264,17.6588 54.2597,16.6588 55.5,15.5C 55.5,16.8333 55.5,18.1667 55.5,19.5C 56.8333,19.5 58.1667,19.5 59.5,19.5C 59.5,18.1667 59.5,16.8333 59.5,15.5C 59.3284,14.5084 59.6618,13.8417 60.5,13.5C 60.9323,18.0486 62.5989,18.5486 65.5,15C 66.7932,14.51 68.1266,14.3433 69.5,14.5C 69.5,13.1667 69.5,11.8333 69.5,10.5C 68.1667,10.5 66.8333,10.5 65.5,10.5C 66.9187,9.54885 68.5853,9.21552 70.5,9.5C 70.7218,12.0764 72.0551,12.9098 74.5,12C 75.7279,10.5098 75.7279,9.00978 74.5,7.5C 75.1667,7.16667 75.8333,6.83333 76.5,6.5C 76.9592,10.8202 78.7925,11.4868 82,8.5C 84.4541,10.013 86.1207,9.34634 87,6.5C 89.2672,7.93484 91.2672,7.6015 93,5.5C 96.1499,7.16124 97.6499,6.16124 97.5,2.5 Z"/></g>
<g><path style="opacity:1" fill="#0e579e" d="M 74.5,7.5 C 75.7279,9.00978 75.7279,10.5098 74.5,12C 72.0551,12.9098 70.7218,12.0764 70.5,9.5C 71.287,7.89578 72.6203,7.22911 74.5,7.5 Z"/></g>
<g><path style="opacity:1" fill="#2c5ea3" d="M 164.5,13.5 C 164.853,15.6348 164.02,16.9681 162,17.5C 160.013,15.3717 157.513,14.3717 154.5,14.5C 154.649,13.448 154.483,12.448 154,11.5C 152.644,12.3802 151.144,12.7135 149.5,12.5C 149.5,11.1667 149.5,9.83333 149.5,8.5C 152.121,6.87424 153.954,7.54091 155,10.5C 155.561,9.97814 156.228,9.6448 157,9.5C 159.236,11.4981 161.736,12.8314 164.5,13.5 Z"/></g>
<g><path style="opacity:1" fill="#2559a0" d="M 65.5,10.5 C 66.8333,10.5 68.1667,10.5 69.5,10.5C 69.5,11.8333 69.5,13.1667 69.5,14.5C 68.1266,14.3433 66.7932,14.51 65.5,15C 62.5989,18.5486 60.9323,18.0486 60.5,13.5C 62.42,12.9348 64.0867,11.9348 65.5,10.5 Z"/></g>
<g><path style="opacity:1" fill="#10529b" d="M 59.5,15.5 C 59.5,16.8333 59.5,18.1667 59.5,19.5C 58.1667,19.5 56.8333,19.5 55.5,19.5C 55.5,18.1667 55.5,16.8333 55.5,15.5C 56.8333,14.1667 58.1667,14.1667 59.5,15.5 Z"/></g>
<g><path style="opacity:1" fill="#285da2" d="M 165.5,15.5 C 168.644,16.1721 171.644,17.1721 174.5,18.5C 174.5,19.8333 174.5,21.1667 174.5,22.5C 171.612,23.8035 169.778,22.8035 169,19.5C 167.129,20.6678 165.629,20.1678 164.5,18C 165.252,17.3292 165.586,16.4959 165.5,15.5 Z"/></g>
<g><path style="opacity:1" fill="#1e569e" d="M 51.5,18.5 C 52.5,18.5 53.5,18.5 54.5,18.5C 55.234,22.44 53.9007,23.7734 50.5,22.5C 50.2322,20.901 50.5655,19.5676 51.5,18.5 Z"/></g>
<g><path style="opacity:1" fill="#21589f" d="M 50.5,22.5 C 50.4747,26.2838 48.8081,27.2838 45.5,25.5C 45.5,24.1667 45.5,22.8333 45.5,21.5C 47.2915,21.366 48.9582,21.6993 50.5,22.5 Z"/></g>
<g><path style="opacity:1" fill="#0c529c" d="M 179.5,25.5 C 176.192,27.2838 174.525,26.2838 174.5,22.5C 177.808,20.7162 179.475,21.7162 179.5,25.5 Z"/></g>
<g><path style="opacity:1" fill="#295da2" d="M 45.5,25.5 C 45.5,26.8333 45.5,28.1667 45.5,29.5C 44.1667,29.5 42.8333,29.5 41.5,29.5C 41.8333,32.5 40.5,33.8333 37.5,33.5C 37.8333,36.5 36.5,37.8333 33.5,37.5C 33.6495,38.552 33.4828,39.552 33,40.5C 29.8501,42.1612 28.3501,41.1612 28.5,37.5C 30.5115,36.659 31.8448,35.159 32.5,33C 33.7932,32.51 35.1266,32.3433 36.5,32.5C 36.1667,29.5 37.5,28.1667 40.5,28.5C 40.5253,24.7162 42.1919,23.7162 45.5,25.5 Z"/></g>
<g><path style="opacity:1" fill="#19559d" d="M 179.5,25.5 C 180.873,25.3433 182.207,25.51 183.5,26C 184.376,27.5848 185.709,28.5848 187.5,29C 188.337,30.0113 188.67,31.1779 188.5,32.5C 191.5,32.1667 192.833,33.5 192.5,36.5C 195.5,36.1667 196.833,37.5 196.5,40.5C 193.192,42.2838 191.525,41.2838 191.5,37.5C 188.5,37.8333 187.167,36.5 187.5,33.5C 184.5,33.8333 183.167,32.5 183.5,29.5C 182.167,29.5 180.833,29.5 179.5,29.5C 179.5,28.1667 179.5,26.8333 179.5,25.5 Z"/></g>
<g><path style="opacity:1" fill="#1e559d" d="M 25.5,41.5 C 28.5,41.1667 29.8333,42.5 29.5,45.5C 27.7085,45.634 26.0418,45.3007 24.5,44.5C 24.2627,43.209 24.596,42.209 25.5,41.5 Z"/></g>
<g><path style="opacity:1" fill="#23579f" d="M 198.5,41.5 C 199.761,43.2904 201.261,44.9571 203,46.5C 203.49,47.7932 203.657,49.1266 203.5,50.5C 204.791,50.2627 205.791,50.596 206.5,51.5C 206.778,53.3464 206.111,54.6798 204.5,55.5C 202.783,54.3315 202.116,52.6648 202.5,50.5C 201.448,50.6495 200.448,50.4828 199.5,50C 198.842,48.0955 197.675,46.5955 196,45.5C 195.09,43.0551 195.924,41.7218 198.5,41.5 Z"/></g>
<g><path style="opacity:1" fill="#14539c" d="M 24.5,45.5 C 25.3007,47.0418 25.634,48.7085 25.5,50.5C 22.5,50.8333 21.1667,49.5 21.5,46.5C 22.209,45.596 23.209,45.2627 24.5,45.5 Z"/></g>
<g><path style="opacity:1" fill="#21579e" d="M 19.5,50.5 C 22.0764,50.7218 22.9098,52.0551 22,54.5C 20,57.8333 18,61.1667 16,64.5C 15.3292,65.2524 14.4959,65.5858 13.5,65.5C 12.5269,63.9317 12.3603,62.265 13,60.5C 14.6143,56.7363 16.781,53.4029 19.5,50.5 Z"/></g>
<g><path style="opacity:1" fill="#2d5fa3" d="M 208.5,55.5 C 209.695,55.8656 210.361,56.699 210.5,58C 209.057,60.0777 209.724,60.9111 212.5,60.5C 212.634,62.2915 212.301,63.9582 211.5,65.5C 207.839,65.6499 206.839,64.1499 208.5,61C 207.552,60.5172 206.552,60.3505 205.5,60.5C 204.916,57.715 205.916,56.0483 208.5,55.5 Z"/></g>
<g><path style="opacity:1" fill="#1a589f" d="M 13.5,65.5 C 15.1258,68.1209 14.4591,69.9543 11.5,71C 12.9033,75.0938 11.57,76.2605 7.5,74.5C 7.13673,72.0885 8.13673,70.5885 10.5,70C 8.83876,66.8501 9.83876,65.3501 13.5,65.5 Z"/></g>
<g><path style="opacity:1" fill="#20579f" d="M 211.5,65.5 C 215.161,65.3501 216.161,66.8501 214.5,70C 216.863,70.5885 217.863,72.0885 217.5,74.5C 215.958,75.3007 214.292,75.634 212.5,75.5C 212.286,73.8561 212.62,72.3561 213.5,71C 210.541,69.9543 209.874,68.1209 211.5,65.5 Z"/></g>
<g><path style="opacity:1" fill="#15599f" d="M 217.5,76.5 C 219.69,77.7476 220.023,79.4143 218.5,81.5C 217.448,81.6495 216.448,81.4828 215.5,81C 213.944,78.499 214.611,76.999 217.5,76.5 Z"/></g>
<g><path style="opacity:1" fill="#23589f" d="M 6.5,76.5 C 7.5,76.5 8.5,76.5 9.5,76.5C 9.85882,78.7659 9.19216,80.5993 7.5,82C 8.38017,83.3561 8.71351,84.8561 8.5,86.5C 6.70848,86.634 5.04181,86.3007 3.5,85.5C 3.13673,83.0885 4.13673,81.5885 6.5,81C 5.19914,79.3845 5.19914,77.8845 6.5,76.5 Z"/></g>
<g><path style="opacity:1" fill="#15569e" d="M 220.5,82.5 C 221.881,84.2741 221.548,85.7741 219.5,87C 221.863,87.5885 222.863,89.0885 222.5,91.5C 218.199,93.1994 216.866,91.8661 218.5,87.5C 216.995,86.1585 216.328,84.4918 216.5,82.5C 217.833,82.5 219.167,82.5 220.5,82.5 Z"/></g>
<g><path style="opacity:1" fill="#285aa1" d="M 3.5,87.5 C 7.82018,87.9592 8.48685,89.7925 5.5,93C 6.38017,94.3561 6.71351,95.8561 6.5,97.5C 5.16667,97.5 3.83333,97.5 2.5,97.5C 1.11343,95.5112 1.44677,93.6779 3.5,92C 2.19914,90.3845 2.19914,88.8845 3.5,87.5 Z"/></g>
<g><path style="opacity:1" fill="#08529b" d="M 2.5,98.5 C 5.38915,98.999 6.05582,100.499 4.5,103C 1.50957,103.847 0.176237,102.68 0.5,99.5C 1.16667,99.1667 1.83333,98.8333 2.5,98.5 Z"/></g>
<g><path style="opacity:1" fill="#1f579f" d="M 222.5,93.5 C 223.815,95.1347 223.815,96.8014 222.5,98.5C 222.855,99.5223 223.522,100.189 224.5,100.5C 224.5,101.167 224.5,101.833 224.5,102.5C 222.958,103.301 221.292,103.634 219.5,103.5C 219.286,101.856 219.62,100.356 220.5,99C 218.845,97.5557 218.178,95.7224 218.5,93.5C 219.833,93.5 221.167,93.5 222.5,93.5 Z"/></g>
<g><path style="opacity:1" fill="#13559d" d="M 224.5,105.5 C 224.5,106.5 224.5,107.5 224.5,108.5C 222.167,110.111 220.5,109.611 219.5,107C 220.5,104.389 222.167,103.889 224.5,105.5 Z"/></g>
<g><path style="opacity:1" fill="#1d579e" d="M 224.5,111.5 C 224.5,112.5 224.5,113.5 224.5,114.5C 222.409,115.803 220.743,115.303 219.5,113C 220.5,110.389 222.167,109.889 224.5,111.5 Z"/></g>
<g><path style="opacity:1" fill="#275ca1" d="M 6.5,148.5 C 5.81099,145.962 4.81099,143.462 3.5,141C 4.70631,138.983 4.37298,137.149 2.5,135.5C 1.86087,132.85 1.86087,130.016 2.5,127C 1.42575,126.261 0.759083,125.261 0.5,124C 0.609228,121.193 0.942561,118.36 1.5,115.5C 1.14451,114.478 0.477842,113.811 -0.5,113.5C -0.5,112.833 -0.5,112.167 -0.5,111.5C 0.477842,111.189 1.14451,110.522 1.5,109.5C 0.690628,107.929 0.357295,106.262 0.5,104.5C 5.58674,104.284 6.58674,106.118 3.5,110C 4.76698,111.796 4.76698,113.629 3.5,115.5C 6.06434,117.316 6.06434,119.149 3.5,121C 6.16667,123 6.16667,125 3.5,127C 6.34634,127.879 7.01301,129.546 5.5,132C 7.83069,134.2 7.83069,136.2 5.5,138C 6.41623,138.374 7.24956,138.874 8,139.5C 8.15149,142.119 8.98482,144.453 10.5,146.5C 9.67975,148.111 8.34642,148.778 6.5,148.5 Z"/></g>
<g><path style="opacity:1" fill="#fcfdfe" d="M -0.5,113.5 C 0.477842,113.811 1.14451,114.478 1.5,115.5C 0.942561,118.36 0.609228,121.193 0.5,124C 0.759083,125.261 1.42575,126.261 2.5,127C 1.86087,130.016 1.86087,132.85 2.5,135.5C 4.37298,137.149 4.70631,138.983 3.5,141C 4.81099,143.462 5.81099,145.962 6.5,148.5C 6.83333,149.167 7.16667,149.833 7.5,150.5C 7.13673,152.911 8.13673,154.411 10.5,155C 9.19914,156.616 9.19914,158.116 10.5,159.5C 10.8333,160.167 11.1667,160.833 11.5,161.5C 13.519,165.918 15.6857,170.252 18,174.5C 19.7392,176.043 21.2392,177.71 22.5,179.5C 22.9321,180.71 23.5987,181.71 24.5,182.5C 24.5,183.167 24.8333,183.5 25.5,183.5C 26.6588,184.74 27.6588,186.074 28.5,187.5C 29.5676,188.434 30.901,188.768 32.5,188.5C 31.1667,189.833 31.1667,191.167 32.5,192.5C 33.9264,193.341 35.2597,194.341 36.5,195.5C 37.5676,196.434 38.901,196.768 40.5,196.5C 40.1667,199.5 41.5,200.833 44.5,200.5C 44.7224,203.685 46.2224,204.685 49,203.5C 49.3095,204.766 49.8095,205.933 50.5,207C 53.08,207.538 55.2466,208.704 57,210.5C 57.9021,210.257 58.7354,209.923 59.5,209.5C 59.3501,213.161 60.8501,214.161 64,212.5C 64.5885,214.863 66.0885,215.863 68.5,215.5C 69.1667,215.5 69.8333,215.5 70.5,215.5C 71.4551,217.71 72.9551,218.043 75,216.5C 75.5885,218.863 77.0885,219.863 79.5,219.5C 80.1667,219.5 80.8333,219.5 81.5,219.5C 82.5849,221.582 84.0849,221.916 86,220.5C 87.4443,222.155 89.2776,222.822 91.5,222.5C 92.1693,218.324 90.6693,216.991 87,218.5C 86.2917,217.619 85.4584,216.953 84.5,216.5C 84.8417,215.662 85.5084,215.328 86.5,215.5C 90.1932,216.06 93.8598,216.727 97.5,217.5C 98.1667,218.167 98.8333,218.833 99.5,219.5C 98.8826,219.611 98.3826,219.944 98,220.5C 94.1178,217.413 92.2845,218.413 92.5,223.5C 94.2624,223.643 95.9291,223.309 97.5,222.5C 98.2975,222.957 98.6309,223.624 98.5,224.5C 65.5,224.5 32.5,224.5 -0.5,224.5C -0.5,187.5 -0.5,150.5 -0.5,113.5 Z"/></g>
<g><path style="opacity:1" fill="#fdfdfe" d="M 224.5,125.5 C 224.5,158.5 224.5,191.5 224.5,224.5C 191.5,224.5 158.5,224.5 125.5,224.5C 125.783,223.711 126.283,223.044 127,222.5C 128.616,223.801 130.116,223.801 131.5,222.5C 132.167,222.5 132.833,222.5 133.5,222.5C 135.483,222.843 136.817,222.176 137.5,220.5C 137.833,220.5 138.167,220.5 138.5,220.5C 139.601,221.598 140.934,221.765 142.5,221C 143.949,219.883 145.616,219.216 147.5,219C 148.126,218.25 148.626,217.416 149,216.5C 150.65,219.106 152.15,219.106 153.5,216.5C 154.167,216.5 154.5,216.167 154.5,215.5C 157.238,216.035 159.072,215.035 160,212.5C 163.15,214.161 164.65,213.161 164.5,209.5C 167.808,211.284 169.475,210.284 169.5,206.5C 172.808,208.284 174.475,207.284 174.5,203.5C 177.808,205.284 179.475,204.284 179.5,200.5C 180.873,200.657 182.207,200.49 183.5,200C 184.376,198.415 185.709,197.415 187.5,197C 188.337,195.989 188.67,194.822 188.5,193.5C 191.5,193.833 192.833,192.5 192.5,189.5C 194.38,189.771 195.713,189.104 196.5,187.5C 197.401,186.71 198.068,185.71 198.5,184.5C 199.401,183.71 200.068,182.71 200.5,181.5C 201.167,180.833 201.833,180.167 202.5,179.5C 203.434,178.432 203.768,177.099 203.5,175.5C 204.5,175.5 205.5,175.5 206.5,175.5C 206.5,173.833 206.5,172.167 206.5,170.5C 207.5,170.5 208.5,170.5 209.5,170.5C 209.215,168.712 209.548,167.045 210.5,165.5C 211.88,162.736 213.546,160.069 215.5,157.5C 215.137,156.817 214.804,156.15 214.5,155.5C 215.167,155.5 215.5,155.167 215.5,154.5C 217.71,153.545 218.043,152.045 216.5,150C 219.346,149.121 220.013,147.454 218.5,145C 221.343,140.244 223.01,135.244 223.5,130C 221.924,128.005 222.257,126.505 224.5,125.5 Z"/></g>
<g><path style="opacity:1" fill="#275ca1" d="M 224.5,116.5 C 224.5,119.5 224.5,122.5 224.5,125.5C 222.257,126.505 221.924,128.005 223.5,130C 223.01,135.244 221.343,140.244 218.5,145C 220.013,147.454 219.346,149.121 216.5,150C 218.043,152.045 217.71,153.545 215.5,154.5C 213.748,154.582 212.748,153.749 212.5,152C 213.861,150.073 214.694,147.906 215,145.5C 215.75,144.874 216.584,144.374 217.5,144C 216.643,143.311 215.977,142.478 215.5,141.5C 216.527,138.437 217.86,135.604 219.5,133C 218.065,130.733 218.398,128.733 220.5,127C 220.596,123.543 220.263,120.043 219.5,116.5C 221.167,116.5 222.833,116.5 224.5,116.5 Z"/></g>
<g><path style="opacity:1" fill="#1d569e" d="M 10.5,159.5 C 9.19914,158.116 9.19914,156.616 10.5,155C 8.13673,154.411 7.13673,152.911 7.5,150.5C 11.57,148.74 12.9033,149.906 11.5,154C 13.1802,154.347 14.1802,155.347 14.5,157C 13.9681,159.02 12.6348,159.853 10.5,159.5 Z"/></g>
<g><path style="opacity:1" fill="#305fa3" d="M 22.5,179.5 C 21.2392,177.71 19.7392,176.043 18,174.5C 15.6857,170.252 13.519,165.918 11.5,161.5C 13.0418,160.699 14.7085,160.366 16.5,160.5C 16.238,161.978 16.5713,163.311 17.5,164.5C 20.7398,168.252 23.4065,172.419 25.5,177C 25.2517,178.749 24.2517,179.582 22.5,179.5 Z"/></g>
<g><path style="opacity:1" fill="#285ba1" d="M 214.5,155.5 C 214.804,156.15 215.137,156.817 215.5,157.5C 213.546,160.069 211.88,162.736 210.5,165.5C 209.548,167.045 209.215,168.712 209.5,170.5C 208.5,170.5 207.5,170.5 206.5,170.5C 206.5,172.167 206.5,173.833 206.5,175.5C 205.5,175.5 204.5,175.5 203.5,175.5C 203.768,177.099 203.434,178.432 202.5,179.5C 200.654,179.778 199.32,179.111 198.5,177.5C 199.994,175.426 201.327,173.26 202.5,171C 203.448,170.517 204.448,170.351 205.5,170.5C 205.5,168.833 205.5,167.167 205.5,165.5C 206.552,165.649 207.552,165.483 208.5,165C 207.131,162.761 207.631,160.927 210,159.5C 210.49,158.207 210.657,156.873 210.5,155.5C 211.833,155.5 213.167,155.5 214.5,155.5 Z"/></g>
<g><path style="opacity:1" fill="#064f9a" d="M 25.5,183.5 C 24.8333,183.5 24.5,183.167 24.5,182.5C 24.999,179.611 26.499,178.944 29,180.5C 29.3329,182.934 28.1662,183.934 25.5,183.5 Z"/></g>
<g><path style="opacity:1" fill="#0c4f9a" d="M 200.5,181.5 C 200.068,182.71 199.401,183.71 198.5,184.5C 197.504,184.586 196.671,184.252 196,183.5C 195.778,179.195 197.278,178.529 200.5,181.5 Z"/></g>
<g><path style="opacity:1" fill="#084f9a" d="M 32.5,188.5 C 30.901,188.768 29.5676,188.434 28.5,187.5C 28.5,186.5 28.5,185.5 28.5,184.5C 29.8333,184.5 31.1667,184.5 32.5,184.5C 32.5,185.833 32.5,187.167 32.5,188.5 Z"/></g>
<g><path style="opacity:1" fill="#2f599a" d="M 97.5,217.5 C 93.8598,216.727 90.1932,216.06 86.5,215.5C 43.0644,201.663 16.8978,172.33 8,127.5C 4.77316,73.4141 27.9398,35.5808 77.5,14C 122.213,1.5305 160.713,11.6972 193,44.5C 198.932,54.0346 204.599,63.7013 210,73.5C 210.438,76.376 211.438,79.0427 213,81.5C 217.984,102.952 217.651,124.286 212,145.5C 206.099,155.532 200.766,165.865 196,176.5C 187.878,183.823 180.044,191.489 172.5,199.5C 149.707,214.539 124.707,220.539 97.5,217.5 Z"/></g>
<g><path style="opacity:1" fill="#f5c02a" d="M 101.5,10.5 C 115.83,9.71682 129.83,11.2168 143.5,15C 154.91,19.7119 165.91,25.3786 176.5,32C 179.277,35.1219 182.277,37.7886 185.5,40C 195.889,52.5995 204.389,66.4329 211,81.5C 215.975,102.936 215.642,124.269 210,145.5C 203.667,156.833 197.333,168.167 191,179.5C 183.749,184.58 177.249,190.58 171.5,197.5C 135.03,221.297 97.6969,222.797 59.5,202C 18.0349,173.22 2.53493,134.053 13,84.5C 28.3195,42.4792 57.8195,17.8126 101.5,10.5 Z"/></g>
<g><path style="opacity:1" fill="#355e9c" d="M 111.5,34.5 C 109.345,34.372 107.345,34.872 105.5,36C 107.134,36.4935 108.801,36.6602 110.5,36.5C 111.803,38.1423 113.136,39.8089 114.5,41.5C 115.486,37.03 115.819,32.3633 115.5,27.5C 113.801,27.6602 112.134,27.4935 110.5,27C 112.768,23.9291 113.101,20.5958 111.5,17C 114.554,16.1786 117.554,16.3452 120.5,17.5C 120.333,17.8333 120.167,18.1667 120,18.5C 118.644,17.6198 117.144,17.2865 115.5,17.5C 115.5,18.8333 115.5,20.1667 115.5,21.5C 116.93,21.5792 118.264,21.2458 119.5,20.5C 120.833,21.5 120.833,22.5 119.5,23.5C 118.264,22.7542 116.93,22.4208 115.5,22.5C 117.071,25.4409 118.071,28.4409 118.5,31.5C 124.513,34.3372 130.846,35.8372 137.5,36C 165.062,46.9042 182.895,66.7375 191,95.5C 192.974,107.506 192.974,119.506 191,131.5C 187.342,140.466 183.676,149.466 180,158.5C 176.761,161.983 173.761,165.65 171,169.5C 168.92,171.123 166.754,172.623 164.5,174C 163.167,176 161.833,178 160.5,180C 156.467,181.349 153.134,183.682 150.5,187C 145.363,188.268 140.363,189.934 135.5,192C 128.99,192.232 122.656,193.066 116.5,194.5C 105.483,193.483 94.4828,192.317 83.5,191C 77.801,186.818 71.801,183.152 65.5,180C 43.9157,163.5 32.749,141.667 32,114.5C 31.3081,109.109 31.6415,103.775 33,98.5C 35.3944,91.4695 37.7277,84.4695 40,77.5C 43.5038,71.1559 47.5038,65.1559 52,59.5C 58.4442,54.6903 64.6109,49.5236 70.5,44C 75.7631,40.9318 81.4298,38.9318 87.5,38C 88.5,37 89.5,36 90.5,35C 96.8109,34.9445 102.978,34.1112 109,32.5C 110.376,32.6842 111.209,33.3509 111.5,34.5 Z"/></g>
<g><path style="opacity:1" fill="#f6f9fb" d="M 127.5,189.5 C 122.939,192.018 117.939,193.018 112.5,192.5C 112.5,190.5 112.5,188.5 112.5,186.5C 117.527,186.497 122.527,186.164 127.5,185.5C 127.5,186.833 127.5,188.167 127.5,189.5 Z"/></g>
<g><path style="opacity:1" fill="#648bbb" d="M 128.5,189.5 C 128.167,189.5 127.833,189.5 127.5,189.5C 127.5,188.167 127.5,186.833 127.5,185.5C 122.527,186.164 117.527,186.497 112.5,186.5C 112.5,188.5 112.5,190.5 112.5,192.5C 110.901,192.768 109.568,192.434 108.5,191.5C 109.5,191.5 110.5,191.5 111.5,191.5C 111.5,189.5 111.5,187.5 111.5,185.5C 103.874,185.519 97.2076,183.019 91.5,178C 94.4751,178.979 97.4751,180.312 100.5,182C 110.992,185.273 121.325,185.273 131.5,182C 129.047,183.848 128.047,186.348 128.5,189.5 Z"/></g>
<g><path style="opacity:1" fill="#375d8f" d="M 55.5,182.5 C 54.4886,184.372 53.6552,186.372 53,188.5C 52.2496,187.874 51.4162,187.374 50.5,187C 52.0621,185.366 53.7287,183.866 55.5,182.5 Z"/></g>
<g><path style="opacity:1" fill="#47608b" d="M 166.5,187.5 C 164.884,189.416 165.218,190.916 167.5,192C 166.421,192.956 165.255,193.789 164,194.5C 163.663,191.139 163.163,187.806 162.5,184.5C 162.556,183.263 163.056,182.263 164,181.5C 167.421,183.461 170.921,185.294 174.5,187C 173.069,187.465 171.903,188.299 171,189.5C 169.951,187.893 168.451,187.227 166.5,187.5 Z"/></g>
<g><path style="opacity:1" fill="#e4b934" d="M 166.5,187.5 C 164.663,187.361 164.33,186.694 165.5,185.5C 166.298,185.957 166.631,186.624 166.5,187.5 Z"/></g>
<g><path style="opacity:1" fill="#415e8d" d="M 175.5,170.5 C 176.833,170.5 178.167,170.5 179.5,170.5C 179.5,171.833 179.5,173.167 179.5,174.5C 181.857,174.337 184.19,174.503 186.5,175C 183.861,176.946 180.861,177.946 177.5,178C 178.623,179.044 179.956,179.71 181.5,180C 180.333,181.167 179.167,182.333 178,183.5C 176.167,180.333 173.667,177.833 170.5,176C 172.448,172.882 174.281,173.049 176,176.5C 179.328,174.268 178.828,172.768 174.5,172C 175.056,171.617 175.389,171.117 175.5,170.5 Z"/></g>
<g><path style="opacity:1" fill="#385b90" d="M 46.5,176.5 C 49.1986,173.58 48.532,172.913 44.5,174.5C 42.8762,174.36 41.7096,175.027 41,176.5C 40.1667,175.667 39.3333,174.833 38.5,174C 42.2663,173.595 45.933,172.761 49.5,171.5C 50.1667,171.833 50.8333,172.167 51.5,172.5C 50.2957,175.739 48.9624,178.906 47.5,182C 46.0347,182.601 45.0347,182.101 44.5,180.5C 45.8532,179.476 46.5198,178.143 46.5,176.5 Z"/></g>
<g><path style="opacity:1" fill="#9c935f" d="M 46.5,176.5 C 45.5,176.167 44.8333,175.5 44.5,174.5C 48.532,172.913 49.1986,173.58 46.5,176.5 Z"/></g>
<g><path style="opacity:1" fill="#628bbb" d="M 59.5,162.5 C 63.1407,164.324 64.974,167.324 65,171.5C 66.8022,172.789 67.9688,174.456 68.5,176.5C 67.2954,174.862 65.9621,174.529 64.5,175.5C 64.6494,171.253 63.1494,167.92 60,165.5C 59.5172,164.552 59.3505,163.552 59.5,162.5 Z"/></g>
<g><path style="opacity:1" fill="#6a90be" d="M 74.5,166.5 C 77.6192,168.61 79.9525,171.277 81.5,174.5C 79.712,174.785 78.0453,174.452 76.5,173.5C 74.5729,171.898 72.4062,170.565 70,169.5C 68.3657,170.99 68.699,172.324 71,173.5C 72.0086,175.025 72.5086,176.692 72.5,178.5C 70.6203,178.771 69.287,178.104 68.5,176.5C 69.3764,176.631 70.0431,176.298 70.5,175.5C 67.3663,173.279 66.8663,170.613 69,167.5C 71.3116,169.16 73.8116,169.993 76.5,170C 75.1772,169.184 74.5106,168.017 74.5,166.5 Z"/></g>
<g><path style="opacity:1" fill="#606f81" d="M 34.5,168.5 C 32.6231,167.341 32.1231,165.674 33,163.5C 33.6077,165.154 34.1077,166.821 34.5,168.5 Z"/></g>
<g><path style="opacity:1" fill="#4b6488" d="M 188.5,165.5 C 188.227,167.451 188.893,168.951 190.5,170C 189.874,170.75 189.374,171.584 189,172.5C 186.859,168.556 185.025,164.556 183.5,160.5C 187.725,161.556 191.891,161.556 196,160.5C 196.507,161.996 196.007,163.163 194.5,164C 192.414,164.315 190.414,164.815 188.5,165.5 Z"/></g>
<g><path style="opacity:1" fill="#566589" d="M 34.5,168.5 C 35.5,168.5 36.5,168.5 37.5,168.5C 37.5,165.833 37.5,163.167 37.5,160.5C 43.1469,160.282 44.9802,162.615 43,167.5C 42.5065,165.866 42.3398,164.199 42.5,162.5C 41.5,162.5 40.5,162.5 39.5,162.5C 40.167,164.819 40.3336,167.153 40,169.5C 37.7655,170.98 35.9321,170.647 34.5,168.5 Z"/></g>
<g><path style="opacity:1" fill="#fbfcfd" d="M 161.5,174.5 C 161.141,176.371 160.141,177.871 158.5,179C 154.564,180.547 151.064,182.713 148,185.5C 146.97,185.164 146.47,184.497 146.5,183.5C 145.18,177.196 143.847,170.862 142.5,164.5C 147.844,164.334 153.177,164.501 158.5,165C 159.645,168.122 160.645,171.289 161.5,174.5 Z"/></g>
<g><path style="opacity:1" fill="#dcb438" d="M 188.5,165.5 C 186.663,165.361 186.33,164.694 187.5,163.5C 188.298,163.957 188.631,164.624 188.5,165.5 Z"/></g>
<g><path style="opacity:1" fill="#658bbb" d="M 79.5,158.5 C 80.7384,160.214 81.405,162.214 81.5,164.5C 80.7326,163.828 80.0659,162.995 79.5,162C 76.8333,161.333 74.1667,161.333 71.5,162C 72.3862,163.615 73.3862,165.115 74.5,166.5C 73.5,166.5 72.5,166.5 71.5,166.5C 71.6334,163.413 70.3001,161.413 67.5,160.5C 71.9707,161.089 75.9707,160.423 79.5,158.5 Z"/></g>
<g><path style="opacity:1" fill="#edbd2d" d="M 135.5,161.5 C 141.319,160.347 147.319,160.181 153.5,161C 156.051,161.002 158.051,161.836 159.5,163.5C 152.159,163.666 144.826,163.5 137.5,163C 136.956,162.283 136.289,161.783 135.5,161.5 Z"/></g>
<g><path style="opacity:1" fill="#f6f8fb" d="M 81.5,164.5 C 82.6466,168.127 84.3133,171.46 86.5,174.5C 85.2265,179.142 84.0598,183.809 83,188.5C 78.3616,184.54 73.195,181.373 67.5,179C 66.2899,177.961 65.2899,176.794 64.5,175.5C 65.9621,174.529 67.2954,174.862 68.5,176.5C 69.287,178.104 70.6203,178.771 72.5,178.5C 72.5086,176.692 72.0086,175.025 71,173.5C 68.699,172.324 68.3657,170.99 70,169.5C 72.4062,170.565 74.5729,171.898 76.5,173.5C 78.0453,174.452 79.712,174.785 81.5,174.5C 79.9525,171.277 77.6192,168.61 74.5,166.5C 73.3862,165.115 72.3862,163.615 71.5,162C 74.1667,161.333 76.8333,161.333 79.5,162C 80.0659,162.995 80.7326,163.828 81.5,164.5 Z"/></g>
<g><path style="opacity:1" fill="#f2f6fa" d="M 67.5,160.5 C 70.3001,161.413 71.6334,163.413 71.5,166.5C 72.5,166.5 73.5,166.5 74.5,166.5C 74.5106,168.017 75.1772,169.184 76.5,170C 73.8116,169.993 71.3116,169.16 69,167.5C 66.8663,170.613 67.3663,173.279 70.5,175.5C 70.0431,176.298 69.3764,176.631 68.5,176.5C 67.9688,174.456 66.8022,172.789 65,171.5C 64.974,167.324 63.1407,164.324 59.5,162.5C 61.6353,160.631 64.3019,159.964 67.5,160.5 Z"/></g>
<g><path style="opacity:1" fill="#848476" d="M 77.5,154.5 C 79.1042,155.287 79.7709,156.62 79.5,158.5C 75.9707,160.423 71.9707,161.089 67.5,160.5C 67.5,160.167 67.5,159.833 67.5,159.5C 71.649,160.08 75.3157,159.414 78.5,157.5C 77.8902,156.609 77.5569,155.609 77.5,154.5 Z"/></g>
<g><path style="opacity:1" fill="#f4f7fa" d="M 59.5,162.5 C 59.3505,163.552 59.5172,164.552 60,165.5C 63.1494,167.92 64.6494,171.253 64.5,175.5C 58.8333,171.833 54.1667,167.167 50.5,161.5C 53.57,159.377 56.57,159.71 59.5,162.5 Z"/></g>
<g><path style="opacity:1" fill="#f3f6f9" d="M 163.5,172.5 C 161.733,170.208 160.733,167.542 160.5,164.5C 161.434,163.432 161.768,162.099 161.5,160.5C 165.098,160.393 168.598,159.726 172,158.5C 175.732,155.434 178.732,151.768 181,147.5C 180.985,150.57 180.318,153.57 179,156.5C 175.282,159.616 172.282,163.282 170,167.5C 168.074,169.539 165.907,171.206 163.5,172.5 Z"/></g>
<g><path style="opacity:1" fill="#f1bf2a" d="M 61.5,145.5 C 61.5,149.5 61.5,153.5 61.5,157.5C 67.1667,157.5 72.8333,157.5 78.5,157.5C 75.3157,159.414 71.649,160.08 67.5,159.5C 64.5,159.5 61.5,159.5 58.5,159.5C 58.5,154.833 58.5,150.167 58.5,145.5C 59.5,145.5 60.5,145.5 61.5,145.5 Z"/></g>
<g><path style="opacity:1" fill="#5c7ca3" d="M 123.5,138.5 C 123.18,141.898 123.513,145.232 124.5,148.5C 127.467,149.804 129.801,151.804 131.5,154.5C 130.5,154.5 129.5,154.5 128.5,154.5C 128.5,155.5 128.5,156.5 128.5,157.5C 129.873,157.343 131.207,157.51 132.5,158C 131.833,158.333 131.167,158.667 130.5,159C 132.193,159.847 133.86,160.68 135.5,161.5C 136.289,161.783 136.956,162.283 137.5,163C 144.826,163.5 152.159,163.666 159.5,163.5C 159.833,163.5 160.167,163.5 160.5,163.5C 160.5,163.833 160.5,164.167 160.5,164.5C 160.733,167.542 161.733,170.208 163.5,172.5C 163.167,173.5 162.5,174.167 161.5,174.5C 160.645,171.289 159.645,168.122 158.5,165C 153.177,164.501 147.844,164.334 142.5,164.5C 143.847,170.862 145.18,177.196 146.5,183.5C 145.833,183.5 145.5,183.833 145.5,184.5C 143.803,178.015 142.47,171.349 141.5,164.5C 140.448,164.351 139.448,164.517 138.5,165C 140.047,170.698 138.547,175.531 134,179.5C 134.829,177.258 135.829,174.925 137,172.5C 138.953,163.291 135.453,160.291 126.5,163.5C 126.286,165.144 126.62,166.644 127.5,168C 126.672,168.915 125.672,169.581 124.5,170C 118.786,170.632 113.119,170.299 107.5,169C 102.147,166.82 98.8133,162.987 97.5,157.5C 99.9954,162.297 102.995,162.63 106.5,158.5C 108.364,156.986 110.364,155.653 112.5,154.5C 113.156,155.278 113.989,155.944 115,156.5C 116.715,155.396 118.215,154.062 119.5,152.5C 117.806,155.589 118.472,158.089 121.5,160C 124.406,161.318 127.406,161.652 130.5,161C 126.457,158.972 125.791,156.305 128.5,153C 126.679,150.863 124.346,150.03 121.5,150.5C 122.792,147.332 122.792,144.165 121.5,141C 122.066,140.005 122.733,139.172 123.5,138.5 Z"/></g>
<g><path style="opacity:1" fill="#e8ba34" d="M 107.5,163.5 C 107.158,162.662 106.492,162.328 105.5,162.5C 105.833,161.167 106.167,159.833 106.5,158.5C 110.642,157.299 114.475,157.299 118,158.5C 119.319,160.487 121.152,161.654 123.5,162C 118.344,162.68 113.011,163.18 107.5,163.5 Z"/></g>
<g><path style="opacity:1" fill="#bda644" d="M 131.5,154.5 C 131.611,155.117 131.944,155.617 132.5,156C 140.253,156.689 147.919,157.856 155.5,159.5C 156.919,160.451 158.585,160.784 160.5,160.5C 160.5,161.5 160.5,162.5 160.5,163.5C 160.167,163.5 159.833,163.5 159.5,163.5C 158.051,161.836 156.051,161.002 153.5,161C 147.319,160.181 141.319,160.347 135.5,161.5C 133.86,160.68 132.193,159.847 130.5,159C 131.167,158.667 131.833,158.333 132.5,158C 131.207,157.51 129.873,157.343 128.5,157.5C 128.5,156.5 128.5,155.5 128.5,154.5C 129.5,154.5 130.5,154.5 131.5,154.5 Z"/></g>
<g><path style="opacity:1" fill="#baa34b" d="M 109.5,152.5 C 109.973,153.906 110.973,154.573 112.5,154.5C 110.364,155.653 108.364,156.986 106.5,158.5C 102.995,162.63 99.9954,162.297 97.5,157.5C 95.461,156.089 94.461,154.089 94.5,151.5C 98.722,151.737 102.889,151.404 107,150.5C 108.301,150.639 109.134,151.305 109.5,152.5 Z"/></g>
<g><path style="opacity:1" fill="#c2a845" d="M 61.5,145.5 C 65.7597,146.632 69.7597,148.299 73.5,150.5C 74.4023,152.341 75.7356,153.674 77.5,154.5C 77.5569,155.609 77.8902,156.609 78.5,157.5C 72.8333,157.5 67.1667,157.5 61.5,157.5C 61.5,153.5 61.5,149.5 61.5,145.5 Z"/></g>
<g><path style="opacity:1" fill="#58799e" d="M 131.5,154.5 C 139.999,154.399 147.999,156.065 155.5,159.5C 147.919,157.856 140.253,156.689 132.5,156C 131.944,155.617 131.611,155.117 131.5,154.5 Z"/></g>
<g><path style="opacity:1" fill="#3a5b8f" d="M 30.5,152.5 C 32.9118,152.694 33.9118,154.027 33.5,156.5C 32.1667,156.5 30.8333,156.5 29.5,156.5C 29.4326,155.041 29.7659,153.708 30.5,152.5 Z"/></g>
<g><path style="opacity:1" fill="#0d5099" d="M 192.5,150.5 C 193.5,150.5 194.5,150.5 195.5,150.5C 195.5,151.5 195.5,152.5 195.5,153.5C 192.506,153.854 191.506,152.854 192.5,150.5 Z"/></g>
<g><path style="opacity:1" fill="#f1f4f8" d="M 121.5,150.5 C 124.346,150.03 126.679,150.863 128.5,153C 125.791,156.305 126.457,158.972 130.5,161C 127.406,161.652 124.406,161.318 121.5,160C 118.472,158.089 117.806,155.589 119.5,152.5C 119.5,151.167 120.167,150.5 121.5,150.5 Z"/></g>
<g><path style="opacity:1" fill="#43608c" d="M 19.5,135.5 C 22.7261,135.817 26.0594,135.984 29.5,136C 34.6643,143.132 32.8309,147.298 24,148.5C 23.3076,147.975 22.8076,147.308 22.5,146.5C 25.044,145.574 27.544,144.574 30,143.5C 31.0904,140.421 30.2571,138.088 27.5,136.5C 24.77,137.01 22.6034,138.344 21,140.5C 19.9914,138.975 19.4914,137.308 19.5,135.5 Z"/></g>
<g><path style="opacity:1" fill="#bfa648" d="M 158.5,144.5 C 155.167,143.5 151.833,142.5 148.5,141.5C 148.918,140.778 149.584,140.278 150.5,140C 149.944,139.617 149.611,139.117 149.5,138.5C 153.584,138.957 157.417,138.29 161,136.5C 161.497,139.146 161.664,141.813 161.5,144.5C 160.5,144.5 159.5,144.5 158.5,144.5 Z"/></g>
<g><path style="opacity:1" fill="#365c90" d="M 201.5,137.5 C 202.812,138.145 203.812,139.145 204.5,140.5C 200.489,141.031 196.656,142.031 193,143.5C 192.48,141.711 192.813,140.044 194,138.5C 196.044,139.006 198.044,139.339 200,139.5C 201.03,139.164 201.53,138.497 201.5,137.5 Z"/></g>
<g><path style="opacity:1" fill="#406c9a" d="M 76.5,134.5 C 79.6743,135.01 82.0077,136.677 83.5,139.5C 80.883,138.214 78.5496,136.547 76.5,134.5 Z"/></g>
<g><path style="opacity:1" fill="#edf1f6" d="M 76.5,134.5 C 78.5496,136.547 80.883,138.214 83.5,139.5C 84.5,139.5 85.5,139.5 86.5,139.5C 86.3505,140.552 86.5172,141.552 87,142.5C 90.0585,145.056 92.5585,148.056 94.5,151.5C 94.461,154.089 95.461,156.089 97.5,157.5C 98.8133,162.987 102.147,166.82 107.5,169C 113.119,170.299 118.786,170.632 124.5,170C 125.672,169.581 126.672,168.915 127.5,168C 126.62,166.644 126.286,165.144 126.5,163.5C 135.453,160.291 138.953,163.291 137,172.5C 135.829,174.925 134.829,177.258 134,179.5C 138.547,175.531 140.047,170.698 138.5,165C 139.448,164.517 140.448,164.351 141.5,164.5C 142.47,171.349 143.803,178.015 145.5,184.5C 142.51,187.238 138.843,189.071 134.5,190C 132.288,190.789 130.288,190.622 128.5,189.5C 128.047,186.348 129.047,183.848 131.5,182C 121.325,185.273 110.992,185.273 100.5,182C 97.4751,180.312 94.4751,178.979 91.5,178C 97.2076,183.019 103.874,185.519 111.5,185.5C 111.5,187.5 111.5,189.5 111.5,191.5C 110.5,191.5 109.5,191.5 108.5,191.5C 100.439,190.979 92.4394,189.979 84.5,188.5C 85.2908,183.502 86.6242,178.669 88.5,174C 86.0235,170.855 83.6902,167.688 81.5,164.5C 81.405,162.214 80.7384,160.214 79.5,158.5C 79.7709,156.62 79.1042,155.287 77.5,154.5C 75.7356,153.674 74.4023,152.341 73.5,150.5C 68.3963,145.07 62.0629,143.07 54.5,144.5C 53.3519,139.561 55.0186,136.061 59.5,134C 65.2037,133.313 70.8704,133.479 76.5,134.5 Z"/></g>
<g><path style="opacity:1" fill="#4d7ab2" d="M 108.5,172.5 C 110.288,172.215 111.955,172.548 113.5,173.5C 112.603,173.669 111.603,174.002 110.5,174.5C 111.167,175.167 111.833,175.833 112.5,176.5C 112.062,177.506 111.396,177.506 110.5,176.5C 109.749,177.376 109.249,178.376 109,179.5C 108.503,177.19 108.337,174.857 108.5,172.5 Z"/></g>
<g><path style="opacity:1" fill="#446fad" d="M 125.5,171.5 C 127.149,172.649 128.649,173.982 130,175.5C 131.101,174.709 131.934,174.709 132.5,175.5C 131.409,176.888 130.076,177.388 128.5,177C 127.242,175.259 126.242,173.426 125.5,171.5 Z"/></g>
<g><path style="opacity:1" fill="#577db4" d="M 119.5,172.5 C 121.167,172.5 122.833,172.5 124.5,172.5C 126.641,176.416 125.641,179.083 121.5,180.5C 120.451,177.92 119.784,175.254 119.5,172.5 Z"/></g>
<g><path style="opacity:1" fill="#3e6eab" d="M 102.5,170.5 C 104.758,170.775 105.092,171.775 103.5,173.5C 105.43,175.14 106.263,177.14 106,179.5C 105.077,178.241 104.243,176.908 103.5,175.5C 102.742,176.811 101.742,177.311 100.5,177C 102.016,175.103 102.683,172.936 102.5,170.5 Z"/></g>
<g><path style="opacity:1" fill="#4871ae" d="M 97.5,167.5 C 98.2389,167.369 98.9056,167.536 99.5,168C 98.4266,169.594 97.4266,171.094 96.5,172.5C 98.4161,176.522 97.7494,176.522 94.5,172.5C 95.7629,170.971 96.7629,169.305 97.5,167.5 Z"/></g>
<g><path style="opacity:1" fill="#4c77b1" d="M 91.5,164.5 C 93.1294,166.06 94.296,165.727 95,163.5C 95.5,164 96,164.5 96.5,165C 94.7585,166.62 92.9252,168.12 91,169.5C 90.5,169 90,168.5 89.5,168C 90.9733,167.29 91.6399,166.124 91.5,164.5 Z"/></g>
<g><path style="opacity:1" fill="#edf1f6" d="M 105.5,162.5 C 106.492,162.328 107.158,162.662 107.5,163.5C 112.998,164.115 118.665,164.281 124.5,164C 125.996,168.307 124.329,170.14 119.5,169.5C 115.078,169.096 110.744,168.263 106.5,167C 102.175,165.355 101.842,163.855 105.5,162.5 Z"/></g>
<g><path style="opacity:1" fill="#6286b9" d="M 91.5,164.5 C 89.9826,164.511 88.8159,165.177 88,166.5C 87.3076,165.975 86.8076,165.308 86.5,164.5C 90.8267,163.416 91.9934,161.083 90,157.5C 88.5587,158.87 86.892,159.87 85,160.5C 84.3076,159.975 83.8076,159.308 83.5,158.5C 86.2107,157.961 88.3774,156.628 90,154.5C 91.256,156.754 92.4227,159.088 93.5,161.5C 92.3881,162.265 91.7214,163.265 91.5,164.5 Z"/></g>
<g><path style="opacity:1" fill="#4f76b0" d="M 82.5,143.5 C 83.8118,144.145 84.8118,145.145 85.5,146.5C 83.5171,147.982 81.6837,149.649 80,151.5C 79.3076,150.975 78.8076,150.308 78.5,149.5C 82.1196,148.615 83.453,146.615 82.5,143.5 Z"/></g>
<g><path style="opacity:1" fill="#8ea7cd" d="M 77.5,139.5 C 79.3841,139.712 80.7174,140.712 81.5,142.5C 79.5414,143.748 78.0414,145.415 77,147.5C 75.5,146.667 74.3333,145.5 73.5,144C 75.0414,142.629 76.3747,141.129 77.5,139.5 Z"/></g>
<g><path style="opacity:1" fill="#f3f6fa" d="M 179.5,137.5 C 181.045,148.552 176.379,155.718 165.5,159C 162.183,159.498 158.85,159.665 155.5,159.5C 147.999,156.065 139.999,154.399 131.5,154.5C 129.801,151.804 127.467,149.804 124.5,148.5C 123.513,145.232 123.18,141.898 123.5,138.5C 123.5,137.833 123.833,137.5 124.5,137.5C 129.586,138.247 134.586,139.747 139.5,142C 145.778,143.321 152.112,144.154 158.5,144.5C 161.976,145.643 165.642,145.81 169.5,145C 171.797,143.737 172.63,141.903 172,139.5C 171.215,141.286 170.049,142.786 168.5,144C 167.256,144.456 166.423,143.956 166,142.5C 165.29,143.973 164.124,144.64 162.5,144.5C 162.987,140.338 163.32,136.338 163.5,132.5C 169.703,129.847 172.87,131.847 173,138.5C 173.202,136.744 173.702,135.078 174.5,133.5C 176.186,134.857 177.852,136.19 179.5,137.5 Z"/></g>
<g><path style="opacity:1" fill="#638ab9" d="M 161.5,147.5 C 163.527,147.338 165.527,147.505 167.5,148C 166.036,149.864 165.036,152.031 164.5,154.5C 164.061,151.177 163.061,148.844 161.5,147.5 Z"/></g>
<g><path style="opacity:1" fill="#6d92bf" d="M 153.5,147.5 C 154.859,148.007 155.859,149.007 156.5,150.5C 157.167,149.5 157.833,148.5 158.5,147.5C 159.833,149.833 159.833,152.167 158.5,154.5C 157.167,150.5 155.833,150.5 154.5,154.5C 153.526,152.257 153.192,149.924 153.5,147.5 Z"/></g>
<g><path style="opacity:1" fill="#6284b7" d="M 146.5,146.5 C 147.302,147.952 147.802,149.618 148,151.5C 149.016,152.634 149.683,152.301 150,150.5C 150.483,151.448 150.649,152.448 150.5,153.5C 145.813,153.084 144.479,150.751 146.5,146.5 Z"/></g>
<g><path style="opacity:1" fill="#4e7ab2" d="M 136.5,143.5 C 137.165,145.369 137.831,147.369 138.5,149.5C 139.396,148.494 140.062,148.494 140.5,149.5C 138.167,151.002 136.501,150.502 135.5,148C 136.148,146.56 136.481,145.06 136.5,143.5 Z"/></g>
<g><path style="opacity:1" fill="#3b66a8" d="M 142.5,143.5 C 144.958,145.493 145.125,147.826 143,150.5C 142.503,148.19 142.337,145.857 142.5,143.5 Z"/></g>
<g><path style="opacity:1" fill="#50769f" d="M 124.5,137.5 C 132.465,138.803 140.465,140.136 148.5,141.5C 151.833,142.5 155.167,143.5 158.5,144.5C 152.112,144.154 145.778,143.321 139.5,142C 134.586,139.747 129.586,138.247 124.5,137.5 Z"/></g>
<g><path style="opacity:1" fill="#65727b" d="M 201.5,137.5 C 199.016,136.766 197.016,135.266 195.5,133C 195.63,131.941 196.13,131.108 197,130.5C 198.723,132.717 200.223,135.05 201.5,137.5 Z"/></g>
<g><path style="opacity:1" fill="#f1f5f9" d="M 147.5,128.5 C 147.611,129.117 147.944,129.617 148.5,130C 151.367,130.801 154.034,130.634 156.5,129.5C 160.857,128.821 165.19,128.321 169.5,128C 170.328,128.915 171.328,129.581 172.5,130C 169.149,130.057 166.149,130.891 163.5,132.5C 159.602,137.124 154.602,138.624 148.5,137C 145.208,134.588 144.041,131.421 145,127.5C 145.671,128.252 146.504,128.586 147.5,128.5 Z"/></g>
<g><path style="opacity:1" fill="#285f91" d="M 147.5,128.5 C 150.43,129.299 153.43,129.632 156.5,129.5C 154.034,130.634 151.367,130.801 148.5,130C 147.944,129.617 147.611,129.117 147.5,128.5 Z"/></g>
<g><path style="opacity:1" fill="#a09757" d="M 114.5,104.5 C 113.047,105.825 113.381,106.658 115.5,107C 111.915,108.603 111.582,110.769 114.5,113.5C 117.438,112.425 120.438,112.259 123.5,113C 121.167,113.333 118.833,113.667 116.5,114C 113.293,115.135 111.959,117.135 112.5,120C 113.5,120.333 114.5,120.667 115.5,121C 112.311,121.981 111.978,123.314 114.5,125C 113.643,125.689 112.977,126.522 112.5,127.5C 113.833,128.5 113.833,129.5 112.5,130.5C 115.028,131.517 115.028,132.684 112.5,134C 113.167,134.333 113.833,134.667 114.5,135C 113.342,136.009 112.675,137.342 112.5,139C 112.918,144.249 112.918,149.415 112.5,154.5C 110.973,154.573 109.973,153.906 109.5,152.5C 110.525,152.103 110.692,151.437 110,150.5C 108.421,148.959 106.587,147.792 104.5,147C 106.701,146.175 108.534,146.675 110,148.5C 110.163,146.613 109.329,145.113 107.5,144C 108.996,143.493 110.163,143.993 111,145.5C 111.163,143.613 110.329,142.113 108.5,141C 109.449,140.383 110.282,140.549 111,141.5C 111.667,139.833 111.667,138.167 111,136.5C 108.749,134.623 106.249,133.123 103.5,132C 106.269,131.79 108.769,132.623 111,134.5C 111.63,132.097 110.797,130.263 108.5,129C 109.738,129.077 110.738,128.911 111.5,128.5C 110.019,127.52 108.685,126.353 107.5,125C 108.996,124.493 110.163,124.993 111,126.5C 111.507,125.004 111.007,123.837 109.5,123C 111.891,122.309 111.891,121.309 109.5,120C 110.308,119.692 110.975,119.192 111.5,118.5C 110.167,117.5 110.167,116.5 111.5,115.5C 111.023,114.522 110.357,113.689 109.5,113C 110.308,112.692 110.975,112.192 111.5,111.5C 109.833,110.333 108.167,109.167 106.5,108C 108.163,107.735 109.663,108.235 111,109.5C 110.229,107.82 110.395,106.153 111.5,104.5C 112.202,103.884 113.202,103.884 114.5,104.5 Z"/></g>
<g><path style="opacity:1" fill="#567db2" d="M 159.5,122.5 C 163.49,122.999 167.49,123.499 171.5,124C 170.483,125.049 170.316,126.216 171,127.5C 175.016,129.887 177.849,133.221 179.5,137.5C 177.852,136.19 176.186,134.857 174.5,133.5C 173.702,135.078 173.202,136.744 173,138.5C 172.87,131.847 169.703,129.847 163.5,132.5C 166.149,130.891 169.149,130.057 172.5,130C 171.328,129.581 170.328,128.915 169.5,128C 165.19,128.321 160.857,128.821 156.5,129.5C 158.672,128.872 160.338,127.538 161.5,125.5C 161.058,124.261 160.391,123.261 159.5,122.5 Z"/></g>
<g><path style="opacity:1" fill="#6385ab" d="M 67.5,61.5 C 67.1667,61.5 66.8333,61.5 66.5,61.5C 66.1667,61.5 65.8333,61.5 65.5,61.5C 64.5,61.5 63.5,61.5 62.5,61.5C 61.1914,63.5706 60.5248,66.0706 60.5,69C 59.9228,80.8247 59.5894,92.6581 59.5,104.5C 59.5016,114.191 60.1683,123.525 61.5,132.5C 63.5,132.5 65.5,132.5 67.5,132.5C 67.8333,132.5 68.1667,132.5 68.5,132.5C 70.9496,132.298 73.283,132.631 75.5,133.5C 76.1667,133.5 76.5,133.833 76.5,134.5C 70.8704,133.479 65.2037,133.313 59.5,134C 55.0186,136.061 53.3519,139.561 54.5,144.5C 62.0629,143.07 68.3963,145.07 73.5,150.5C 69.7597,148.299 65.7597,146.632 61.5,145.5C 60.5,145.5 59.5,145.5 58.5,145.5C 58.5,150.167 58.5,154.833 58.5,159.5C 61.5,159.5 64.5,159.5 67.5,159.5C 67.5,159.833 67.5,160.167 67.5,160.5C 64.3019,159.964 61.6353,160.631 59.5,162.5C 56.57,159.71 53.57,159.377 50.5,161.5C 50.5394,160.417 50.8728,159.417 51.5,158.5C 50.1666,157.38 49.6666,156.047 50,154.5C 57.2295,161.684 58.7295,160.851 54.5,152C 55.7376,152.077 56.7376,151.911 57.5,151.5C 57.433,149.576 57.0997,147.576 56.5,145.5C 55.5224,145.977 54.6891,146.643 54,147.5C 50.7107,147.085 48.7107,148.752 48,152.5C 47.1042,149.208 48.2709,146.875 51.5,145.5C 51.4321,140.546 53.2655,136.546 57,133.5C 57.7517,130.106 57.5851,126.773 56.5,123.5C 58.0778,120.437 58.7444,117.104 58.5,113.5C 58.3333,110.833 58.1667,108.167 58,105.5C 57.3457,106.696 56.8457,106.696 56.5,105.5C 58.5356,100.73 59.0356,95.7298 58,90.5C 56.5784,92.6381 54.745,93.8047 52.5,94C 58.7965,89.0721 60.1299,83.0721 56.5,76C 57.0253,75.3076 57.6919,74.8076 58.5,74.5C 59.4933,69.8804 59.8266,65.2137 59.5,60.5C 62.3854,60.1936 65.0521,60.5269 67.5,61.5 Z"/></g>
<g><path style="opacity:1" fill="#3a5993" d="M 197.5,122.5 C 200.429,124.495 203.763,125.495 207.5,125.5C 207.657,126.873 207.49,128.207 207,129.5C 203.786,127.517 200.453,127.184 197,128.5C 196.82,126.512 196.986,124.512 197.5,122.5 Z"/></g>
<g><path style="opacity:1" fill="#537aa8" d="M 163.5,77.5 C 163.833,77.5 164.167,77.5 164.5,77.5C 164.231,81.9315 164.564,86.2648 165.5,90.5C 164.355,94.3112 164.188,98.3112 165,102.5C 165.036,100.059 165.869,98.0588 167.5,96.5C 169.849,98.2038 170.849,100.537 170.5,103.5C 169.065,102.21 168.065,100.544 167.5,98.5C 167.167,99 166.833,99.5 166.5,100C 167.309,101.784 167.976,103.617 168.5,105.5C 168.362,108.67 168.029,111.837 167.5,115C 166.584,115.374 165.75,115.874 165,116.5C 162.281,115.556 159.448,115.223 156.5,115.5C 156.688,118.206 157.688,120.539 159.5,122.5C 158.761,122.631 158.094,122.464 157.5,122C 156.624,120.414 155.624,118.914 154.5,117.5C 152.417,118.959 150.25,120.292 148,121.5C 146.336,123.786 146.17,126.119 147.5,128.5C 146.504,128.586 145.671,128.252 145,127.5C 144.041,131.421 145.208,134.588 148.5,137C 154.602,138.624 159.602,137.124 163.5,132.5C 163.32,136.338 162.987,140.338 162.5,144.5C 164.124,144.64 165.29,143.973 166,142.5C 166.423,143.956 167.256,144.456 168.5,144C 170.049,142.786 171.215,141.286 172,139.5C 172.63,141.903 171.797,143.737 169.5,145C 165.642,145.81 161.976,145.643 158.5,144.5C 159.5,144.5 160.5,144.5 161.5,144.5C 161.664,141.813 161.497,139.146 161,136.5C 157.417,138.29 153.584,138.957 149.5,138.5C 146.909,137.746 145.076,136.079 144,133.5C 141.937,127.048 142.104,120.715 144.5,114.5C 146.882,112.785 148.882,110.785 150.5,108.5C 153.799,107.253 157.133,107.253 160.5,108.5C 160.215,110.288 160.548,111.955 161.5,113.5C 162.901,101.541 163.568,89.5414 163.5,77.5 Z"/></g>
<g><path style="opacity:1" fill="#c5a945" d="M 159.5,122.5 C 160.391,123.261 161.058,124.261 161.5,125.5C 160.338,127.538 158.672,128.872 156.5,129.5C 153.43,129.632 150.43,129.299 147.5,128.5C 146.17,126.119 146.336,123.786 148,121.5C 150.25,120.292 152.417,118.959 154.5,117.5C 155.624,118.914 156.624,120.414 157.5,122C 158.094,122.464 158.761,122.631 159.5,122.5 Z"/></g>
<g><path style="opacity:1" fill="#395d8f" d="M 20.5,118.5 C 22.7354,118.205 24.7354,118.539 26.5,119.5C 25.2231,122.553 23.5564,125.386 21.5,128C 24.0631,128.918 26.2298,128.418 28,126.5C 29.1499,129.855 28.3165,130.855 25.5,129.5C 23.2351,129.94 21.0684,130.606 19,131.5C 19.3209,127.502 20.8209,123.835 23.5,120.5C 21.6471,119.24 19.8138,119.24 18,120.5C 17.3076,119.975 16.8076,119.308 16.5,118.5C 17.5575,118.094 18.8908,118.094 20.5,118.5 Z"/></g>
<g><path style="opacity:1" fill="#657878" d="M 198.5,116.5 C 199.5,117.833 200.5,117.833 201.5,116.5C 203.792,116.756 205.959,116.423 208,115.5C 208.667,116.833 208.667,118.167 208,119.5C 204.541,118.867 201.041,118.2 197.5,117.5C 197.624,116.893 197.957,116.56 198.5,116.5 Z"/></g>
<g><path style="opacity:1" fill="#908a6b" d="M 20.5,118.5 C 22.6934,117.203 25.0268,117.203 27.5,118.5C 27.3764,119.107 27.0431,119.44 26.5,119.5C 24.7354,118.539 22.7354,118.205 20.5,118.5 Z"/></g>
<g><path style="opacity:1" fill="#275693" d="M 198.5,105.5 C 201.797,105.89 204.797,106.89 207.5,108.5C 205.5,111.167 203.5,113.833 201.5,116.5C 200.5,117.833 199.5,117.833 198.5,116.5C 200.467,113.421 202.8,110.588 205.5,108C 202.621,107.043 200.121,107.543 198,109.5C 197.203,107.257 197.37,105.923 198.5,105.5 Z"/></g>
<g><path style="opacity:1" fill="#f2f5f9" d="M 152.5,108.5 C 154.564,108.687 156.564,109.187 158.5,110C 157.234,110.309 156.067,110.809 155,111.5C 154.798,113.256 154.298,114.922 153.5,116.5C 149.436,118.022 146.436,120.689 144.5,124.5C 143.359,122.579 143.192,120.579 144,118.5C 146.669,115 149.502,111.667 152.5,108.5 Z"/></g>
<g><path style="opacity:1" fill="#415e90" d="M 25.5,107.5 C 26.6129,108.946 26.7796,110.613 26,112.5C 22.9433,111.549 19.7766,111.216 16.5,111.5C 16.5,110.5 16.5,109.5 16.5,108.5C 19.7131,108.81 22.7131,108.477 25.5,107.5 Z"/></g>
<g><path style="opacity:1" fill="#ae9f4d" d="M 69.5,62.5 C 75.1667,62.5 80.8333,62.5 86.5,62.5C 82.3656,63.4849 78.0323,63.8182 73.5,63.5C 72.819,86.1602 72.4857,108.827 72.5,131.5C 74.5273,131.338 76.5273,131.505 78.5,132C 77.2625,132.232 76.2625,132.732 75.5,133.5C 73.283,132.631 70.9496,132.298 68.5,132.5C 68.1743,124.316 68.5076,116.316 69.5,108.5C 69.5,93.1667 69.5,77.8333 69.5,62.5 Z"/></g>
<g><path style="opacity:1" fill="#f6c225" d="M 69.5,108.5 C 70.1667,93.6612 70.8333,78.6612 71.5,63.5C 71.8333,67 72.1667,70.5 72.5,74C 71.8223,92.4945 71.3223,110.994 71,129.5C 70.6667,130.167 70.3333,130.833 70,131.5C 69.5003,123.841 69.3336,116.174 69.5,108.5 Z"/></g>
<g><path style="opacity:1" fill="#a09360" d="M 207.5,108.5 C 204.797,106.89 201.797,105.89 198.5,105.5C 201.777,105.784 204.943,105.451 208,104.5C 208.765,106.066 208.598,107.399 207.5,108.5 Z"/></g>
<g><path style="opacity:1" fill="#edf1f7" d="M 170.5,103.5 C 172.02,106.579 172.853,109.912 173,113.5C 175.041,112.577 177.208,112.244 179.5,112.5C 179.784,110.585 179.451,108.919 178.5,107.5C 177.11,105 177.277,102.667 179,100.5C 179.802,104.979 181.135,109.313 183,113.5C 183.333,111.833 183.667,110.167 184,108.5C 191.06,114.817 192.56,122.484 188.5,131.5C 185.888,131.015 185.888,131.849 188.5,134C 186.898,138.038 184.898,141.871 182.5,145.5C 181.686,143.234 181.186,140.9 181,138.5C 180.617,137.944 180.117,137.611 179.5,137.5C 177.849,133.221 175.016,129.887 171,127.5C 170.316,126.216 170.483,125.049 171.5,124C 167.49,123.499 163.49,122.999 159.5,122.5C 157.688,120.539 156.688,118.206 156.5,115.5C 159.448,115.223 162.281,115.556 165,116.5C 165.75,115.874 166.584,115.374 167.5,115C 168.029,111.837 168.362,108.67 168.5,105.5C 167.976,103.617 167.309,101.784 166.5,100C 166.833,99.5 167.167,99 167.5,98.5C 168.065,100.544 169.065,102.21 170.5,103.5 Z"/></g>
<g><path style="opacity:1" fill="#809bc5" d="M 170.5,103.5 C 173.621,104.736 174.955,107.069 174.5,110.5C 175.833,110.5 177.167,110.5 178.5,110.5C 178.5,109.5 178.5,108.5 178.5,107.5C 179.451,108.919 179.784,110.585 179.5,112.5C 177.208,112.244 175.041,112.577 173,113.5C 172.853,109.912 172.02,106.579 170.5,103.5 Z"/></g>
<g><path style="opacity:1" fill="#f0f5f9" d="M 163.5,103.5 C 164.458,103.953 165.292,104.619 166,105.5C 166.373,107.698 166.873,109.865 167.5,112C 166.968,114.02 165.635,114.853 163.5,114.5C 163.5,110.833 163.5,107.167 163.5,103.5 Z"/></g>
<g><path style="opacity:1" fill="#c4a943" d="M 155.5,63.5 C 157.421,64.3627 159.421,65.0293 161.5,65.5C 160.857,79.8244 160.524,94.1577 160.5,108.5C 157.133,107.253 153.799,107.253 150.5,108.5C 149.391,107.71 148.058,107.21 146.5,107C 148.421,106.64 150.088,105.806 151.5,104.5C 149.527,103.669 147.527,103.502 145.5,104C 147.37,102.865 149.37,102.032 151.5,101.5C 151.783,102.289 152.283,102.956 153,103.5C 153.59,90.1444 154.424,76.8111 155.5,63.5 Z"/></g>
<g><path style="opacity:1" fill="#305794" d="M 23.5,95.5 C 25.5441,96.0312 27.2107,97.1978 28.5,99C 24.9268,100.371 21.4268,101.871 18,103.5C 17.3333,102.167 17.3333,100.833 18,99.5C 18.3333,99.8333 18.6667,100.167 19,100.5C 20.4411,99.7402 21.9411,99.0736 23.5,98.5C 24.5624,97.5754 24.5624,96.5754 23.5,95.5 Z"/></g>
<g><path style="opacity:1" fill="#f3f6f9" d="M 165.5,90.5 C 168.563,94.5658 172.229,97.8991 176.5,100.5C 176.338,102.527 176.505,104.527 177,106.5C 177.383,107.056 177.883,107.389 178.5,107.5C 178.5,108.5 178.5,109.5 178.5,110.5C 177.167,110.5 175.833,110.5 174.5,110.5C 174.955,107.069 173.621,104.736 170.5,103.5C 170.849,100.537 169.849,98.2038 167.5,96.5C 165.869,98.0588 165.036,100.059 165,102.5C 164.188,98.3112 164.355,94.3112 165.5,90.5 Z"/></g>
<g><path style="opacity:1" fill="#3d5c8f" d="M 204.5,88.5 C 206.427,91.1368 206.927,94.1368 206,97.5C 204.213,98.3431 202.38,98.5098 200.5,98C 199.107,99.1711 198.273,100.671 198,102.5C 197.13,101.892 196.63,101.059 196.5,100C 197.701,97.7661 199.035,95.5994 200.5,93.5C 198.741,92.246 197.241,92.5794 196,94.5C 195.333,92.8333 195.333,91.1667 196,89.5C 196.414,89.9574 196.914,90.2907 197.5,90.5C 199.982,89.9329 202.316,89.2663 204.5,88.5 Z"/></g>
<g><path style="opacity:1" fill="#799dc5" d="M 165.5,90.5 C 169.771,93.1009 173.437,96.4342 176.5,100.5C 172.229,97.8991 168.563,94.5658 165.5,90.5 Z"/></g>
<g><path style="opacity:1" fill="#c6aa44" d="M 111.5,94.5 C 112.167,94.8333 112.833,95.1667 113.5,95.5C 113.279,98.3265 113.612,100.993 114.5,103.5C 125.159,102.504 125.159,102.837 114.5,104.5C 113.202,103.884 112.202,103.884 111.5,104.5C 110.373,103.878 109.373,103.045 108.5,102C 112.436,102.149 112.436,100.983 108.5,98.5C 108.709,97.914 109.043,97.414 109.5,97C 108.256,96.5439 107.423,97.0439 107,98.5C 104.252,97.3144 101.419,96.3144 98.5,95.5C 100.672,95.3241 103.005,95.1575 105.5,95C 104.167,94.3333 102.833,93.6667 101.5,93C 104.981,93.1508 108.148,94.3174 111,96.5C 111.464,95.9056 111.631,95.2389 111.5,94.5 Z"/></g>
<g><path style="opacity:1" fill="#f3c029" d="M 67.5,62.5 C 68.1667,62.5 68.8333,62.5 69.5,62.5C 69.5,77.8333 69.5,93.1667 69.5,108.5C 68.5076,116.316 68.1743,124.316 68.5,132.5C 68.1667,132.5 67.8333,132.5 67.5,132.5C 67.5,109.167 67.5,85.8333 67.5,62.5 Z"/></g>
<g><path style="opacity:1" fill="#caac40" d="M 66.5,61.5 C 66.8333,61.5 67.1667,61.5 67.5,61.5C 67.5,61.8333 67.5,62.1667 67.5,62.5C 67.5,85.8333 67.5,109.167 67.5,132.5C 65.5,132.5 63.5,132.5 61.5,132.5C 61.1746,124.648 61.508,116.982 62.5,109.5C 63.3314,94.0054 63.8314,78.3387 64,62.5C 64.4999,78.1631 64.6666,93.8298 64.5,109.5C 64.1694,116.863 64.5027,124.197 65.5,131.5C 66.4997,108.176 66.8331,84.8429 66.5,61.5 Z"/></g>
<g><path style="opacity:1" fill="#eaba30" d="M 65.5,61.5 C 65.8333,61.5 66.1667,61.5 66.5,61.5C 66.8331,84.8429 66.4997,108.176 65.5,131.5C 64.5027,124.197 64.1694,116.863 64.5,109.5C 65.4964,93.6754 65.8297,77.6754 65.5,61.5 Z"/></g>
<g><path style="opacity:1" fill="#e8bb35" d="M 202.5,91.5 C 203.5,91.5 204.5,91.5 205.5,91.5C 205.5,92.8333 205.5,94.1667 205.5,95.5C 204.167,95.5 202.833,95.5 201.5,95.5C 201.433,94.0413 201.766,92.7079 202.5,91.5 Z"/></g>
<g><path style="opacity:1" fill="#3f6586" d="M 23.5,95.5 C 19.906,94.9776 18.406,92.9776 19,89.5C 20.332,91.66 21.832,93.66 23.5,95.5 Z"/></g>
<g><path style="opacity:1" fill="#919258" d="M 112.5,84.5 C 112.833,84.5 113.167,84.5 113.5,84.5C 113.202,87.3356 113.869,87.8356 115.5,86C 118.5,85.3333 121.5,85.3333 124.5,86C 120.892,86.0259 117.558,86.8593 114.5,88.5C 113.928,90.0778 113.594,91.5778 113.5,93C 114.167,93.3333 114.833,93.6667 115.5,94C 114.584,94.2784 113.918,94.7784 113.5,95.5C 112.833,95.1667 112.167,94.8333 111.5,94.5C 111.047,93.5416 110.381,92.7083 109.5,92C 110.738,92.0773 111.738,91.9106 112.5,91.5C 112.481,89.1385 112.481,86.8052 112.5,84.5 Z"/></g>
<g><path style="opacity:1" fill="#ecbc2f" d="M 152.5,64.5 C 153.457,68.6695 153.457,73.0028 152.5,77.5C 150.436,77.687 148.436,78.187 146.5,79C 148.441,79.7429 150.274,79.5762 152,78.5C 152.499,83.1548 152.666,87.8215 152.5,92.5C 148.5,92.8333 148.5,93.1667 152.5,93.5C 152.806,96.3854 152.473,99.0521 151.5,101.5C 149.37,102.032 147.37,102.865 145.5,104C 147.527,103.502 149.527,103.669 151.5,104.5C 150.088,105.806 148.421,106.64 146.5,107C 148.058,107.21 149.391,107.71 150.5,108.5C 148.882,110.785 146.882,112.785 144.5,114.5C 142.104,120.715 141.937,127.048 144,133.5C 145.076,136.079 146.909,137.746 149.5,138.5C 149.611,139.117 149.944,139.617 150.5,140C 149.584,140.278 148.918,140.778 148.5,141.5C 140.465,140.136 132.465,138.803 124.5,137.5C 123.833,137.5 123.5,137.833 123.5,138.5C 122.733,139.172 122.066,140.005 121.5,141C 122.792,144.165 122.792,147.332 121.5,150.5C 120.167,150.5 119.5,151.167 119.5,152.5C 118.215,154.062 116.715,155.396 115,156.5C 113.989,155.944 113.156,155.278 112.5,154.5C 112.918,149.415 112.918,144.249 112.5,139C 112.675,137.342 113.342,136.009 114.5,135C 113.833,134.667 113.167,134.333 112.5,134C 115.028,132.684 115.028,131.517 112.5,130.5C 113.833,129.5 113.833,128.5 112.5,127.5C 112.977,126.522 113.643,125.689 114.5,125C 111.978,123.314 112.311,121.981 115.5,121C 114.5,120.667 113.5,120.333 112.5,120C 111.959,117.135 113.293,115.135 116.5,114C 118.833,113.667 121.167,113.333 123.5,113C 120.438,112.259 117.438,112.425 114.5,113.5C 111.582,110.769 111.915,108.603 115.5,107C 113.381,106.658 113.047,105.825 114.5,104.5C 125.159,102.837 125.159,102.504 114.5,103.5C 113.612,100.993 113.279,98.3265 113.5,95.5C 113.918,94.7784 114.584,94.2784 115.5,94C 114.833,93.6667 114.167,93.3333 113.5,93C 113.594,91.5778 113.928,90.0778 114.5,88.5C 117.558,86.8593 120.892,86.0259 124.5,86C 121.5,85.3333 118.5,85.3333 115.5,86C 113.869,87.8356 113.202,87.3356 113.5,84.5C 113.968,79.8896 114.134,75.2229 114,70.5C 116.804,65.3474 121.637,63.0141 128.5,63.5C 136.451,65.4713 144.451,65.8046 152.5,64.5 Z"/></g>
<g><path style="opacity:1" fill="#4e6488" d="M 22.5,76.5 C 23.2389,76.369 23.9056,76.5357 24.5,77C 22.0674,79.3483 22.0674,81.515 24.5,83.5C 26.0046,80.8694 26.6713,81.2027 26.5,84.5C 27.8333,84.5 29.1667,84.5 30.5,84.5C 30.687,82.4357 31.187,80.4357 32,78.5C 32.1917,81.9467 31.5251,85.28 30,88.5C 26.8998,86.1205 23.5665,85.4538 20,86.5C 20.5009,83.1487 21.3342,79.8154 22.5,76.5 Z"/></g>
<g><path style="opacity:1" fill="#efbe2b" d="M 161.5,65.5 C 162.5,65.5 163.5,65.5 164.5,65.5C 163.728,69.4517 163.395,73.4517 163.5,77.5C 163.568,89.5414 162.901,101.541 161.5,113.5C 160.548,111.955 160.215,110.288 160.5,108.5C 160.524,94.1577 160.857,79.8244 161.5,65.5 Z"/></g>
<g><path style="opacity:1" fill="#91905b" d="M 152.5,64.5 C 152.5,64.1667 152.5,63.8333 152.5,63.5C 153.5,63.5 154.5,63.5 155.5,63.5C 154.424,76.8111 153.59,90.1444 153,103.5C 152.283,102.956 151.783,102.289 151.5,101.5C 152.473,99.0521 152.806,96.3854 152.5,93.5C 148.5,93.1667 148.5,92.8333 152.5,92.5C 152.666,87.8215 152.499,83.1548 152,78.5C 150.274,79.5762 148.441,79.7429 146.5,79C 148.436,78.187 150.436,77.687 152.5,77.5C 153.457,73.0028 153.457,68.6695 152.5,64.5 Z"/></g>
<g><path style="opacity:1" fill="#f6f8fb" d="M 173.5,68.5 C 181.215,73.2463 185.382,80.2463 186,89.5C 184.29,88.0552 182.456,87.2218 180.5,87C 182.657,88.9121 184.991,90.5787 187.5,92C 189.92,98.6088 190.753,105.442 190,112.5C 187.297,109.462 184.297,106.795 181,104.5C 180.506,102.866 180.34,101.199 180.5,99.5C 179.041,99.4326 177.708,99.7659 176.5,100.5C 173.437,96.4342 169.771,93.1009 165.5,90.5C 164.564,86.2648 164.231,81.9315 164.5,77.5C 165.552,77.6495 166.552,77.4828 167.5,77C 166.267,75.3023 165.6,73.3023 165.5,71C 165.667,69.1667 165.833,67.3333 166,65.5C 168.235,67.2024 170.735,68.2024 173.5,68.5 Z"/></g>
<g><path style="opacity:1" fill="#46608c" d="M 200.5,74.5 C 202.94,77.2606 203.107,80.2606 201,83.5C 196.272,85.6035 192.939,84.2702 191,79.5C 188.832,73.021 190.999,70.1877 197.5,71C 199.426,71.4224 200.426,72.5891 200.5,74.5 Z"/></g>
<g><path style="opacity:1" fill="#f6c128" d="M 200.5,74.5 C 201.868,79.9515 199.868,82.4515 194.5,82C 190.473,74.6418 192.473,72.1418 200.5,74.5 Z"/></g>
<g><path style="opacity:1" fill="#365a90" d="M 32.5,69.5 C 33.4831,70.8503 34.8164,71.8503 36.5,72.5C 36.1667,73.5 35.5,74.1667 34.5,74.5C 31.2684,72.6958 28.2684,71.3625 25.5,70.5C 26.5466,67.5698 28.2132,65.0698 30.5,63C 33.3832,62.2046 34.8832,63.3713 35,66.5C 36.6667,65.8333 38.3333,65.1667 40,64.5C 40.6172,65.4491 40.4506,66.2825 39.5,67C 37.1924,67.9907 34.8591,68.824 32.5,69.5 Z"/></g>
<g><path style="opacity:1" fill="#f0c02a" d="M 32.5,69.5 C 27.2428,68.0296 27.2428,66.6963 32.5,65.5C 32.5,66.8333 32.5,68.1667 32.5,69.5 Z"/></g>
<g><path style="opacity:1" fill="#718eaf" d="M 155.5,60.5 C 161.982,62.211 167.982,64.8776 173.5,68.5C 170.735,68.2024 168.235,67.2024 166,65.5C 165.833,67.3333 165.667,69.1667 165.5,71C 165.6,73.3023 166.267,75.3023 167.5,77C 166.552,77.4828 165.552,77.6495 164.5,77.5C 164.167,77.5 163.833,77.5 163.5,77.5C 163.395,73.4517 163.728,69.4517 164.5,65.5C 163.5,65.5 162.5,65.5 161.5,65.5C 159.421,65.0293 157.421,64.3627 155.5,63.5C 154.5,63.5 153.5,63.5 152.5,63.5C 153.952,62.6981 155.618,62.1981 157.5,62C 156.584,61.7216 155.918,61.2216 155.5,60.5 Z"/></g>
<g><path style="opacity:1" fill="#edbc2f" d="M 86.5,62.5 C 93.557,62.24 100.557,62.5733 107.5,63.5C 108.5,65.1667 109.833,66.5 111.5,67.5C 112.407,73.1064 112.74,78.773 112.5,84.5C 112.481,86.8052 112.481,89.1385 112.5,91.5C 111.738,91.9106 110.738,92.0773 109.5,92C 110.381,92.7083 111.047,93.5416 111.5,94.5C 111.631,95.2389 111.464,95.9056 111,96.5C 108.148,94.3174 104.981,93.1508 101.5,93C 102.833,93.6667 104.167,94.3333 105.5,95C 103.005,95.1575 100.672,95.3241 98.5,95.5C 101.419,96.3144 104.252,97.3144 107,98.5C 107.423,97.0439 108.256,96.5439 109.5,97C 109.043,97.414 108.709,97.914 108.5,98.5C 112.436,100.983 112.436,102.149 108.5,102C 109.373,103.045 110.373,103.878 111.5,104.5C 110.395,106.153 110.229,107.82 111,109.5C 109.663,108.235 108.163,107.735 106.5,108C 108.167,109.167 109.833,110.333 111.5,111.5C 110.975,112.192 110.308,112.692 109.5,113C 110.357,113.689 111.023,114.522 111.5,115.5C 110.167,116.5 110.167,117.5 111.5,118.5C 110.975,119.192 110.308,119.692 109.5,120C 111.891,121.309 111.891,122.309 109.5,123C 111.007,123.837 111.507,125.004 111,126.5C 110.163,124.993 108.996,124.493 107.5,125C 108.685,126.353 110.019,127.52 111.5,128.5C 110.738,128.911 109.738,129.077 108.5,129C 110.797,130.263 111.63,132.097 111,134.5C 108.769,132.623 106.269,131.79 103.5,132C 106.249,133.123 108.749,134.623 111,136.5C 111.667,138.167 111.667,139.833 111,141.5C 110.282,140.549 109.449,140.383 108.5,141C 110.329,142.113 111.163,143.613 111,145.5C 110.163,143.993 108.996,143.493 107.5,144C 109.329,145.113 110.163,146.613 110,148.5C 108.534,146.675 106.701,146.175 104.5,147C 106.587,147.792 108.421,148.959 110,150.5C 110.692,151.437 110.525,152.103 109.5,152.5C 109.134,151.305 108.301,150.639 107,150.5C 102.889,151.404 98.722,151.737 94.5,151.5C 92.5585,148.056 90.0585,145.056 87,142.5C 86.5172,141.552 86.3505,140.552 86.5,139.5C 85.5,139.5 84.5,139.5 83.5,139.5C 82.0077,136.677 79.6743,135.01 76.5,134.5C 76.5,133.833 76.1667,133.5 75.5,133.5C 76.2625,132.732 77.2625,132.232 78.5,132C 76.5273,131.505 74.5273,131.338 72.5,131.5C 72.4857,108.827 72.819,86.1602 73.5,63.5C 78.0323,63.8182 82.3656,63.4849 86.5,62.5 Z"/></g>
<g><path style="opacity:1" fill="#6b7f6e" d="M 76.5,68.5 C 79.8333,68.5 83.1667,68.5 86.5,68.5C 86.6655,72.5138 86.4988,76.5138 86,80.5C 85.5014,76.8484 85.3347,73.1817 85.5,69.5C 82.8333,69.5 80.1667,69.5 77.5,69.5C 77.6653,73.1817 77.4986,76.8484 77,80.5C 76.5012,76.5138 76.3345,72.5138 76.5,68.5 Z"/></g>
<g><path style="opacity:1" fill="#5e737a" d="M 81.5,71.5 C 83.428,73.6006 84.0947,75.9339 83.5,78.5C 82.6667,77.5 81.8333,76.5 81,75.5C 80.7508,76.624 80.2508,77.624 79.5,78.5C 79.2476,76.2102 79.9143,73.8769 81.5,71.5 Z"/></g>
<g><path style="opacity:1" fill="#9c9754" d="M 62.5,61.5 C 63.5,61.5 64.5,61.5 65.5,61.5C 65.8297,77.6754 65.4964,93.6754 64.5,109.5C 64.6666,93.8298 64.4999,78.1631 64,62.5C 63.8314,78.3387 63.3314,94.0054 62.5,109.5C 62.5,93.5 62.5,77.5 62.5,61.5 Z"/></g>
<g><path style="opacity:1" fill="#2e6388" d="M 194.5,62.5 C 196.368,63.7861 196.534,65.1195 195,66.5C 194.51,65.2068 194.343,63.8734 194.5,62.5 Z"/></g>
<g><path style="opacity:1" fill="#637fa2" d="M 146.5,63.5 C 148.5,63.5 150.5,63.5 152.5,63.5C 152.5,63.8333 152.5,64.1667 152.5,64.5C 144.451,65.8046 136.451,65.4713 128.5,63.5C 121.637,63.0141 116.804,65.3474 114,70.5C 114.134,75.2229 113.968,79.8896 113.5,84.5C 113.167,84.5 112.833,84.5 112.5,84.5C 112.74,78.773 112.407,73.1064 111.5,67.5C 113.298,68.4629 114.632,67.7962 115.5,65.5C 114.425,62.562 114.259,59.562 115,56.5C 115.096,59.4512 115.929,62.1178 117.5,64.5C 118.308,64.1924 118.975,63.6924 119.5,63C 118.446,61.6124 118.28,60.1124 119,58.5C 119.862,60.087 120.529,61.7536 121,63.5C 121.333,62.5 121.667,61.5 122,60.5C 123.333,63.1667 124.667,63.1667 126,60.5C 126.308,61.3081 126.808,61.9747 127.5,62.5C 128.5,61.1667 129.5,61.1667 130.5,62.5C 130.833,62.1667 131.167,61.8333 131.5,61.5C 129.973,59.8067 128.64,57.9734 127.5,56C 127.833,55.8333 128.167,55.6667 128.5,55.5C 131.686,58.5209 135.02,61.3542 138.5,64C 141.367,64.8007 144.034,64.6341 146.5,63.5 Z"/></g>
<g><path style="opacity:1" fill="#f2c029" d="M 62.5,61.5 C 62.5,77.5 62.5,93.5 62.5,109.5C 61.508,116.982 61.1746,124.648 61.5,132.5C 60.1683,123.525 59.5016,114.191 59.5,104.5C 59.5894,92.6581 59.9228,80.8247 60.5,69C 60.5248,66.0706 61.1914,63.5706 62.5,61.5 Z"/></g>
<g><path style="opacity:1" fill="#3f5e8d" d="M 194.5,62.5 C 191.7,61.0968 190.2,62.0968 190,65.5C 188.062,64.1398 186.396,64.4732 185,66.5C 184.535,65.0692 183.701,63.9025 182.5,63C 186.164,62.0829 189.33,60.2496 192,57.5C 193.094,59.0779 193.928,60.7446 194.5,62.5 Z"/></g>
<g><path style="opacity:1" fill="#516a84" d="M 40.5,59.5 C 44.5878,59.2184 45.0878,59.8851 42,61.5C 40.9701,61.1639 40.4701,60.4972 40.5,59.5 Z"/></g>
<g><path style="opacity:1" fill="#91aecf" d="M 60.5,57.5 C 59.1854,56.1054 59.5188,55.1054 61.5,54.5C 61.56,55.0431 61.8933,55.3764 62.5,55.5C 68.3386,53.0637 74.3386,51.5637 80.5,51C 73.8903,53.2586 67.2237,55.4252 60.5,57.5 Z"/></g>
<g><path style="opacity:1" fill="#365a91" d="M 36.5,52.5 C 37.2613,53.3909 38.2613,54.0576 39.5,54.5C 41.8006,53.6042 44.1339,53.4375 46.5,54C 47.5348,55.5069 47.3681,57.0069 46,58.5C 45.5172,57.552 45.3505,56.552 45.5,55.5C 43.2133,55.7239 41.0466,56.3906 39,57.5C 36.8434,56.615 36.0101,54.9484 36.5,52.5 Z"/></g>
<g><path style="opacity:1" fill="#eff3f8" d="M 100.5,38.5 C 102.127,40.6298 103.96,42.6298 106,44.5C 106.172,47.8255 106.005,51.1589 105.5,54.5C 105.56,55.0431 105.893,55.3764 106.5,55.5C 109.445,53.8569 112.445,52.5236 115.5,51.5C 118.032,52.5957 120.365,53.9291 122.5,55.5C 124.02,57.5292 125.02,57.5292 125.5,55.5C 124.654,51.8822 124.32,48.2155 124.5,44.5C 124.5,43.8333 124.833,43.5 125.5,43.5C 126.5,43.1667 127.167,42.5 127.5,41.5C 126.506,39.1457 127.506,38.1457 130.5,38.5C 133.187,38.3359 135.854,38.5026 138.5,39C 144.047,41.8525 149.713,44.5192 155.5,47C 162.939,52.9405 169.606,59.7739 175.5,67.5C 175.043,68.2975 174.376,68.6309 173.5,68.5C 167.982,64.8776 161.982,62.211 155.5,60.5C 146.498,55.6683 137.164,51.335 127.5,47.5C 127.165,48.664 127.165,49.9974 127.5,51.5C 133.868,55.553 140.202,59.553 146.5,63.5C 144.034,64.6341 141.367,64.8007 138.5,64C 135.02,61.3542 131.686,58.5209 128.5,55.5C 128.167,55.6667 127.833,55.8333 127.5,56C 128.64,57.9734 129.973,59.8067 131.5,61.5C 131.167,61.8333 130.833,62.1667 130.5,62.5C 129.5,61.1667 128.5,61.1667 127.5,62.5C 126.808,61.9747 126.308,61.3081 126,60.5C 124.667,63.1667 123.333,63.1667 122,60.5C 121.667,61.5 121.333,62.5 121,63.5C 120.529,61.7536 119.862,60.087 119,58.5C 118.28,60.1124 118.446,61.6124 119.5,63C 118.975,63.6924 118.308,64.1924 117.5,64.5C 115.929,62.1178 115.096,59.4512 115,56.5C 114.259,59.562 114.425,62.562 115.5,65.5C 114.632,67.7962 113.298,68.4629 111.5,67.5C 111.973,64.3035 112.639,61.1368 113.5,58C 113.167,57.5 112.833,57 112.5,56.5C 111.772,59.2125 110.939,61.8791 110,64.5C 109.329,63.7476 108.496,63.4142 107.5,63.5C 106.534,61.9432 105.2,60.6099 103.5,59.5C 102.232,60.4279 100.899,60.5946 99.5,60C 101.638,58.5784 102.805,56.745 103,54.5C 100.885,57.1287 98.3855,59.1287 95.5,60.5C 94.1055,60.3793 92.7722,60.046 91.5,59.5C 88.451,61.466 85.1177,61.966 81.5,61C 82.056,60.6174 82.3893,60.1174 82.5,59.5C 77.7592,61.3169 72.7592,61.9836 67.5,61.5C 65.0521,60.5269 62.3854,60.1936 59.5,60.5C 59.8266,65.2137 59.4933,69.8804 58.5,74.5C 57.6919,74.8076 57.0253,75.3076 56.5,76C 60.1299,83.0721 58.7965,89.0721 52.5,94C 54.745,93.8047 56.5784,92.6381 58,90.5C 59.0356,95.7298 58.5356,100.73 56.5,105.5C 56.8457,106.696 57.3457,106.696 58,105.5C 58.1667,108.167 58.3333,110.833 58.5,113.5C 58.7444,117.104 58.0778,120.437 56.5,123.5C 57.5851,126.773 57.7517,130.106 57,133.5C 53.2655,136.546 51.4321,140.546 51.5,145.5C 48.2709,146.875 47.1042,149.208 48,152.5C 48.7107,148.752 50.7107,147.085 54,147.5C 54.6891,146.643 55.5224,145.977 56.5,145.5C 57.0997,147.576 57.433,149.576 57.5,151.5C 56.7376,151.911 55.7376,152.077 54.5,152C 58.7295,160.851 57.2295,161.684 50,154.5C 49.6666,156.047 50.1666,157.38 51.5,158.5C 50.8728,159.417 50.5394,160.417 50.5,161.5C 48.2152,160.043 46.3819,158.043 45,155.5C 37.507,139.372 33.8404,122.372 34,104.5C 34.7926,99.7889 35.7926,95.1222 37,90.5C 38.214,88.9512 39.714,87.7845 41.5,87C 40.1899,83.0107 40.6899,79.1774 43,75.5C 47.5,69.6667 52,63.8333 56.5,58C 57.7932,57.51 59.1266,57.3433 60.5,57.5C 67.2237,55.4252 73.8903,53.2586 80.5,51C 74.3386,51.5637 68.3386,53.0637 62.5,55.5C 61.8933,55.3764 61.56,55.0431 61.5,54.5C 65.7692,49.733 70.7692,45.8996 76.5,43C 83.4733,43.5629 90.4733,43.2296 97.5,42C 91.8062,41.6156 86.1395,41.6156 80.5,42C 82.6234,40.8063 84.9568,40.1397 87.5,40C 91.4658,36.0757 95.7991,35.5757 100.5,38.5 Z"/></g>
<g><path style="opacity:1" fill="#7494b9" d="M 111.5,67.5 C 109.833,66.5 108.5,65.1667 107.5,63.5C 108.496,63.4142 109.329,63.7476 110,64.5C 110.939,61.8791 111.772,59.2125 112.5,56.5C 112.833,57 113.167,57.5 113.5,58C 112.639,61.1368 111.973,64.3035 111.5,67.5 Z"/></g>
<g><path style="opacity:1" fill="#7694b7" d="M 107.5,63.5 C 100.557,62.5733 93.557,62.24 86.5,62.5C 80.8333,62.5 75.1667,62.5 69.5,62.5C 68.8333,62.5 68.1667,62.5 67.5,62.5C 67.5,62.1667 67.5,61.8333 67.5,61.5C 72.7592,61.9836 77.7592,61.3169 82.5,59.5C 82.3893,60.1174 82.056,60.6174 81.5,61C 85.1177,61.966 88.451,61.466 91.5,59.5C 92.7722,60.046 94.1055,60.3793 95.5,60.5C 98.3855,59.1287 100.885,57.1287 103,54.5C 102.805,56.745 101.638,58.5784 99.5,60C 100.899,60.5946 102.232,60.4279 103.5,59.5C 105.2,60.6099 106.534,61.9432 107.5,63.5 Z"/></g>
<g><path style="opacity:1" fill="#789cc5" d="M 82.5,59.5 C 86.5852,55.5552 91.2519,52.7219 96.5,51C 92.1933,54.4832 87.5266,57.3166 82.5,59.5 Z"/></g>
<g><path style="opacity:1" fill="#c6d4e6" d="M 155.5,60.5 C 155.918,61.2216 156.584,61.7216 157.5,62C 155.618,62.1981 153.952,62.6981 152.5,63.5C 150.5,63.5 148.5,63.5 146.5,63.5C 140.202,59.553 133.868,55.553 127.5,51.5C 127.165,49.9974 127.165,48.664 127.5,47.5C 137.164,51.335 146.498,55.6683 155.5,60.5 Z"/></g>
<g><path style="opacity:1" fill="#325992" d="M 184.5,49.5 C 185.627,50.1217 186.627,50.955 187.5,52C 184.071,53.4342 181.238,55.6009 179,58.5C 178.535,57.0692 177.701,55.9025 176.5,55C 179.621,53.6937 182.287,51.8603 184.5,49.5 Z"/></g>
<g><path style="opacity:1" fill="#5f6f7d" d="M 170.5,48.5 C 171.766,49.0899 173.099,49.5899 174.5,50C 172.641,51.5872 171.307,51.0872 170.5,48.5 Z"/></g>
<g><path style="opacity:1" fill="#f0be2c" d="M 122.5,55.5 C 120.365,53.9291 118.032,52.5957 115.5,51.5C 115.336,48.8127 115.503,46.146 116,43.5C 118.333,46.8333 120.667,50.1667 123,53.5C 123.692,54.4368 123.525,55.1034 122.5,55.5 Z"/></g>
<g><path style="opacity:1" fill="#415e8d" d="M 46.5,41.5 C 48.6709,44.8245 51.6709,47.3245 55.5,49C 54.4214,49.956 53.2547,50.7894 52,51.5C 49.7134,48.5379 46.8801,46.3712 43.5,45C 45.0629,44.2411 46.0629,43.0744 46.5,41.5 Z"/></g>
<g><path style="opacity:1" fill="#87a6ca" d="M 128.5,46.5 C 137.099,46.0265 145.765,46.8598 154.5,49C 145.804,48.7638 137.137,47.9305 128.5,46.5 Z"/></g>
<g><path style="opacity:1" fill="#cfaf3e" d="M 125.5,43.5 C 124.833,43.5 124.5,43.8333 124.5,44.5C 122.897,44.6882 121.563,44.1882 120.5,43C 122.387,42.2204 124.054,42.3871 125.5,43.5 Z"/></g>
<g><path style="opacity:1" fill="#365990" d="M 170.5,48.5 C 168.419,47.2727 166.419,45.7727 164.5,44C 168.255,43.6436 171.088,41.4769 173,37.5C 174.255,38.2106 175.421,39.044 176.5,40C 172.068,41.4235 170.068,44.2569 170.5,48.5 Z"/></g>
<g><path style="opacity:1" fill="#ecbc33" d="M 100.5,38.5 C 105.299,38.9928 109.965,39.9928 114.5,41.5C 112.237,46.3645 109.237,50.6979 105.5,54.5C 106.005,51.1589 106.172,47.8255 106,44.5C 103.96,42.6298 102.127,40.6298 100.5,38.5 Z"/></g>
<g><path style="opacity:1" fill="#3b5c8f" d="M 58.5,33.5 C 59.4698,36.6611 61.1365,39.4944 63.5,42C 62.646,43.0217 61.646,43.8551 60.5,44.5C 59.9926,42 58.6592,39.5 56.5,37C 54.6133,36.8374 53.1133,37.6707 52,39.5C 51.8333,39.1667 51.6667,38.8333 51.5,38.5C 53.3263,36.0901 55.6596,34.4234 58.5,33.5 Z"/></g>
<g><path style="opacity:1" fill="#375991" d="M 158.5,35.5 C 157.504,35.5858 156.671,35.2524 156,34.5C 154.663,35.7649 153.163,36.2649 151.5,36C 154.69,33.0714 158.357,31.2381 162.5,30.5C 162.373,34.2618 161.706,37.9285 160.5,41.5C 159.5,41 158.5,40.5 157.5,40C 159.782,38.9158 160.116,37.4158 158.5,35.5 Z"/></g>
<g><path style="opacity:1" fill="#e7ba33" d="M 120.5,37.5 C 123.167,37.5 125.833,37.5 128.5,37.5C 129.492,37.3284 130.158,37.6618 130.5,38.5C 127.506,38.1457 126.506,39.1457 127.5,41.5C 123.775,41.5949 120.109,41.7616 116.5,42C 118.041,40.6288 119.375,39.1288 120.5,37.5 Z"/></g>
<g><path style="opacity:1" fill="#b2c0c7" d="M 128.5,37.5 C 125.833,37.5 123.167,37.5 120.5,37.5C 120.5,36.5 120.5,35.5 120.5,34.5C 123.636,34.6031 126.302,35.6031 128.5,37.5 Z"/></g>
<g><path style="opacity:1" fill="#dbe3ea" d="M 111.5,34.5 C 111.167,35.1667 110.833,35.8333 110.5,36.5C 108.801,36.6602 107.134,36.4935 105.5,36C 107.345,34.872 109.345,34.372 111.5,34.5 Z"/></g>
<g><path style="opacity:1" fill="#dcb438" d="M 158.5,35.5 C 157.105,34.3523 157.272,33.3523 159,32.5C 159.74,33.7494 159.573,34.7494 158.5,35.5 Z"/></g>
<g><path style="opacity:1" fill="#385a8c" d="M 143.5,32.5 C 145.78,32.2537 147.78,32.2537 149.5,32.5C 147.364,33.7928 145.364,33.7928 143.5,32.5 Z"/></g>
<g><path style="opacity:1" fill="#365b90" d="M 74.5,23.5 C 77.0009,23.5109 77.1676,24.1776 75,25.5C 74.5026,28.146 74.3359,30.8127 74.5,33.5C 78.0095,34.1528 77.6762,35.1528 73.5,36.5C 71.9236,32.8716 69.257,30.3716 65.5,29C 66.0253,28.3076 66.6919,27.8076 67.5,27.5C 72.1553,31.9921 73.822,31.1588 72.5,25C 73.4158,24.7216 74.0825,24.2216 74.5,23.5 Z"/></g>
<g><path style="opacity:1" fill="#536386" d="M 58.5,33.5 C 59.3218,31.2721 60.6552,30.6054 62.5,31.5C 61.4231,32.7051 60.0898,33.3718 58.5,33.5 Z"/></g>
<g><path style="opacity:1" fill="#235594" d="M 140.5,22.5 C 141.791,22.2627 142.791,22.596 143.5,23.5C 141.278,23.5587 140.278,24.7253 140.5,27C 140.863,29.1923 141.863,31.0256 143.5,32.5C 139.424,31.2734 137.59,28.6067 138,24.5C 138.708,23.6195 139.542,22.9528 140.5,22.5 Z"/></g>
<g><path style="opacity:1" fill="#798072" d="M 97.5,26.5 C 99.1667,27.8333 100.833,27.8333 102.5,26.5C 102.5,26.8333 102.5,27.1667 102.5,27.5C 100.167,28.8333 97.8333,28.8333 95.5,27.5C 96.4916,27.6716 97.1583,27.3382 97.5,26.5 Z"/></g>
<g><path style="opacity:1" fill="#225b8f" d="M 148.5,23.5 C 150.686,23.5106 151.519,24.5106 151,26.5C 149.955,25.6266 149.122,24.6266 148.5,23.5 Z"/></g>
<g><path style="opacity:1" fill="#2b5595" d="M 102.5,27.5 C 102.5,27.1667 102.5,26.8333 102.5,26.5C 104.441,24.9894 104.941,22.9894 104,20.5C 100.453,17.5437 97.6197,18.0437 95.5,22C 95.5247,23.876 96.1914,25.376 97.5,26.5C 97.1583,27.3382 96.4916,27.6716 95.5,27.5C 91.3057,23.9489 91.6391,20.7822 96.5,18C 100.244,17.0715 103.744,17.5715 107,19.5C 108.248,23.7452 106.748,26.4118 102.5,27.5 Z"/></g>
<g><path style="opacity:1" fill="#325991" d="M 82.5,23.5 C 83.5,23.5 84.5,23.5 85.5,23.5C 85.5,24.8333 85.5,26.1667 85.5,27.5C 82.0464,27.7332 81.0464,26.3999 82.5,23.5 Z"/></g>
<g><path style="opacity:1" fill="#7b836d" d="M 140.5,22.5 C 143.34,21.0829 146.007,21.4162 148.5,23.5C 146.833,23.5 145.167,23.5 143.5,23.5C 142.791,22.596 141.791,22.2627 140.5,22.5 Z"/></g>
<g><path style="opacity:1" fill="#4b5f8d" d="M 126.5,21.5 C 127.833,21.5 129.167,21.5 130.5,21.5C 130.5,22.8333 130.5,24.1667 130.5,25.5C 127.5,25.8333 126.167,24.5 126.5,21.5 Z"/></g>
<g><path style="opacity:1" fill="#f7c127" d="M 102.5,26.5 C 100.833,27.8333 99.1667,27.8333 97.5,26.5C 96.1914,25.376 95.5247,23.876 95.5,22C 97.6197,18.0437 100.453,17.5437 104,20.5C 104.941,22.9894 104.441,24.9894 102.5,26.5 Z"/></g>
<g><path style="opacity:1" fill="#10509a" d="M 32.5,188.5 C 33.8333,188.5 35.1667,188.5 36.5,188.5C 36.8333,191.5 35.5,192.833 32.5,192.5C 31.1667,191.167 31.1667,189.833 32.5,188.5 Z"/></g>
<g><path style="opacity:1" fill="#335892" d="M 55.5,182.5 C 56.6045,180.847 56.7712,179.18 56,177.5C 56.6891,178.357 57.5224,179.023 58.5,179.5C 59.5129,183.219 60.6796,186.886 62,190.5C 63.4229,188.655 64.5896,186.655 65.5,184.5C 66.3081,184.808 66.9747,185.308 67.5,186C 65.4514,188.593 63.2848,191.093 61,193.5C 59.3047,190.569 58.138,187.402 57.5,184C 57.1639,182.97 56.4972,182.47 55.5,182.5 Z"/></g>
<g><path style="opacity:1" fill="#4b6289" d="M 73.5,190.5 C 73.56,189.957 73.8933,189.624 74.5,189.5C 77.5098,190.836 80.5098,192.169 83.5,193.5C 83.1924,194.308 82.6924,194.975 82,195.5C 80.8867,193.671 79.3867,192.837 77.5,193C 75.3225,195.764 74.3225,198.597 74.5,201.5C 73.0878,200.194 71.4211,199.36 69.5,199C 72.9693,196.909 74.3026,194.076 73.5,190.5 Z"/></g>
<g><path style="opacity:1" fill="#13549c" d="M 40.5,196.5 C 38.901,196.768 37.5676,196.434 36.5,195.5C 36.2222,193.654 36.8888,192.32 38.5,191.5C 41.2656,192.535 41.9323,194.201 40.5,196.5 Z"/></g>
<g><path style="opacity:1" fill="#315894" d="M 154.5,193.5 C 153.032,195.611 153.365,197.444 155.5,199C 154.5,199.5 153.5,200 152.5,200.5C 150.985,197.169 149.818,193.836 149,190.5C 151.621,189.009 154.455,188.342 157.5,188.5C 157.5,189.833 157.5,191.167 157.5,192.5C 158.5,192.5 159.5,192.5 160.5,192.5C 161.111,196.029 159.777,197.862 156.5,198C 159.318,195.131 158.652,193.631 154.5,193.5 Z"/></g>
<g><path style="opacity:1" fill="#e2b837" d="M 154.5,193.5 C 153.005,193.585 152.005,192.919 151.5,191.5C 152.833,190.167 154.167,190.167 155.5,191.5C 155.137,192.183 154.804,192.85 154.5,193.5 Z"/></g>
<g><path style="opacity:1" fill="#3462a5" d="M 196.5,187.5 C 195.713,189.104 194.38,189.771 192.5,189.5C 192.833,192.5 191.5,193.833 188.5,193.5C 188.67,194.822 188.337,195.989 187.5,197C 185.709,197.415 184.376,198.415 183.5,200C 182.207,200.49 180.873,200.657 179.5,200.5C 179.475,204.284 177.808,205.284 174.5,203.5C 174.5,202.167 174.5,200.833 174.5,199.5C 175.833,199.5 177.167,199.5 178.5,199.5C 178.35,195.839 179.85,194.839 183,196.5C 183.333,195.167 183.667,193.833 184,192.5C 185.691,189.641 188.191,188.308 191.5,188.5C 191.5,187.167 191.5,185.833 191.5,184.5C 194.285,183.916 195.952,184.916 196.5,187.5 Z"/></g>
<g><path style="opacity:1" fill="#3f5f8d" d="M 87.5,195.5 C 88.5,195.5 89.5,195.5 90.5,195.5C 90.9422,199.154 91.2756,202.821 91.5,206.5C 90.5,206.5 89.5,206.5 88.5,206.5C 89.1667,202.5 87.5,200.833 83.5,201.5C 83.5,202.5 83.5,203.5 83.5,204.5C 82.325,204.719 81.325,204.386 80.5,203.5C 82.8558,200.814 85.1891,198.147 87.5,195.5 Z"/></g>
<g><path style="opacity:1" fill="#c3a64e" d="M 86.5,198.5 C 87.3764,198.369 88.0431,198.702 88.5,199.5C 86.1916,200.873 85.5249,200.54 86.5,198.5 Z"/></g>
<g><path style="opacity:1" fill="#305893" d="M 104.5,198.5 C 105.5,198.5 106.5,198.5 107.5,198.5C 107.5,199.833 107.5,201.167 107.5,202.5C 111.327,202.56 111.994,201.393 109.5,199C 110.5,198.333 111.5,198.333 112.5,199C 112.343,201.89 112.843,204.723 114,207.5C 110.591,208.622 107.091,208.789 103.5,208C 104.451,204.943 104.784,201.777 104.5,198.5 Z"/></g>
<g><path style="opacity:1" fill="#335b90" d="M 122.5,197.5 C 125.487,200.246 128.153,203.413 130.5,207C 129.833,207.167 129.167,207.333 128.5,207.5C 124.866,203.165 121.866,203.499 119.5,208.5C 119.408,204.74 120.408,201.074 122.5,197.5 Z"/></g>
<g><path style="opacity:1" fill="#2f5791" d="M 137.5,195.5 C 138.946,194.387 140.613,194.22 142.5,195C 143.573,196.25 143.573,197.584 142.5,199C 143.613,200.394 144.947,201.561 146.5,202.5C 143.884,203.386 141.551,202.72 139.5,200.5C 138.246,202.259 138.579,203.759 140.5,205C 138.553,205.991 136.553,206.325 134.5,206C 135.748,202.882 135.414,199.882 133.5,197C 134.025,196.308 134.692,195.808 135.5,195.5C 136.004,198.342 137.671,199.675 140.5,199.5C 140.5,198.167 140.5,196.833 140.5,195.5C 139.5,195.5 138.5,195.5 137.5,195.5 Z"/></g>
<g><path style="opacity:1" fill="#255aa0" d="M 59.5,209.5 C 58.7354,209.923 57.9021,210.257 57,210.5C 55.2466,208.704 53.08,207.538 50.5,207C 49.8095,205.933 49.3095,204.766 49,203.5C 46.2224,204.685 44.7224,203.685 44.5,200.5C 41.5,200.833 40.1667,199.5 40.5,196.5C 43.8081,194.716 45.4747,195.716 45.5,199.5C 46.8734,199.343 48.2068,199.51 49.5,200C 52.2464,202.419 55.2464,204.419 58.5,206C 59.3366,207.011 59.67,208.178 59.5,209.5 Z"/></g>
<g><path style="opacity:1" fill="#d9b43d" d="M 122.5,200.5 C 125.481,203.122 125.148,203.789 121.5,202.5C 121.863,201.817 122.196,201.15 122.5,200.5 Z"/></g>
<g><path style="opacity:1" fill="#1359a0" d="M 174.5,203.5 C 174.475,207.284 172.808,208.284 169.5,206.5C 169.525,202.716 171.192,201.716 174.5,203.5 Z"/></g>
<g><path style="opacity:1" fill="#f4c126" d="M 107.5,203.5 C 110.5,203.167 111.833,204.5 111.5,207.5C 110.167,207.5 108.833,207.5 107.5,207.5C 107.5,206.167 107.5,204.833 107.5,203.5 Z"/></g>
<g><path style="opacity:1" fill="#14569e" d="M 169.5,206.5 C 169.475,210.284 167.808,211.284 164.5,209.5C 164.525,205.716 166.192,204.716 169.5,206.5 Z"/></g>
<g><path style="opacity:1" fill="#21579e" d="M 68.5,215.5 C 66.0885,215.863 64.5885,214.863 64,212.5C 60.8501,214.161 59.3501,213.161 59.5,209.5C 60.4163,209.018 61.4163,208.685 62.5,208.5C 64.3822,209.531 66.3822,210.365 68.5,211C 69.7279,212.49 69.7279,213.99 68.5,215.5 Z"/></g>
<g><path style="opacity:1" fill="#16559d" d="M 164.5,209.5 C 164.65,213.161 163.15,214.161 160,212.5C 159.072,215.035 157.238,216.035 154.5,215.5C 153.737,211.591 155.07,210.258 158.5,211.5C 159.837,208.61 161.837,207.943 164.5,209.5 Z"/></g>
<g><path style="opacity:1" fill="#1f59a0" d="M 79.5,219.5 C 77.0885,219.863 75.5885,218.863 75,216.5C 72.9551,218.043 71.4551,217.71 70.5,215.5C 72.134,211.524 73.9673,211.524 76,215.5C 80.0938,214.097 81.2605,215.43 79.5,219.5 Z"/></g>
<g><path style="opacity:1" fill="#2659a0" d="M 153.5,216.5 C 152.15,219.106 150.65,219.106 149,216.5C 148.626,217.416 148.126,218.25 147.5,219C 145.616,219.216 143.949,219.883 142.5,221C 140.934,221.765 139.601,221.598 138.5,220.5C 138.5,219.167 138.5,217.833 138.5,216.5C 140.144,216.286 141.644,216.62 143,217.5C 143.879,214.654 145.546,213.987 148,215.5C 150.926,211.23 152.759,211.564 153.5,216.5 Z"/></g>
<g><path style="opacity:1" fill="#245aa0" d="M 84.5,216.5 C 85.4584,216.953 86.2917,217.619 87,218.5C 90.6693,216.991 92.1693,218.324 91.5,222.5C 89.2776,222.822 87.4443,222.155 86,220.5C 84.0849,221.916 82.5849,221.582 81.5,219.5C 81.5,217.5 82.5,216.5 84.5,216.5 Z"/></g>
<g><path style="opacity:1" fill="#21589f" d="M 137.5,220.5 C 136.817,222.176 135.483,222.843 133.5,222.5C 132.272,220.99 132.272,219.49 133.5,218C 135.945,217.09 137.278,217.924 137.5,220.5 Z"/></g>
<g><path style="opacity:1" fill="#0f509b" d="M 108.5,224.5 C 107.167,224.5 105.833,224.5 104.5,224.5C 104.5,223.167 104.5,221.833 104.5,220.5C 105.833,220.5 107.167,220.5 108.5,220.5C 108.5,221.833 108.5,223.167 108.5,224.5 Z"/></g>
<g><path style="opacity:1" fill="#235ca1" d="M 119.5,224.5 C 116.167,224.5 112.833,224.5 109.5,224.5C 109.33,223.178 109.663,222.011 110.5,221C 113.454,221.561 116.454,221.394 119.5,220.5C 119.5,221.833 119.5,223.167 119.5,224.5 Z"/></g>
<g><path style="opacity:1" fill="#2259a0" d="M 99.5,219.5 C 100.5,219.5 101.5,219.5 102.5,219.5C 102.5,221.167 102.5,222.833 102.5,224.5C 101.167,224.5 99.8333,224.5 98.5,224.5C 98.6309,223.624 98.2975,222.957 97.5,222.5C 95.9291,223.309 94.2624,223.643 92.5,223.5C 92.2845,218.413 94.1178,217.413 98,220.5C 98.3826,219.944 98.8826,219.611 99.5,219.5 Z"/></g>
<g><path style="opacity:1" fill="#235aa0" d="M 131.5,222.5 C 130.116,223.801 128.616,223.801 127,222.5C 126.283,223.044 125.783,223.711 125.5,224.5C 124.167,224.5 122.833,224.5 121.5,224.5C 120.831,220.324 122.331,218.991 126,220.5C 129.307,217.407 131.141,218.074 131.5,222.5 Z"/></g>
</svg>
